<?xml version="1.0" standalone="no"?>
<!DOCTYPE svg PUBLIC "-//W3C//DTD SVG 1.1//EN" "http://www.w3.org/Graphics/SVG/1.1/DTD/svg11.dtd" >
<svg xmlns="http://www.w3.org/2000/svg" xmlns:xlink="http://www.w3.org/1999/xlink" version="1.1">
<metadata>
Created by FontForge 20201107 at Fri May 17 14:59:38 2024
 By 
</metadata>
<defs>
<font id="AndersonGroteskBold" horiz-adv-x="1228" >
  <font-face 
    font-family="Anderson Grotesk"
    font-weight="700"
    font-stretch="normal"
    units-per-em="2048"
    panose-1="0 0 0 0 0 0 0 0 0 0"
    ascent="1638"
    descent="-410"
    x-height="1033"
    cap-height="1426"
    bbox="-79 -405 2096 1618"
    underline-thickness="0"
    underline-position="0"
    unicode-range="U+000A-F07C"
  />
<missing-glyph horiz-adv-x="1017" 
 />
    <glyph glyph-name=".notdef" horiz-adv-x="1017" 
 />
    <glyph glyph-name=".notdef" horiz-adv-x="1017" 
 />
    <glyph glyph-name=".null" horiz-adv-x="0" 
 />
    <glyph glyph-name="nonmarkingreturn" horiz-adv-x="682" 
 />
    <glyph glyph-name="LF" unicode="&#xa;" horiz-adv-x="186" 
 />
    <glyph glyph-name="controlCR" unicode="&#xd;" horiz-adv-x="186" 
 />
    <glyph glyph-name="space" unicode=" " horiz-adv-x="573" 
 />
    <glyph glyph-name="exclam" unicode="!" horiz-adv-x="440" 
d="M310 376h-180l-23 447v589h226v-589zM332 -4h-224v213h224v-213z" />
    <glyph glyph-name="quotedbl" unicode="&#x22;" horiz-adv-x="739" 
d="M107 1176v244h230v-244l-29 -243h-165zM402 1420h230v-244l-29 -243h-165l-36 243v244z" />
    <glyph glyph-name="numbersign" unicode="#" horiz-adv-x="1640" 
d="M1528 865h-325l-36 -303h357l-5 -173h-373l-45 -389h-208l46 389h-362l-49 -389h-207l48 389h-262l5 173h277l36 303h-313l5 172h328l47 389h208l-47 -389h362l46 389h208l-46 -389h310zM959 562l36 303h-362l-36 -303h362z" />
    <glyph glyph-name="dollar" unicode="$" horiz-adv-x="1282" 
d="M1174 383q6 -87 -26 -159t-91.5 -121.5t-136 -81t-165.5 -43.5v-172h-228v172q-194 26 -298 130q-99 98 -122 230l226 36q1 -5 3 -14t14 -33t30.5 -45t57.5 -43.5t89 -35.5v438q-167 56 -267 134q-75 59 -104.5 144.5t-17 165t46 146.5t77.5 100q100 91 265 115v172h228
v-174q58 -11 98 -26q259 -98 302 -367l-243 -29q0 11 -1.5 27t-15 53t-36.5 65q-36 44 -104 67v-433q8 -3 22.5 -7.5t26.5 -8.5t23 -8q58 -20 102.5 -41t89.5 -54t76 -73t52.5 -97.5t26.5 -128.5zM527 878v362q-21 -4 -44 -14q-51 -22 -84 -62.5t-38 -92.5t33 -106
q34 -47 133 -87zM755 197q62 14 106 47t61.5 72.5t13 82t-32.5 76.5q-47 57 -148 96v-374z" />
    <glyph glyph-name="percent" unicode="%" horiz-adv-x="1576" 
d="M1198 641q136 0 203.5 -87t67.5 -238q0 -64 -16 -121t-47.5 -104t-85 -74.5t-122.5 -27.5q-132 0 -201.5 88.5t-69.5 230.5q0 333 271 333zM1198 139q58 0 90.5 49t32.5 146q0 165 -123 165q-55 0 -89.5 -42.5t-34.5 -122.5q0 -195 124 -195zM648 1115q0 -64 -16 -121
t-47 -104t-85 -75t-123 -28q-132 0 -201 89t-69 231q0 333 270 333q136 0 203.5 -87t67.5 -238zM257 1132q0 -189 120 -189q57 0 89 47t32 142q0 84 -32.5 123t-88.5 39q-53 0 -86.5 -42t-33.5 -120zM1063 1424l239 -1l-835 -1425l-239 2z" />
    <glyph glyph-name="ampersand" unicode="&#x26;" horiz-adv-x="1409" 
d="M1300 513q-1 -7 -4 -19.5t-15 -49.5t-27.5 -72.5t-44.5 -82t-64 -84.5l155 -209l-285 2l-49 72q-51 -37 -140.5 -62t-193 -30.5t-211 27t-178.5 103.5q-134 134 -136 297q-1 132 84 250t237 179q-14 19 -37.5 57t-40.5 67l-17 28q-63 116 -42.5 208t92 150.5t168.5 72.5
q82 12 163 -6.5t146 -72t86 -133.5q19 -83 3 -151.5t-55 -122.5t-80 -90.5t-72 -56.5l-32 -19l295 -395q35 29 61.5 91.5t35.5 110.5l9 48zM586 1256q-49 -9 -75 -41.5t-21.5 -86t44.5 -115.5l67 -98q116 70 140.5 158.5t-26.5 142.5t-129 40zM396 239q51 -50 131 -64.5
t162.5 2.5t154.5 58l-311 446q-106 -42 -162.5 -122t-49.5 -167.5t75 -152.5z" />
    <glyph glyph-name="quotesingle" unicode="'" horiz-adv-x="444" 
d="M107 1424h230v-245l-29 -242h-165l-36 242v245z" />
    <glyph glyph-name="parenleft" unicode="(" horiz-adv-x="751" 
d="M643 1499q-46 -39 -97.5 -123.5t-99 -201t-78.5 -271t-30 -308.5q0 -163 29 -315t75.5 -264.5t97.5 -193.5t103 -130h-212q-132 106 -228 356t-96 561q0 148 22.5 279.5t56 223.5t80.5 172t87.5 128t85.5 87h204z" />
    <glyph glyph-name="parenright" unicode=")" horiz-adv-x="751" 
d="M311 1495q45 -39 85.5 -86.5t87.5 -127.5t80.5 -172.5t56 -224t22.5 -279.5q0 -312 -96 -561t-228 -355h-212q52 48 103 129.5t97.5 193.5t75.5 264t30 315q0 155 -31 309.5t-78.5 270.5t-99 200.5t-97.5 123.5h204z" />
    <glyph glyph-name="asterisk" unicode="*" horiz-adv-x="909" 
d="M801 1165v-167l-213 26l171 -129l-119 -118l-132 170l30 -213h-168l26 213l-128 -170l-119 118l187 138l-229 -35v167l209 -26l-166 129l118 118l130 -170l-28 212h168l-25 -207l127 165l119 -118l-167 -127z" />
    <glyph glyph-name="plus" unicode="+" horiz-adv-x="1032" 
d="M924 692v-194h-311v-321h-194v321h-312v194h312v302h194v-302h311z" />
    <glyph glyph-name="comma" unicode="," horiz-adv-x="454" 
d="M107 241h240v-245l-70 -243h-100v243h-70v245z" />
    <glyph glyph-name="hyphen" unicode="-" horiz-adv-x="821" 
d="M758 500h-694v194h694v-194z" />
    <glyph glyph-name="period" unicode="." horiz-adv-x="436" 
d="M328 -2h-221v222h221v-222z" />
    <glyph glyph-name="slash" unicode="/" horiz-adv-x="958" 
d="M626 1422h225l-519 -1424h-225z" />
    <glyph glyph-name="zero" unicode="0" horiz-adv-x="1288" 
d="M644 1425q109 0 197.5 -33.5t151 -95t105 -150t62.5 -197t20 -237.5q0 -111 -18.5 -213t-60.5 -194t-103 -160t-152 -108t-202 -40q-133 0 -236.5 53.5t-168.5 148.5t-98.5 220.5t-33.5 275.5q0 730 537 730zM644 198q144 0 224 141t80 423q0 250 -81.5 364.5
t-222.5 114.5q-134 0 -219.5 -124.5t-85.5 -355.5q0 -563 305 -563z" />
    <glyph glyph-name="one" unicode="1" horiz-adv-x="645" 
d="M342 1424h194v-1428l-223 1l1 1072q-6 -6 -19.5 -15.5t-66.5 -26t-118 -17.5l-3 201q98 2 166 64t69 149z" />
    <glyph glyph-name="two" unicode="2" horiz-adv-x="1183" 
d="M944 692q-52 -54 -123 -102.5t-131.5 -83t-118.5 -74t-101.5 -95t-64.5 -127.5l664 1v-211h-745l-146 1h-71q0 161 81 316.5t215 252.5q60 43 140.5 92.5t127.5 78.5t92.5 71.5t68.5 89.5q40 86 25 157.5t-70 120.5t-133 65q-83 17 -164.5 -9.5t-120.5 -85.5
q-15 -22 -24 -51.5t-11 -48.5l-1 -19l-226 32q23 112 83 195t138 126t170.5 59.5t180 3.5t165.5 -49.5t128 -93.5q31 -35 55.5 -85t38 -115.5t9 -132.5t-37 -141.5t-93.5 -137.5z" />
    <glyph glyph-name="three" unicode="3" horiz-adv-x="1208" 
d="M906 741q8 -3 21 -9.5t46.5 -34.5t59 -65.5t46.5 -106.5t20 -152q-2 -165 -135.5 -280.5t-342.5 -115.5q-121 0 -219.5 32.5t-176 112.5t-108.5 202l235 37q25 -89 100.5 -134t175.5 -42q149 6 218 106q56 82 33 178q-22 94 -106 138q-54 27 -123 25h-113v211l117 2
q116 -1 169 85q45 75 18 165q-28 95 -119 138q-52 24 -117 25q-114 2 -190 -54.5t-82 -164.5l-226 24q17 100 64 176.5t115.5 121.5t150.5 67.5t175 22.5q107 0 194 -33t142.5 -88.5t86 -126t33.5 -148.5q3 -71 -13 -129.5t-40.5 -91.5t-49 -55.5t-41.5 -30.5z" />
    <glyph glyph-name="four" unicode="4" horiz-adv-x="1325" 
d="M983 590h235v-203h-235v-387l-209 -1v388h-667v149l688 892h188v-838zM774 590v487l-372 -487h372z" />
    <glyph glyph-name="five" unicode="5" 
d="M591 931q108 11 197 -11.5t150 -69t103 -113.5t61 -144t19 -161q0 -73 -18.5 -140t-61.5 -129t-107 -106t-161.5 -66.5t-218.5 -14.5q-74 5 -135.5 22.5t-106 46.5t-78.5 63t-58.5 77.5t-40 82.5t-28.5 86l228 29q2 -8 7 -21.5t27 -48.5t51.5 -61.5t84.5 -48t123 -20.5
q69 0 122 22.5t83 60.5t45 81.5t15 92.5q1 139 -71 219t-206 80q-46 0 -87 -12t-66 -29.5t-43.5 -34.5t-26.5 -29l-8 -12l-249 4l63 798h803l-4 -206l-618 -2l-28 -399q4 4 11.5 11t31.5 25t50 32.5t66 28t80 17.5z" />
    <glyph glyph-name="six" unicode="6" horiz-adv-x="1280" 
d="M1168 550q6 -48 5 -92v-3q-3 -116 -40 -206q0 -2 -1 -3q0 -1 -2 -5v-2t-1 -2t-2.5 -4t-2.5 -4q0 -1 -0.5 -3.5t-1.5 -3.5l-2 -4q-2 -2 -4 -6l-3 -6v-1l-3 -6l-3 -6q0 -1 -1 -1q-1 -2 -4 -7q0 -1 -1 -2.5t-2 -2.5l-2 -4q-1 -1 -1 -2q-23 -35 -61 -69t-93 -66.5t-133 -51
t-165 -16.5q-99 3 -183 32.5t-140 75.5t-92.5 94.5t-56.5 99.5q-71 181 -64 429q9 353 157.5 547t412.5 187q57 -1 108.5 -11.5t90.5 -26.5t72.5 -36t57.5 -42t43 -44t31 -42t20 -35t11 -24l3 -9l-212 -50q-1 6 -5 15.5t-22 34t-44 41.5t-75.5 29t-111.5 6
q-122 -12 -210.5 -122t-95.5 -273q3 5 10.5 12.5t35 28t61.5 36t93 30t126 17.5q12 1 24 0q116 1 229 -56q35 -17 59 -34q75 -52 141 -167q36 -63 50 -164zM954 469v5q0 60 -18 109q-61 177 -249 185h-22q-127 -6 -217 -81t-96 -198q-1 -17 1 -48q4 -55 29 -106
q12 -26 31 -48q30 -37 76 -64h1q65 -38 139 -42h16q5 -1 16 -1q33 0 74 9q42 12 67 25q74 38 114 107q37 62 38 148z" />
    <glyph glyph-name="seven" unicode="7" horiz-adv-x="1187" 
d="M107 1426h972v-138l-14 -33l-523 -1256l-241 1l519 1235h-712z" />
    <glyph glyph-name="eight" unicode="8" horiz-adv-x="1259" 
d="M909 729q10 -4 26.5 -11t58 -37t73.5 -67.5t58.5 -104.5t26.5 -145q0 -75 -29.5 -142.5t-89 -124t-161 -91t-233.5 -38.5h-8q-134 4 -238 38.5t-164.5 91t-91 124t-30.5 142.5q0 57 13.5 108t35.5 86.5t48.5 66t53 49t48.5 31.5t36 19l13 5q-5 2 -12.5 5.5t-30 16.5
t-43 28.5t-45.5 42t-43 57t-30.5 73.5t-12.5 91q-1 177 131.5 284.5t361.5 109.5h6h2q226 -2 355 -109.5t128 -284.5q0 -65 -22 -121.5t-53.5 -90.5t-62.5 -58.5t-53 -34.5zM372 1069q-11 -60 22 -121t102 -95q59 -28 139 -28q86 4 135 28q67 34 100 95t22 121
q-17 85 -82 142.5t-177 57.5h-2q-112 -2 -177 -59t-82 -141zM634 154q130 1 207.5 66t70.5 171q-3 53 -39.5 111t-92.5 84q-66 30 -146 28q-80 0 -152 -32q-57 -26 -92 -82t-38 -109q-7 -106 70.5 -170.5t211.5 -66.5z" />
    <glyph glyph-name="nine" unicode="9" horiz-adv-x="1286" 
d="M1103 1141q76 -183 76 -426q0 -353 -143.5 -551t-407.5 -198q-73 0 -137 14.5t-108 37t-80 50t-57.5 55.5t-36.5 50.5t-21 36.5l-5 15l211 55q2 -6 6 -15.5t22.5 -33.5t45 -40.5t76.5 -27t112 -2.5q122 15 207.5 127t87.5 276q-3 -5 -10 -13t-34.5 -29t-61 -38t-92 -33
t-125.5 -21q-15 0 -23 1q-120 -4 -231 50q-26 11 -59 32q-80 54 -145 163q-38 66 -55 162q-6 37 -8 93v2q0 96 45 213q0 2 1 3q0 2 1 4q0 1 2 5q2 6 4 9l1 2l2 4q0 2 2 4q1 2 2.5 6t2.5 6v1h1l6 12v1q1 1 2.5 3t1.5 4l3 6q0 1 1.5 2.5t2.5 3.5q22 36 57 70t87.5 66.5
t128.5 52.5t163 20q80 0 151 -18.5t122.5 -48t94 -68.5t68.5 -77.5t43 -77.5zM623 634q126 9 214.5 86.5t91.5 200.5q1 22 -2 47q-6 58 -32 106q-11 23 -33 47q-33 39 -78 63q-62 34 -140 37q-8 2 -16 0q-8 2 -16 0q-42 -2 -73 -10q-39 -11 -67 -27q-74 -40 -111 -110
q-35 -68 -34 -149v-4q1 -60 20 -109q66 -175 254 -179q14 0 22 1z" />
    <glyph glyph-name="colon" unicode=":" horiz-adv-x="446" 
d="M338 791h-231v241h231v-241zM338 -2h-231v241h231v-241z" />
    <glyph glyph-name="semicolon" unicode=";" horiz-adv-x="454" 
d="M107 242h240v-245l-70 -243h-100v243h-70v245zM343 794h-232v241h232v-241z" />
    <glyph glyph-name="less" unicode="&#x3c;" 
d="M1120 1120v-227l-640 -266l640 -253v-240l-1013 431v127z" />
    <glyph glyph-name="equal" unicode="=" horiz-adv-x="1069" 
d="M960 688h-853v185h853v-185zM960 310h-853v186h853v-186z" />
    <glyph glyph-name="greater" unicode="&#x3e;" 
d="M107 1120l1013 -428v-127l-1013 -431v240l639 253l-639 266v227z" />
    <glyph glyph-name="question" unicode="?" horiz-adv-x="1062" 
d="M857 1298q44 -41 69.5 -108.5t28 -143t-34 -154t-109.5 -133.5q-10 -8 -38.5 -27.5t-40.5 -30t-34 -33t-32 -45.5t-22.5 -58.5t-17 -82t-3.5 -105.5h-213q-3 95 11 173t34.5 126.5t54 91.5t58.5 63.5t60.5 47t48.5 38.5q41 37 56.5 81t5.5 84.5t-37 74.5t-74 54t-102 20
q-59 0 -103 -21.5t-65 -52t-34 -61.5t-15 -52l-2 -22l-200 30q12 86 50 154t92 110t119 67.5t134.5 29t135 -7t123 -38.5t96.5 -69zM624 -3h-214v213h214v-213z" />
    <glyph glyph-name="at" unicode="@" horiz-adv-x="1929" 
d="M1446 1326q125 -87 213.5 -224t127 -287.5t33 -307t-58.5 -284.5q-42 -99 -132.5 -180t-195.5 -102.5t-196 68.5q-19 20 -32 49.5t-17 49.5l-4 20q-3 -5 -10 -14t-30.5 -31t-50 -39.5t-69 -31.5t-88.5 -15q-34 0 -64.5 3t-73 15t-77.5 32.5t-71 59t-61 90t-41 129.5
t-16 174q0 93 15.5 168.5t39.5 126t59.5 88t70 58.5t76 33.5t72 16t63.5 4.5q43 1 83.5 -10.5t66.5 -28.5t46 -34t29 -29l9 -12l-1 95h196v-709q0 -106 58 -120q51 -12 113 53q82 85 103 225q3 20 5 40q12 165 -23 305t-104 235.5t-162.5 162t-195.5 96.5t-207 29
q-144 -1 -265.5 -58t-208.5 -161t-132.5 -262.5t-38.5 -352.5q5 -137 40.5 -252t92.5 -192t130 -133t153.5 -80.5t161.5 -28.5t156.5 16t136.5 60l85 -159q-6 -4 -18 -10.5t-52 -22.5t-82.5 -28.5t-108.5 -23t-132 -10.5q-118 0 -220 29t-193.5 91t-164.5 167t-120 248
q-24 74 -39 162.5t-17.5 194t10 210.5t48.5 212t92 199t147 170.5t207 126.5q125 52 265.5 65t292.5 -22.5t276 -121.5zM944 187q82 0 143.5 78t61.5 228q0 80 -18.5 141.5t-49 95.5t-64 50.5t-69.5 16.5q-207 0 -207 -299q0 -155 52.5 -233.5t150.5 -77.5z" />
    <glyph glyph-name="A" unicode="A" horiz-adv-x="1492" 
d="M866 1426l557 -1425q-8 0 -80 -1t-175 0l-133 340l-555 1l-134 -339q-158 -1 -239 -1l560 1425h199zM547 540h426l-214 565z" />
    <glyph glyph-name="A" unicode="&#xc5;" horiz-adv-x="1492" 
d="M866 1426l557 -1425q-8 0 -80 -1t-175 0l-133 340l-555 1l-134 -339q-158 -1 -239 -1l560 1425h199zM547 540h426l-214 565z" />
    <glyph glyph-name="A" unicode="&#xc4;" horiz-adv-x="1492" 
d="M866 1426l557 -1425q-8 0 -80 -1t-175 0l-133 340l-555 1l-134 -339q-158 -1 -239 -1l560 1425h199zM547 540h426l-214 565z" />
    <glyph glyph-name="A" unicode="&#xc3;" horiz-adv-x="1492" 
d="M866 1426l557 -1425q-8 0 -80 -1t-175 0l-133 340l-555 1l-134 -339q-158 -1 -239 -1l560 1425h199zM547 540h426l-214 565z" />
    <glyph glyph-name="A" unicode="&#xc2;" horiz-adv-x="1492" 
d="M866 1426l557 -1425q-8 0 -80 -1t-175 0l-133 340l-555 1l-134 -339q-158 -1 -239 -1l560 1425h199zM547 540h426l-214 565z" />
    <glyph glyph-name="A" unicode="&#xc1;" horiz-adv-x="1492" 
d="M866 1426l557 -1425q-8 0 -80 -1t-175 0l-133 340l-555 1l-134 -339q-158 -1 -239 -1l560 1425h199zM547 540h426l-214 565z" />
    <glyph glyph-name="A" unicode="&#xc0;" horiz-adv-x="1492" 
d="M866 1426l557 -1425q-8 0 -80 -1t-175 0l-133 340l-555 1l-134 -339q-158 -1 -239 -1l560 1425h199zM547 540h426l-214 565z" />
    <glyph glyph-name="B" unicode="B" horiz-adv-x="1245" 
d="M892 751q6 -1 16.5 -3t41 -12.5t58 -26.5t60.5 -46.5t56 -69.5t37.5 -100t11.5 -134q-2 -57 -22 -111t-57.5 -103.5t-102 -85t-147.5 -46.5q-97 -13 -243 -13h-378l-135 1v1429h555q40 0 132 -11q134 -17 219 -105t94 -237q4 -74 -14.5 -134.5t-48 -94.5t-60 -57.5
t-51.5 -31.5zM306 1234v-385h110h57q23 0 97 1t84 1q107 -2 162.5 48.5t55.5 146.5q0 140 -148 174q-48 11 -191 11zM579 208q87 -2 151.5 7.5t105 27t65 45.5t34 59.5t9.5 72.5q0 38 -14.5 73t-46.5 67.5t-93 52.5t-144 20l-340 -1v-424h215h58z" />
    <glyph glyph-name="C" unicode="C" horiz-adv-x="1452" 
d="M1117 364l227 -50q-2 -7 -7 -19t-25 -46t-46 -65.5t-73.5 -69.5t-103.5 -65t-138.5 -46t-177.5 -19q-148 0 -270.5 49.5t-212 144.5t-138 242t-45.5 333q3 168 55 302.5t141.5 221t208 132.5t254.5 46q99 0 183.5 -20.5t141 -53.5t102 -73t71 -80t43 -73t23.5 -53l5 -21
l-218 -36q-3 8 -10 22t-34.5 49t-63 61.5t-99.5 47.5t-140 20q-96 -2 -171 -26.5t-135 -92.5q-122 -137 -117 -406q2 -120 41 -233.5t103 -176.5q110 -107 299 -112q75 -2 136 14t95 41t57 50t31 43z" />
    <glyph glyph-name="C" unicode="&#xc7;" horiz-adv-x="1452" 
d="M1117 364l227 -50q-2 -7 -7 -19t-25 -46t-46 -65.5t-73.5 -69.5t-103.5 -65t-138.5 -46t-177.5 -19q-148 0 -270.5 49.5t-212 144.5t-138 242t-45.5 333q3 168 55 302.5t141.5 221t208 132.5t254.5 46q99 0 183.5 -20.5t141 -53.5t102 -73t71 -80t43 -73t23.5 -53l5 -21
l-218 -36q-3 8 -10 22t-34.5 49t-63 61.5t-99.5 47.5t-140 20q-96 -2 -171 -26.5t-135 -92.5q-122 -137 -117 -406q2 -120 41 -233.5t103 -176.5q110 -107 299 -112q75 -2 136 14t95 41t57 50t31 43z" />
    <glyph glyph-name="D" unicode="D" horiz-adv-x="1415" 
d="M556 1424q82 0 153.5 -7.5t150 -28.5t141.5 -54.5t122 -90t98.5 -131t63 -181t23.5 -236.5q0 -120 -20 -218t-56 -169.5t-90.5 -126t-119 -89t-147 -56t-168.5 -30t-189 -8.5h-411v1426h449zM512 204q65 0 115 3.5t110.5 16t105 34t89 59.5t72.5 90t45.5 129t17.5 174
q0 506 -532 506l-203 -1v-1012q84 1 180 1z" />
    <glyph glyph-name="E" unicode="E" horiz-adv-x="1179" 
d="M1071 1424v-195l-753 -2l1 -388l585 1l-1 -213l-580 -2v-424h748v-204h-964v1427h964z" />
    <glyph glyph-name="E" unicode="&#xcb;" horiz-adv-x="1179" 
d="M1071 1424v-195l-753 -2l1 -388l585 1l-1 -213l-580 -2v-424h748v-204h-964v1427h964z" />
    <glyph glyph-name="E" unicode="&#xca;" horiz-adv-x="1179" 
d="M1071 1424v-195l-753 -2l1 -388l585 1l-1 -213l-580 -2v-424h748v-204h-964v1427h964z" />
    <glyph glyph-name="E" unicode="&#xc9;" horiz-adv-x="1179" 
d="M1071 1424v-195l-753 -2l1 -388l585 1l-1 -213l-580 -2v-424h748v-204h-964v1427h964z" />
    <glyph glyph-name="E" unicode="&#xc8;" horiz-adv-x="1179" 
d="M1071 1424v-195l-753 -2l1 -388l585 1l-1 -213l-580 -2v-424h748v-204h-964v1427h964z" />
    <glyph glyph-name="F" unicode="F" horiz-adv-x="1177" 
d="M1070 1424v-195l-753 -2l2 -388l568 1h18l-1 -213h-18l-564 -1v-629l-13 1l-202 -1v1427h963z" />
    <glyph glyph-name="G" unicode="G" horiz-adv-x="1511" 
d="M1402 763v-26l2 -738h-189l-17 191q-4 -8 -12.5 -22t-43.5 -49.5t-79 -62.5t-122.5 -49.5t-170.5 -22.5q-314 0 -488.5 196.5t-174.5 566.5q0 162 49.5 295.5t136.5 223t206.5 138.5t259.5 50q82 1 154 -11.5t125.5 -33.5t99 -49t76.5 -59t55.5 -62t39 -59.5t23.5 -50
t12 -34.5l4 -13l-223 -37l-2.5 12.5t-11.5 30t-24 43t-41.5 45t-63 42t-90 29.5t-119.5 11q-211 -3 -323.5 -142t-107.5 -380q5 -274 121.5 -412.5t331.5 -136.5q76 1 138.5 14.5t103 35t71 47t46.5 51t26 47t12 34.5l3 13l-1 148h-348l-2 186h558z" />
    <glyph glyph-name="H" unicode="H" horiz-adv-x="1331" 
d="M985 1424h223v-1427h-219l-1 635h-656l-1 -635h-224v1427h220v-568h658v568z" />
    <glyph glyph-name="I" unicode="I" horiz-adv-x="534" 
d="M380 0h-227v1426h227v-1426z" />
    <glyph glyph-name="I" unicode="&#xcf;" horiz-adv-x="534" 
d="M380 0h-227v1426h227v-1426z" />
    <glyph glyph-name="I" unicode="&#xce;" horiz-adv-x="534" 
d="M380 0h-227v1426h227v-1426z" />
    <glyph glyph-name="I" unicode="&#xcd;" horiz-adv-x="534" 
d="M380 0h-227v1426h227v-1426z" />
    <glyph glyph-name="I" unicode="&#xcc;" horiz-adv-x="534" 
d="M380 0h-227v1426h227v-1426z" />
    <glyph glyph-name="J" unicode="J" horiz-adv-x="966" 
d="M466 -30q-83 1 -150 25t-104.5 58.5t-62.5 68.5t-33 58l-9 24l201 75q1 -4 3.5 -11t14 -25t28 -31.5t48.5 -24.5t73 -11q27 0 49.5 5.5t38.5 13.5t28.5 24t20.5 28.5t13.5 35.5t8.5 37.5t4.5 42.5t1.5 42v43l1 978h216v-1014q0 -79 -9 -140.5t-35 -120t-68.5 -97
t-113 -62t-165.5 -22.5z" />
    <glyph glyph-name="K" unicode="K" horiz-adv-x="1204" 
d="M549 716l622 -719h-299l-540 648v-647h-225v1426h225v-638l514 638l265 -1z" />
    <glyph glyph-name="L" unicode="L" horiz-adv-x="1148" 
d="M342 223l699 -1v-220h-934v1426l231 2z" />
    <glyph glyph-name="M" unicode="M" horiz-adv-x="1660" 
d="M1447 1426l107 -1425l-238 -1l-39 719l9 244l-84 -240l-322 -722l-110 -1l-334 750l-69 208l9 -216l-43 -742l-226 3l86 1423l198 -1l439 -998l428 998z" />
    <glyph glyph-name="N" unicode="N" horiz-adv-x="1345" 
d="M1237 1427v-624v-117v-569v-73v-43h-136l-39 -1l-733 992l7 -992l-229 1v1426h137h41l725 -967l4 967h223z" />
    <glyph glyph-name="N" unicode="&#xd1;" horiz-adv-x="1345" 
d="M1237 1427v-624v-117v-569v-73v-43h-136l-39 -1l-733 992l7 -992l-229 1v1426h137h41l725 -967l4 967h223z" />
    <glyph glyph-name="O" unicode="O" horiz-adv-x="1533" 
d="M767 1445q219 0 380 -93.5t244 -259t83 -382.5q0 -332 -195 -533t-512 -201q-331 0 -518.5 188t-187.5 546q0 178 55 319.5t152 231.5t224 137t275 47zM768 165q201 0 334.5 150.5t133.5 395.5q0 240 -134 393t-334 153q-203 0 -337.5 -149.5t-134.5 -400.5
q1 -262 129.5 -402t342.5 -140z" />
    <glyph glyph-name="O" unicode="&#xd8;" horiz-adv-x="1533" 
d="M767 1445q219 0 380 -93.5t244 -259t83 -382.5q0 -332 -195 -533t-512 -201q-331 0 -518.5 188t-187.5 546q0 178 55 319.5t152 231.5t224 137t275 47zM768 165q201 0 334.5 150.5t133.5 395.5q0 240 -134 393t-334 153q-203 0 -337.5 -149.5t-134.5 -400.5
q1 -262 129.5 -402t342.5 -140z" />
    <glyph glyph-name="O" unicode="&#xd6;" horiz-adv-x="1533" 
d="M767 1445q219 0 380 -93.5t244 -259t83 -382.5q0 -332 -195 -533t-512 -201q-331 0 -518.5 188t-187.5 546q0 178 55 319.5t152 231.5t224 137t275 47zM768 165q201 0 334.5 150.5t133.5 395.5q0 240 -134 393t-334 153q-203 0 -337.5 -149.5t-134.5 -400.5
q1 -262 129.5 -402t342.5 -140z" />
    <glyph glyph-name="O" unicode="&#xd5;" horiz-adv-x="1533" 
d="M767 1445q219 0 380 -93.5t244 -259t83 -382.5q0 -332 -195 -533t-512 -201q-331 0 -518.5 188t-187.5 546q0 178 55 319.5t152 231.5t224 137t275 47zM768 165q201 0 334.5 150.5t133.5 395.5q0 240 -134 393t-334 153q-203 0 -337.5 -149.5t-134.5 -400.5
q1 -262 129.5 -402t342.5 -140z" />
    <glyph glyph-name="O" unicode="&#xd4;" horiz-adv-x="1533" 
d="M767 1445q219 0 380 -93.5t244 -259t83 -382.5q0 -332 -195 -533t-512 -201q-331 0 -518.5 188t-187.5 546q0 178 55 319.5t152 231.5t224 137t275 47zM768 165q201 0 334.5 150.5t133.5 395.5q0 240 -134 393t-334 153q-203 0 -337.5 -149.5t-134.5 -400.5
q1 -262 129.5 -402t342.5 -140z" />
    <glyph glyph-name="O" unicode="&#xd3;" horiz-adv-x="1533" 
d="M767 1445q219 0 380 -93.5t244 -259t83 -382.5q0 -332 -195 -533t-512 -201q-331 0 -518.5 188t-187.5 546q0 178 55 319.5t152 231.5t224 137t275 47zM768 165q201 0 334.5 150.5t133.5 395.5q0 240 -134 393t-334 153q-203 0 -337.5 -149.5t-134.5 -400.5
q1 -262 129.5 -402t342.5 -140z" />
    <glyph glyph-name="O" unicode="&#xd2;" horiz-adv-x="1533" 
d="M767 1445q219 0 380 -93.5t244 -259t83 -382.5q0 -332 -195 -533t-512 -201q-331 0 -518.5 188t-187.5 546q0 178 55 319.5t152 231.5t224 137t275 47zM768 165q201 0 334.5 150.5t133.5 395.5q0 240 -134 393t-334 153q-203 0 -337.5 -149.5t-134.5 -400.5
q1 -262 129.5 -402t342.5 -140z" />
    <glyph glyph-name="P" unicode="P" horiz-adv-x="1269" 
d="M1213 1043q32 -256 -118 -398q-32 -30 -57 -48l-2 -2q-67 -44 -158.5 -65.5t-237.5 -23.5h-133h-179v-505l-221 -1v1436l579 2q84 1 157 -14t124 -40.5t93 -61t68 -72t45 -76.5t27.5 -71.5t12.5 -59.5zM645 719q95 0 163 20.5t103.5 56.5t51 76t15.5 89q0 130 -78 200
t-255 70l-317 -1v-509h17z" />
    <glyph glyph-name="Q" unicode="Q" horiz-adv-x="1519" 
d="M1458 727q0 -149 -42.5 -273.5t-116.5 -195.5q-26 -25 -59 -50t-52 -37l-20 -12l254 47l28 -206h-714q-317 6 -496 192.5t-179 534.5q0 176 54.5 315.5t150 228.5t221.5 135.5t272 46.5q216 0 375.5 -92.5t241.5 -256t82 -377.5zM760 187q198 0 330 149t132 391
q0 238 -132.5 389t-329.5 151q-97 0 -182 -37.5t-148.5 -106.5t-99.5 -172.5t-36 -228.5q1 -259 127.5 -397t338.5 -138z" />
    <glyph glyph-name="R" unicode="R" horiz-adv-x="1277" 
d="M1080 284q26 -82 60 -154t55 -102l21 -31h-287q-34 57 -89 264q-24 89 -74 158t-110 105.5t-118 55t-110 18.5h-2h-82v-601h-237v1428h481q112 3 201.5 -17.5t144 -53.5t93.5 -79.5t56 -86t25 -82.5q19 -98 -6 -199.5t-89 -171.5q-33 -35 -95.5 -57.5t-107.5 -27.5
l-46 -6q106 -20 186.5 -112.5t129.5 -247.5zM638 787q60 0 106.5 15t73 39t42.5 56t20.5 62t1.5 61q-6 80 -71 140t-190 59l-277 -1v-430h14z" />
    <glyph glyph-name="S" unicode="S" horiz-adv-x="1241" 
d="M805 775q59 -20 103 -40.5t90.5 -53.5t77.5 -72.5t52.5 -97t26.5 -128.5q7 -106 -43 -190t-134.5 -132.5t-193.5 -72t-217 -17t-207 42t-161 95.5q-92 90 -115 178l208 81q1 -6 4 -16t19 -37.5t39.5 -50t70 -46t106.5 -33.5q98 -15 172 -3t122 45.5t71 76t19.5 88
t-33.5 81.5q-27 33 -74 59.5t-75 37t-99.5 31t-79.5 22.5q-113 34 -185.5 67t-137.5 83q-76 59 -106 144t-17.5 164t46.5 146t79 100q62 55 145.5 85.5t166.5 34t154 -4t131 -24.5q29 -9 62.5 -28t73.5 -52t77 -86.5t61 -119.5l-205 -84q-9 53 -61 116q-38 45 -109 67
t-144 18t-129 -27q-51 -22 -84.5 -62.5t-38 -92t33.5 -105.5q22 -30 70.5 -56.5t92 -41.5t134.5 -43.5t141 -45.5z" />
    <glyph glyph-name="T" unicode="T" horiz-adv-x="1171" 
d="M51 1423h1085v-204h-420v-1222h-238v1222h-427v204z" />
    <glyph glyph-name="U" unicode="U" horiz-adv-x="1400" 
d="M1055 1423l239 -1l-9 -860q0 -41 -0.5 -63t-2 -60t-5.5 -60.5t-11 -56.5t-17 -57t-26 -52.5t-36.5 -52.5t-48 -48t-61.5 -48q-30 -20 -65.5 -35.5t-68 -25t-70 -15.5t-66 -8.5t-61 -3t-50.5 0t-39 1.5t-22 1q-61 1 -122 15.5t-122.5 46t-112 77t-88 115t-51.5 154.5
q-20 117 -19 274l-13 761h248l5 -604v-30v-18v-45q6 -272 32 -347q33 -95 104.5 -140.5t204.5 -46.5q190 -2 267.5 80.5t80.5 293.5z" />
    <glyph glyph-name="U" unicode="&#xdc;" horiz-adv-x="1400" 
d="M1055 1423l239 -1l-9 -860q0 -41 -0.5 -63t-2 -60t-5.5 -60.5t-11 -56.5t-17 -57t-26 -52.5t-36.5 -52.5t-48 -48t-61.5 -48q-30 -20 -65.5 -35.5t-68 -25t-70 -15.5t-66 -8.5t-61 -3t-50.5 0t-39 1.5t-22 1q-61 1 -122 15.5t-122.5 46t-112 77t-88 115t-51.5 154.5
q-20 117 -19 274l-13 761h248l5 -604v-30v-18v-45q6 -272 32 -347q33 -95 104.5 -140.5t204.5 -46.5q190 -2 267.5 80.5t80.5 293.5z" />
    <glyph glyph-name="U" unicode="&#xdb;" horiz-adv-x="1400" 
d="M1055 1423l239 -1l-9 -860q0 -41 -0.5 -63t-2 -60t-5.5 -60.5t-11 -56.5t-17 -57t-26 -52.5t-36.5 -52.5t-48 -48t-61.5 -48q-30 -20 -65.5 -35.5t-68 -25t-70 -15.5t-66 -8.5t-61 -3t-50.5 0t-39 1.5t-22 1q-61 1 -122 15.5t-122.5 46t-112 77t-88 115t-51.5 154.5
q-20 117 -19 274l-13 761h248l5 -604v-30v-18v-45q6 -272 32 -347q33 -95 104.5 -140.5t204.5 -46.5q190 -2 267.5 80.5t80.5 293.5z" />
    <glyph glyph-name="U" unicode="&#xda;" horiz-adv-x="1400" 
d="M1055 1423l239 -1l-9 -860q0 -41 -0.5 -63t-2 -60t-5.5 -60.5t-11 -56.5t-17 -57t-26 -52.5t-36.5 -52.5t-48 -48t-61.5 -48q-30 -20 -65.5 -35.5t-68 -25t-70 -15.5t-66 -8.5t-61 -3t-50.5 0t-39 1.5t-22 1q-61 1 -122 15.5t-122.5 46t-112 77t-88 115t-51.5 154.5
q-20 117 -19 274l-13 761h248l5 -604v-30v-18v-45q6 -272 32 -347q33 -95 104.5 -140.5t204.5 -46.5q190 -2 267.5 80.5t80.5 293.5z" />
    <glyph glyph-name="U" unicode="&#xd9;" horiz-adv-x="1400" 
d="M1055 1423l239 -1l-9 -860q0 -41 -0.5 -63t-2 -60t-5.5 -60.5t-11 -56.5t-17 -57t-26 -52.5t-36.5 -52.5t-48 -48t-61.5 -48q-30 -20 -65.5 -35.5t-68 -25t-70 -15.5t-66 -8.5t-61 -3t-50.5 0t-39 1.5t-22 1q-61 1 -122 15.5t-122.5 46t-112 77t-88 115t-51.5 154.5
q-20 117 -19 274l-13 761h248l5 -604v-30v-18v-45q6 -272 32 -347q33 -95 104.5 -140.5t204.5 -46.5q190 -2 267.5 80.5t80.5 293.5z" />
    <glyph glyph-name="V" unicode="V" horiz-adv-x="1441" 
d="M620 0l-558 1425h52h80h124l361 -976l47 -167l48 165l365 977q158 1 239 1l-560 -1425h-198z" />
    <glyph glyph-name="W" unicode="W" horiz-adv-x="2050" 
d="M1691 1428q32 1 137.5 0t112.5 -1q-74 -236 -203 -713.5t-203 -713.5h-217l-294 1153l-305 -1153h-212q-74 236 -200 713.5t-200 713.5q7 0 112.5 1t137.5 0l210 -855l40 -223l43 220l233 858l56 -1h94h2h74l53 1l237 -866l41 -213l38 215z" />
    <glyph glyph-name="X" unicode="X" horiz-adv-x="1458" 
d="M1352 1425l-486 -714l486 -714h-299l-324 505l-324 -505h-298l486 714l-486 714h298l325 -503l323 503h299z" />
    <glyph glyph-name="Y" unicode="Y" horiz-adv-x="1331" 
d="M1009 1425q29 0 130 -0.5t130 -0.5q-94 -163 -270 -467t-221 -382v-579h-227v577q-57 98 -227.5 395.5t-262.5 455.5q29 0 133 0.5t137 0.5l334 -636z" />
    <glyph glyph-name="Y" unicode="&#xdd;" horiz-adv-x="1331" 
d="M1009 1425q29 0 130 -0.5t130 -0.5q-94 -163 -270 -467t-221 -382v-579h-227v577q-57 98 -227.5 395.5t-262.5 455.5q29 0 133 0.5t137 0.5l334 -636z" />
    <glyph glyph-name="Z" unicode="Z" horiz-adv-x="1273" 
d="M449 220l717 5v-227q-158 0 -516 -0.5t-516 -0.5l-2 176l709 1051l-731 -8l-3 212q145 0 508.5 -0.5t527.5 -0.5l-1 -159z" />
    <glyph glyph-name="bracketleft" unicode="[" horiz-adv-x="606" 
d="M499 1362h-181v-1517h181v-157h-392v1822h392v-148z" />
    <glyph glyph-name="backslash" unicode="\" horiz-adv-x="960" 
d="M333 1424l519 -1425h-226l-519 1425h226z" />
    <glyph glyph-name="bracketright" unicode="]" horiz-adv-x="606" 
d="M107 1504h392v-1822h-392v158h181v1517h-181v147z" />
    <glyph glyph-name="asciicircum" unicode="^" horiz-adv-x="978" 
d="M544 1428l327 -752l-176 1l-203 475l-199 -473l-186 1l339 749z" />
    <glyph glyph-name="underscore" unicode="_" horiz-adv-x="1210" 
d="M1101 -171h-994v167h994v-167z" />
    <glyph glyph-name="a" unicode="a" horiz-adv-x="1124" 
d="M990 201l54 -204l-253 -1l-12 130q-3 -6 -10.5 -16t-35.5 -35t-63 -44.5t-97 -35.5t-134 -16q-150 0 -243 68t-112 175q-23 127 52.5 227.5t205.5 125.5q47 9 152 18t171.5 25t96.5 50q21 22 18.5 59t-29.5 71q-58 73 -223 68q-88 -2 -141.5 -36t-70.5 -91l-197 48
q2 9 7.5 24.5t27.5 55t51 67.5q57 56 152 85.5t189 28.5t184 -20q53 -13 102 -41t75 -57q36 -42 55 -90.5t22 -97t4 -107t0 -119.5zM780 407v87q-32 -26 -83.5 -40.5t-103.5 -20t-103 -11.5t-93.5 -22t-62.5 -45q-38 -54 -15 -109.5t92 -78.5q75 -24 161 0t147 90t61 150z
" />
    <glyph glyph-name="a" unicode="&#xe5;" horiz-adv-x="1124" 
d="M990 201l54 -204l-253 -1l-12 130q-3 -6 -10.5 -16t-35.5 -35t-63 -44.5t-97 -35.5t-134 -16q-150 0 -243 68t-112 175q-23 127 52.5 227.5t205.5 125.5q47 9 152 18t171.5 25t96.5 50q21 22 18.5 59t-29.5 71q-58 73 -223 68q-88 -2 -141.5 -36t-70.5 -91l-197 48
q2 9 7.5 24.5t27.5 55t51 67.5q57 56 152 85.5t189 28.5t184 -20q53 -13 102 -41t75 -57q36 -42 55 -90.5t22 -97t4 -107t0 -119.5zM780 407v87q-32 -26 -83.5 -40.5t-103.5 -20t-103 -11.5t-93.5 -22t-62.5 -45q-38 -54 -15 -109.5t92 -78.5q75 -24 161 0t147 90t61 150z
" />
    <glyph glyph-name="a" unicode="&#xe4;" horiz-adv-x="1124" 
d="M990 201l54 -204l-253 -1l-12 130q-3 -6 -10.5 -16t-35.5 -35t-63 -44.5t-97 -35.5t-134 -16q-150 0 -243 68t-112 175q-23 127 52.5 227.5t205.5 125.5q47 9 152 18t171.5 25t96.5 50q21 22 18.5 59t-29.5 71q-58 73 -223 68q-88 -2 -141.5 -36t-70.5 -91l-197 48
q2 9 7.5 24.5t27.5 55t51 67.5q57 56 152 85.5t189 28.5t184 -20q53 -13 102 -41t75 -57q36 -42 55 -90.5t22 -97t4 -107t0 -119.5zM780 407v87q-32 -26 -83.5 -40.5t-103.5 -20t-103 -11.5t-93.5 -22t-62.5 -45q-38 -54 -15 -109.5t92 -78.5q75 -24 161 0t147 90t61 150z
" />
    <glyph glyph-name="a" unicode="&#xe3;" horiz-adv-x="1124" 
d="M990 201l54 -204l-253 -1l-12 130q-3 -6 -10.5 -16t-35.5 -35t-63 -44.5t-97 -35.5t-134 -16q-150 0 -243 68t-112 175q-23 127 52.5 227.5t205.5 125.5q47 9 152 18t171.5 25t96.5 50q21 22 18.5 59t-29.5 71q-58 73 -223 68q-88 -2 -141.5 -36t-70.5 -91l-197 48
q2 9 7.5 24.5t27.5 55t51 67.5q57 56 152 85.5t189 28.5t184 -20q53 -13 102 -41t75 -57q36 -42 55 -90.5t22 -97t4 -107t0 -119.5zM780 407v87q-32 -26 -83.5 -40.5t-103.5 -20t-103 -11.5t-93.5 -22t-62.5 -45q-38 -54 -15 -109.5t92 -78.5q75 -24 161 0t147 90t61 150z
" />
    <glyph glyph-name="a" unicode="&#xe2;" horiz-adv-x="1124" 
d="M990 201l54 -204l-253 -1l-12 130q-3 -6 -10.5 -16t-35.5 -35t-63 -44.5t-97 -35.5t-134 -16q-150 0 -243 68t-112 175q-23 127 52.5 227.5t205.5 125.5q47 9 152 18t171.5 25t96.5 50q21 22 18.5 59t-29.5 71q-58 73 -223 68q-88 -2 -141.5 -36t-70.5 -91l-197 48
q2 9 7.5 24.5t27.5 55t51 67.5q57 56 152 85.5t189 28.5t184 -20q53 -13 102 -41t75 -57q36 -42 55 -90.5t22 -97t4 -107t0 -119.5zM780 407v87q-32 -26 -83.5 -40.5t-103.5 -20t-103 -11.5t-93.5 -22t-62.5 -45q-38 -54 -15 -109.5t92 -78.5q75 -24 161 0t147 90t61 150z
" />
    <glyph glyph-name="a" unicode="&#xe1;" horiz-adv-x="1124" 
d="M990 201l54 -204l-253 -1l-12 130q-3 -6 -10.5 -16t-35.5 -35t-63 -44.5t-97 -35.5t-134 -16q-150 0 -243 68t-112 175q-23 127 52.5 227.5t205.5 125.5q47 9 152 18t171.5 25t96.5 50q21 22 18.5 59t-29.5 71q-58 73 -223 68q-88 -2 -141.5 -36t-70.5 -91l-197 48
q2 9 7.5 24.5t27.5 55t51 67.5q57 56 152 85.5t189 28.5t184 -20q53 -13 102 -41t75 -57q36 -42 55 -90.5t22 -97t4 -107t0 -119.5zM780 407v87q-32 -26 -83.5 -40.5t-103.5 -20t-103 -11.5t-93.5 -22t-62.5 -45q-38 -54 -15 -109.5t92 -78.5q75 -24 161 0t147 90t61 150z
" />
    <glyph glyph-name="a" unicode="&#xe0;" horiz-adv-x="1124" 
d="M990 201l54 -204l-253 -1l-12 130q-3 -6 -10.5 -16t-35.5 -35t-63 -44.5t-97 -35.5t-134 -16q-150 0 -243 68t-112 175q-23 127 52.5 227.5t205.5 125.5q47 9 152 18t171.5 25t96.5 50q21 22 18.5 59t-29.5 71q-58 73 -223 68q-88 -2 -141.5 -36t-70.5 -91l-197 48
q2 9 7.5 24.5t27.5 55t51 67.5q57 56 152 85.5t189 28.5t184 -20q53 -13 102 -41t75 -57q36 -42 55 -90.5t22 -97t4 -107t0 -119.5zM780 407v87q-32 -26 -83.5 -40.5t-103.5 -20t-103 -11.5t-93.5 -22t-62.5 -45q-38 -54 -15 -109.5t92 -78.5q75 -24 161 0t147 90t61 150z
" />
    <glyph glyph-name="b" unicode="b" horiz-adv-x="1110" 
d="M595 1052q51 2 101 -7.5t111 -43t106 -88t76 -154.5t31 -232q0 -113 -19.5 -203.5t-54 -149t-77 -99.5t-93 -61t-96.5 -27t-94 -3q-54 4 -101 20.5t-75 37t-48.5 40.5t-29.5 34l-8 13v-129h-217v1423h217v-522q3 6 10 15.5t31 35t52.5 45t76.5 36.5t101 19zM523 181
q74 -15 129.5 7t87.5 74t47 121t15 155q0 175 -71.5 269.5t-206.5 64.5q-85 -19 -141 -102.5t-56 -236.5q0 -313 196 -352z" />
    <glyph glyph-name="c" unicode="c" horiz-adv-x="1042" 
d="M529 171q50 -4 92 9t66 34.5t41 43t24 37.5l6 16l213 -50q-2 -6 -5 -16t-18 -38.5t-33.5 -54.5t-53 -57.5t-75.5 -54.5t-102 -38.5t-131 -15.5q-108 0 -195.5 34t-152 101t-99.5 173.5t-36 245.5q-1 240 127.5 378.5t356.5 138.5q66 0 124 -14.5t98 -38.5t73 -52
t53 -56.5t33.5 -52.5t18.5 -39l6 -14l-215 -56q-1 6 -4.5 16.5t-19 37t-36.5 46t-60.5 34.5t-88.5 12q-111 -6 -174 -96t-68 -248q0 -175 64.5 -266t170.5 -99z" />
    <glyph glyph-name="c" unicode="&#xe7;" horiz-adv-x="1042" 
d="M529 171q50 -4 92 9t66 34.5t41 43t24 37.5l6 16l213 -50q-2 -6 -5 -16t-18 -38.5t-33.5 -54.5t-53 -57.5t-75.5 -54.5t-102 -38.5t-131 -15.5q-108 0 -195.5 34t-152 101t-99.5 173.5t-36 245.5q-1 240 127.5 378.5t356.5 138.5q66 0 124 -14.5t98 -38.5t73 -52
t53 -56.5t33.5 -52.5t18.5 -39l6 -14l-215 -56q-1 6 -4.5 16.5t-19 37t-36.5 46t-60.5 34.5t-88.5 12q-111 -6 -174 -96t-68 -248q0 -175 64.5 -266t170.5 -99z" />
    <glyph glyph-name="d" unicode="d" horiz-adv-x="1112" 
d="M785 1421h217v-1423h-217v129q-3 -5 -8.5 -14t-28 -32.5t-49.5 -42t-74.5 -35.5t-101.5 -21q-53 -4 -105.5 5.5t-106.5 35.5t-101 80t-76 131q-1 4 -4 12.5t-5 12.5q-37 114 -37 266q0 151 39 259q0 1 2 5q24 65 61.5 114t77.5 77t87 44.5t85 21.5t75 4q53 -2 100 -18.5
t77 -38t52 -43t32 -36.5l9 -15v522zM585 178q96 19 147 108.5t51 244.5q0 153 -57 236t-142 103q-90 21 -154 -18.5t-94 -121t-30 -195.5q0 -86 15 -155t47 -121t87.5 -74t129.5 -7z" />
    <glyph glyph-name="e" unicode="e" horiz-adv-x="1056" 
d="M510 1050q114 4 202 -28t138 -83t82 -121.5t42.5 -133.5t10.5 -130q0 -53 -4 -92v-2l-681 -2q0 -6 0.5 -16t5 -39t12 -55.5t24.5 -59.5t40 -57.5t60.5 -42.5t83.5 -21q50 -3 92.5 8t68 29t43 36.5t24.5 31.5l7 13l208 -57q-4 -10 -12.5 -27t-43 -59.5t-78 -75.5
t-121.5 -59.5t-169 -26.5q-289 1 -415 256q-26 53 -42 121.5t-17.5 144.5t10 152.5t44.5 146t82.5 124t127.5 88.5t175 37zM300 622h452q0 5 -0.5 14.5t-5 35.5t-12.5 50t-25.5 53t-40.5 50.5t-60.5 36t-83.5 14.5q-43 0 -78 -13.5t-57.5 -36t-40 -49.5t-26.5 -54.5t-14 -50
t-6 -36.5z" />
    <glyph glyph-name="e" unicode="&#xeb;" horiz-adv-x="1056" 
d="M510 1050q114 4 202 -28t138 -83t82 -121.5t42.5 -133.5t10.5 -130q0 -53 -4 -92v-2l-681 -2q0 -6 0.5 -16t5 -39t12 -55.5t24.5 -59.5t40 -57.5t60.5 -42.5t83.5 -21q50 -3 92.5 8t68 29t43 36.5t24.5 31.5l7 13l208 -57q-4 -10 -12.5 -27t-43 -59.5t-78 -75.5
t-121.5 -59.5t-169 -26.5q-289 1 -415 256q-26 53 -42 121.5t-17.5 144.5t10 152.5t44.5 146t82.5 124t127.5 88.5t175 37zM300 622h452q0 5 -0.5 14.5t-5 35.5t-12.5 50t-25.5 53t-40.5 50.5t-60.5 36t-83.5 14.5q-43 0 -78 -13.5t-57.5 -36t-40 -49.5t-26.5 -54.5t-14 -50
t-6 -36.5z" />
    <glyph glyph-name="e" unicode="&#xea;" horiz-adv-x="1056" 
d="M510 1050q114 4 202 -28t138 -83t82 -121.5t42.5 -133.5t10.5 -130q0 -53 -4 -92v-2l-681 -2q0 -6 0.5 -16t5 -39t12 -55.5t24.5 -59.5t40 -57.5t60.5 -42.5t83.5 -21q50 -3 92.5 8t68 29t43 36.5t24.5 31.5l7 13l208 -57q-4 -10 -12.5 -27t-43 -59.5t-78 -75.5
t-121.5 -59.5t-169 -26.5q-289 1 -415 256q-26 53 -42 121.5t-17.5 144.5t10 152.5t44.5 146t82.5 124t127.5 88.5t175 37zM300 622h452q0 5 -0.5 14.5t-5 35.5t-12.5 50t-25.5 53t-40.5 50.5t-60.5 36t-83.5 14.5q-43 0 -78 -13.5t-57.5 -36t-40 -49.5t-26.5 -54.5t-14 -50
t-6 -36.5z" />
    <glyph glyph-name="e" unicode="&#xe9;" horiz-adv-x="1056" 
d="M510 1050q114 4 202 -28t138 -83t82 -121.5t42.5 -133.5t10.5 -130q0 -53 -4 -92v-2l-681 -2q0 -6 0.5 -16t5 -39t12 -55.5t24.5 -59.5t40 -57.5t60.5 -42.5t83.5 -21q50 -3 92.5 8t68 29t43 36.5t24.5 31.5l7 13l208 -57q-4 -10 -12.5 -27t-43 -59.5t-78 -75.5
t-121.5 -59.5t-169 -26.5q-289 1 -415 256q-26 53 -42 121.5t-17.5 144.5t10 152.5t44.5 146t82.5 124t127.5 88.5t175 37zM300 622h452q0 5 -0.5 14.5t-5 35.5t-12.5 50t-25.5 53t-40.5 50.5t-60.5 36t-83.5 14.5q-43 0 -78 -13.5t-57.5 -36t-40 -49.5t-26.5 -54.5t-14 -50
t-6 -36.5z" />
    <glyph glyph-name="e" unicode="&#xe8;" horiz-adv-x="1056" 
d="M510 1050q114 4 202 -28t138 -83t82 -121.5t42.5 -133.5t10.5 -130q0 -53 -4 -92v-2l-681 -2q0 -6 0.5 -16t5 -39t12 -55.5t24.5 -59.5t40 -57.5t60.5 -42.5t83.5 -21q50 -3 92.5 8t68 29t43 36.5t24.5 31.5l7 13l208 -57q-4 -10 -12.5 -27t-43 -59.5t-78 -75.5
t-121.5 -59.5t-169 -26.5q-289 1 -415 256q-26 53 -42 121.5t-17.5 144.5t10 152.5t44.5 146t82.5 124t127.5 88.5t175 37zM300 622h452q0 5 -0.5 14.5t-5 35.5t-12.5 50t-25.5 53t-40.5 50.5t-60.5 36t-83.5 14.5q-43 0 -78 -13.5t-57.5 -36t-40 -49.5t-26.5 -54.5t-14 -50
t-6 -36.5z" />
    <glyph glyph-name="f" unicode="f" horiz-adv-x="759" 
d="M652 1236q-41 5 -76.5 2t-62.5 -13t-42 -35.5t-15 -64.5l-2 -97l78 2h120v-177l-113 1l-85 2l2 -97v-759l-219 -1v766l2 94l-132 -3v174l134 -2l-2 101v7q0 159 102 226q100 66 311 60v-186z" />
    <glyph glyph-name="g" unicode="g" horiz-adv-x="1091" 
d="M767 1032h217v-1020q-2 -109 -38.5 -189t-102 -126.5t-149 -68.5t-187.5 -22q-85 0 -156.5 20t-113 48.5t-70.5 57t-40 48.5l-11 20l162 102q2 -6 6.5 -15.5t23 -33t42.5 -41.5t68.5 -31.5t97.5 -11.5q59 3 105 21.5t72.5 44.5t43.5 60.5t23 63.5t7 59v105
q-3 -5 -8.5 -14t-28 -32.5t-50 -42t-74.5 -35.5t-101 -21q-48 -4 -94 3.5t-97 27.5t-93.5 61.5t-77 100t-54 149.5t-19.5 204q0 96 16 175t42.5 132.5t63.5 94.5t75 64.5t81 37.5t78 18t70 3q53 -2 100.5 -18.5t77 -38t52 -43t32.5 -36.5l9 -15q1 71 0 134zM568 175
q196 40 196 355q0 153 -56.5 236t-141.5 102q-135 31 -206 -64t-71 -270q0 -68 9 -126t30 -107.5t52.5 -81t79.5 -44t108 -0.5z" />
    <glyph glyph-name="h" unicode="h" horiz-adv-x="1128" 
d="M989 809q31 -102 31 -357v-456h-225l-4 569q0 157 -54.5 237t-173.5 74q-72 -4 -135.5 -48.5t-83.5 -113.5q-18 -60 -18 -171v-547h-218l-1 1422h211l1 -537q3 7 9 18t31.5 39t58 50t91 40.5t128.5 20.5q126 3 220.5 -58t131.5 -182z" />
    <glyph glyph-name="i" unicode="i" horiz-adv-x="436" 
d="M107 -1v1035h221l-4 -1035h-217zM328 1201h-221v221h221v-221z" />
    <glyph glyph-name="i" unicode="&#xef;" horiz-adv-x="436" 
d="M107 -1v1035h221l-4 -1035h-217zM328 1201h-221v221h221v-221z" />
    <glyph glyph-name="i" unicode="&#xee;" horiz-adv-x="436" 
d="M107 -1v1035h221l-4 -1035h-217zM328 1201h-221v221h221v-221z" />
    <glyph glyph-name="i" unicode="&#xed;" horiz-adv-x="436" 
d="M107 -1v1035h221l-4 -1035h-217zM328 1201h-221v221h221v-221z" />
    <glyph glyph-name="i" unicode="&#xec;" horiz-adv-x="436" 
d="M107 -1v1035h221l-4 -1035h-217zM328 1201h-221v221h221v-221z" />
    <glyph glyph-name="j" unicode="j" horiz-adv-x="471" 
d="M141 1035h222q-5 -1062 -5 -1065q0 -40 -12 -93t-34 -86q-127 -197 -391 -187v212q1 -2 23 -3t54 6t64 23.5t55 56.5t24 98v1038zM360 1201h-221v222h221v-222z" />
    <glyph glyph-name="k" unicode="k" horiz-adv-x="1085" 
d="M1058 0h-290l-444 480l2 -480h-219v1425l219 1l-2 -775l405 384l290 -1l-495 -468z" />
    <glyph glyph-name="l" unicode="l" horiz-adv-x="434" 
d="M326 -4h-219v1427h219v-1427z" />
    <glyph glyph-name="m" unicode="m" horiz-adv-x="1765" 
d="M1629 814q29 -100 29 -357v-456h-218l-4 570q0 157 -52.5 237t-168.5 74q-72 -4 -133 -43.5t-80 -107.5q-9 -31 -14 -81q-4 -37 -4 -90l1 -559h-210v1l-2 365l-2 204q0 157 -52.5 237t-168.5 74q-70 -4 -131.5 -49t-81.5 -114q-18 -65 -18 -171l1 -547l-212 1l-1 1034
h205l1 -149q3 7 8.5 17.5t30 38.5t56 50t88.5 40.5t125 20.5q86 2 151 -24q106 -41 163 -158l1 -1v-1q14 28 34.5 53.5t59.5 58t102.5 52.5t143.5 20q130 0 224 -59.5t129 -180.5z" />
    <glyph glyph-name="n" unicode="n" horiz-adv-x="1128" 
d="M989 809q31 -102 31 -357v-456h-225l-4 569q0 157 -54.5 237t-173.5 74q-72 -4 -135.5 -48.5t-83.5 -113.5q-18 -60 -18 -171v-547h-218l-1 1034h211l1 -149q3 7 9 17.5t31.5 38.5t58 50t91 40.5t128.5 20.5q126 3 220.5 -57.5t131.5 -181.5z" />
    <glyph glyph-name="n" unicode="&#xf1;" horiz-adv-x="1128" 
d="M989 809q31 -102 31 -357v-456h-225l-4 569q0 157 -54.5 237t-173.5 74q-72 -4 -135.5 -48.5t-83.5 -113.5q-18 -60 -18 -171v-547h-218l-1 1034h211l1 -149q3 7 9 17.5t31.5 38.5t58 50t91 40.5t128.5 20.5q126 3 220.5 -57.5t131.5 -181.5z" />
    <glyph glyph-name="o" unicode="o" horiz-adv-x="1120" 
d="M559 1048q243 1 371.5 -143.5t128.5 -389.5q0 -83 -17 -159.5t-56 -146t-96 -120.5t-141.5 -81.5t-187.5 -30.5q-123 0 -219.5 40t-157 111t-92 165.5t-31.5 206.5q-1 260 123.5 404t374.5 144zM561 158q132 0 199.5 99.5t66.5 287.5q0 163 -74.5 247.5t-193.5 84.5
q-113 0 -190 -91t-77 -243q1 -192 69 -289t200 -96z" />
    <glyph glyph-name="o" unicode="&#xf8;" horiz-adv-x="1120" 
d="M559 1048q243 1 371.5 -143.5t128.5 -389.5q0 -83 -17 -159.5t-56 -146t-96 -120.5t-141.5 -81.5t-187.5 -30.5q-123 0 -219.5 40t-157 111t-92 165.5t-31.5 206.5q-1 260 123.5 404t374.5 144zM561 158q132 0 199.5 99.5t66.5 287.5q0 163 -74.5 247.5t-193.5 84.5
q-113 0 -190 -91t-77 -243q1 -192 69 -289t200 -96z" />
    <glyph glyph-name="o" unicode="&#xf6;" horiz-adv-x="1120" 
d="M559 1048q243 1 371.5 -143.5t128.5 -389.5q0 -83 -17 -159.5t-56 -146t-96 -120.5t-141.5 -81.5t-187.5 -30.5q-123 0 -219.5 40t-157 111t-92 165.5t-31.5 206.5q-1 260 123.5 404t374.5 144zM561 158q132 0 199.5 99.5t66.5 287.5q0 163 -74.5 247.5t-193.5 84.5
q-113 0 -190 -91t-77 -243q1 -192 69 -289t200 -96z" />
    <glyph glyph-name="o" unicode="&#xf5;" horiz-adv-x="1120" 
d="M559 1048q243 1 371.5 -143.5t128.5 -389.5q0 -83 -17 -159.5t-56 -146t-96 -120.5t-141.5 -81.5t-187.5 -30.5q-123 0 -219.5 40t-157 111t-92 165.5t-31.5 206.5q-1 260 123.5 404t374.5 144zM561 158q132 0 199.5 99.5t66.5 287.5q0 163 -74.5 247.5t-193.5 84.5
q-113 0 -190 -91t-77 -243q1 -192 69 -289t200 -96z" />
    <glyph glyph-name="o" unicode="&#xf4;" horiz-adv-x="1120" 
d="M559 1048q243 1 371.5 -143.5t128.5 -389.5q0 -83 -17 -159.5t-56 -146t-96 -120.5t-141.5 -81.5t-187.5 -30.5q-123 0 -219.5 40t-157 111t-92 165.5t-31.5 206.5q-1 260 123.5 404t374.5 144zM561 158q132 0 199.5 99.5t66.5 287.5q0 163 -74.5 247.5t-193.5 84.5
q-113 0 -190 -91t-77 -243q1 -192 69 -289t200 -96z" />
    <glyph glyph-name="o" unicode="&#xf3;" horiz-adv-x="1120" 
d="M559 1048q243 1 371.5 -143.5t128.5 -389.5q0 -83 -17 -159.5t-56 -146t-96 -120.5t-141.5 -81.5t-187.5 -30.5q-123 0 -219.5 40t-157 111t-92 165.5t-31.5 206.5q-1 260 123.5 404t374.5 144zM561 158q132 0 199.5 99.5t66.5 287.5q0 163 -74.5 247.5t-193.5 84.5
q-113 0 -190 -91t-77 -243q1 -192 69 -289t200 -96z" />
    <glyph glyph-name="o" unicode="&#xf2;" horiz-adv-x="1120" 
d="M559 1048q243 1 371.5 -143.5t128.5 -389.5q0 -83 -17 -159.5t-56 -146t-96 -120.5t-141.5 -81.5t-187.5 -30.5q-123 0 -219.5 40t-157 111t-92 165.5t-31.5 206.5q-1 260 123.5 404t374.5 144zM561 158q132 0 199.5 99.5t66.5 287.5q0 163 -74.5 247.5t-193.5 84.5
q-113 0 -190 -91t-77 -243q1 -192 69 -289t200 -96z" />
    <glyph glyph-name="p" unicode="p" horiz-adv-x="1112" 
d="M586 1050q40 3 80 -1.5t83.5 -19.5t82 -40.5t74 -68.5t60.5 -99.5t40 -137.5t15 -178q0 -132 -31 -231.5t-76.5 -154.5t-106.5 -88.5t-111 -43t-101 -7.5q-53 2 -100.5 16.5t-77 34.5t-52 39t-31.5 32l-10 14q-1 -398 0 -460h-217v1377h217v-128q3 5 8.5 14t28 32.5
t50 42t74.5 35.5t101 21zM522 181q134 -30 207 60t73 254q0 86 -15 155t-46.5 121.5t-87 74.5t-130.5 7q-196 -39 -196 -354q0 -139 56 -219t139 -99z" />
    <glyph glyph-name="q" unicode="q" horiz-adv-x="1130" 
d="M804 1033h217v-1377h-217v460q-3 -5 -10 -14t-31 -31.5t-52.5 -40t-76.5 -33t-101 -17.5q-51 -2 -101 7.5t-111 43t-106.5 88.5t-76.5 154.5t-31 231.5q0 97 15 178t40 137.5t60 99.5t73.5 68.5t82 40.5t83.5 19.5t80 1.5q54 -4 101 -20.5t75.5 -37t49 -40.5t29.5 -34
l8 -13v128zM605 181q84 19 140 99t56 219q0 156 -50.5 245.5t-146.5 108.5q-74 15 -129.5 -7t-87.5 -74.5t-47 -121.5t-15 -155q0 -164 73 -254t207 -60z" />
    <glyph glyph-name="r" unicode="r" horiz-adv-x="833" 
d="M688 829q-5 4 -15.5 10t-45.5 14t-75 4q-92 -8 -149 -73t-71 -155q-3 -17 -3.5 -60t-0.5 -77l1 -35l-4 -457l-217 1l-1 1034h221v-143q3 6 8.5 16t28.5 36.5t51 47.5t77 39.5t106 21.5q51 3 101 -9t74 -26l24 -13q-19 -31 -54.5 -88t-55.5 -88z" />
    <glyph glyph-name="s" unicode="s" horiz-adv-x="1015" 
d="M674 585q136 -31 203.5 -118.5t58.5 -214.5q-6 -89 -65 -151.5t-144.5 -90.5t-188.5 -29q-80 -1 -149 13.5t-114.5 38t-82 52.5t-57 58t-34 53t-17.5 39l-5 15l224 48q1 -6 3.5 -15.5t17 -33.5t37 -42.5t69.5 -33.5t108 -15q69 0 121 28.5t60 86.5q4 28 -2.5 50.5
t-25 38.5t-37 26.5t-50.5 19t-51.5 12.5t-53.5 9q-71 11 -118 21.5t-111.5 38.5t-104.5 68q-22 22 -38.5 59.5t-22 85t1 97.5t36 97t76.5 83t129.5 56.5t188.5 16.5q158 -5 254.5 -70.5t132.5 -179.5l-204 -60q-1 6 -3.5 15t-16 32.5t-33 42t-57 33.5t-84.5 16
q-115 2 -168.5 -41.5t-38.5 -110.5q6 -29 28 -49.5t62.5 -34.5t75.5 -22t95.5 -19t94.5 -19z" />
    <glyph glyph-name="s" unicode="&#xdf;" horiz-adv-x="1015" 
d="M674 585q136 -31 203.5 -118.5t58.5 -214.5q-6 -89 -65 -151.5t-144.5 -90.5t-188.5 -29q-80 -1 -149 13.5t-114.5 38t-82 52.5t-57 58t-34 53t-17.5 39l-5 15l224 48q1 -6 3.5 -15.5t17 -33.5t37 -42.5t69.5 -33.5t108 -15q69 0 121 28.5t60 86.5q4 28 -2.5 50.5
t-25 38.5t-37 26.5t-50.5 19t-51.5 12.5t-53.5 9q-71 11 -118 21.5t-111.5 38.5t-104.5 68q-22 22 -38.5 59.5t-22 85t1 97.5t36 97t76.5 83t129.5 56.5t188.5 16.5q158 -5 254.5 -70.5t132.5 -179.5l-204 -60q-1 6 -3.5 15t-16 32.5t-33 42t-57 33.5t-84.5 16
q-115 2 -168.5 -41.5t-38.5 -110.5q6 -29 28 -49.5t62.5 -34.5t75.5 -22t95.5 -19t94.5 -19z" />
    <glyph glyph-name="t" unicode="t" horiz-adv-x="743" 
d="M428 482q0 -200 4 -225q5 -35 28.5 -54.5t53.5 -23t59.5 -2t49.5 6.5l20 5l44 -191q-99 -18 -176.5 -17t-127 12t-84.5 43t-51.5 57.5t-25.5 74.5t-10 76t-1 79v18v7v416l2 91l-156 -2v176l157 -2l-2 122v217l218 58l-1 -283l-3 -112l109 1h127v-177h-117l-119 1l2 -95
v-277z" />
    <glyph glyph-name="u" unicode="u" horiz-adv-x="1103" 
d="M994 1035l1 -1034l-205 -1l-1 150q-3 -7 -9 -18t-30.5 -39t-56 -50t-88.5 -40.5t-125 -20.5q-123 -3 -216 58t-128 182q-29 100 -29 357v456h218l5 -569q0 -157 52.5 -237t168.5 -74q70 4 131.5 48.5t81.5 113.5q18 65 18 171v547h212z" />
    <glyph glyph-name="u" unicode="&#xfc;" horiz-adv-x="1103" 
d="M994 1035l1 -1034l-205 -1l-1 150q-3 -7 -9 -18t-30.5 -39t-56 -50t-88.5 -40.5t-125 -20.5q-123 -3 -216 58t-128 182q-29 100 -29 357v456h218l5 -569q0 -157 52.5 -237t168.5 -74q70 4 131.5 48.5t81.5 113.5q18 65 18 171v547h212z" />
    <glyph glyph-name="u" unicode="&#xfb;" horiz-adv-x="1103" 
d="M994 1035l1 -1034l-205 -1l-1 150q-3 -7 -9 -18t-30.5 -39t-56 -50t-88.5 -40.5t-125 -20.5q-123 -3 -216 58t-128 182q-29 100 -29 357v456h218l5 -569q0 -157 52.5 -237t168.5 -74q70 4 131.5 48.5t81.5 113.5q18 65 18 171v547h212z" />
    <glyph glyph-name="u" unicode="&#xfa;" horiz-adv-x="1103" 
d="M994 1035l1 -1034l-205 -1l-1 150q-3 -7 -9 -18t-30.5 -39t-56 -50t-88.5 -40.5t-125 -20.5q-123 -3 -216 58t-128 182q-29 100 -29 357v456h218l5 -569q0 -157 52.5 -237t168.5 -74q70 4 131.5 48.5t81.5 113.5q18 65 18 171v547h212z" />
    <glyph glyph-name="u" unicode="&#xf9;" horiz-adv-x="1103" 
d="M994 1035l1 -1034l-205 -1l-1 150q-3 -7 -9 -18t-30.5 -39t-56 -50t-88.5 -40.5t-125 -20.5q-123 -3 -216 58t-128 182q-29 100 -29 357v456h218l5 -569q0 -157 52.5 -237t168.5 -74q70 4 131.5 48.5t81.5 113.5q18 65 18 171v547h212z" />
    <glyph glyph-name="v" unicode="v" horiz-adv-x="1091" 
d="M795 1035h235l-400 -1035h-168l-401 1035h236l189 -553l60 -224h5l58 224z" />
    <glyph glyph-name="w" unicode="w" horiz-adv-x="1652" 
d="M1360 1035h231l-357 -1035h-165l-244 706l-242 -706h-165l-357 1035h230l158 -517l48 -189h5l49 189l158 517h233l161 -524l46 -182h5l48 189z" />
    <glyph glyph-name="x" unicode="x" horiz-adv-x="1024" 
d="M632 507l368 -508h-268l-226 330l-214 -330h-269l364 518l-347 517h249l223 -341l210 341h265z" />
    <glyph glyph-name="y" unicode="y" horiz-adv-x="1126" 
d="M820 1033h242l-399 -1070q-30 -78 -74 -139.5t-89.5 -97.5t-93.5 -62t-90 -36t-75 -15t-53 -4l-19 1l21 222h13t32 3t47 9.5t52.5 21.5t53 36t45 55.5t32.5 78.5l-404 997h237l272 -699h5z" />
    <glyph glyph-name="y" unicode="&#xff;" horiz-adv-x="1126" 
d="M820 1033h242l-399 -1070q-30 -78 -74 -139.5t-89.5 -97.5t-93.5 -62t-90 -36t-75 -15t-53 -4l-19 1l21 222h13t32 3t47 9.5t52.5 21.5t53 36t45 55.5t32.5 78.5l-404 997h237l272 -699h5z" />
    <glyph glyph-name="y" unicode="&#xfd;" horiz-adv-x="1126" 
d="M820 1033h242l-399 -1070q-30 -78 -74 -139.5t-89.5 -97.5t-93.5 -62t-90 -36t-75 -15t-53 -4l-19 1l21 222h13t32 3t47 9.5t52.5 21.5t53 36t45 55.5t32.5 78.5l-404 997h237l272 -699h5z" />
    <glyph glyph-name="z" unicode="z" horiz-adv-x="1052" 
d="M944 1035v-163l-556 -684h556v-188h-837v179l569 671l-569 -5v190h837z" />
    <glyph glyph-name="braceleft" unicode="{" horiz-adv-x="921" 
d="M560 -81q2 -89 73 -123t179 0v-165q-20 -5 -43.5 -8.5t-71.5 -6.5t-100.5 8.5t-96.5 38.5q-82 50 -114.5 126t-31.5 224q1 159 -6 228q-8 82 -22.5 119t-37.5 58q-50 50 -121 59q-31 4 -60 0q2 56 2 84q0 29 -2 85q29 -4 60 0q67 9 121 58q23 22 37.5 59t22.5 118
q4 34 4.5 61.5t0.5 74.5t1 92q3 133 32.5 217t113.5 134q121 73 312 33v-155q-98 27 -175 -12t-77 -122q0 -75 3 -117q14 -177 -15 -288q-22 -81 -48 -117q-58 -79 -178 -121q117 -38 178 -121q26 -36 48 -117q29 -111 15 -288q-4 -58 -3 -116z" />
    <glyph glyph-name="braceright" unicode="}" horiz-adv-x="921" 
d="M107 -202q108 -34 179 0t73 123q1 69 -2 116q-14 177 15 288q22 83 47 117q61 83 178 121q-120 42 -178 121q-25 34 -47 117q-29 111 -15 288q2 28 2 117q0 83 -77 122t-175 12v155q192 40 312 -32q84 -50 114 -134.5t33 -217.5q1 -39 0.5 -130.5t4.5 -97.5
q8 -81 22.5 -118t37.5 -59q54 -49 121 -58q31 -4 60 0q-2 -56 -2 -85q0 -28 2 -84q-29 4 -60 0q-71 -9 -121 -59q-23 -21 -37.5 -58t-22.5 -119q-6 -60 -5 -228q1 -147 -32 -223.5t-115 -126.5q-44 -27 -96.5 -38.5t-100.5 -8.5t-71.5 6.5t-43.5 8.5v165z" />
    <glyph glyph-name="asciitilde" unicode="~" horiz-adv-x="1218" 
d="M877 725q57 0 115.5 30.5t88.5 60.5l30 31l-3 -266q-10 -9 -28.5 -22t-78.5 -35t-122 -22q-59 0 -132.5 21t-133 46.5t-134 46.5t-134.5 21q-38 0 -76 -13.5t-65.5 -33t-49 -39t-32.5 -33.5l-11 -13q0 42 -1.5 125.5t-2.5 124.5q4 5 11 13.5t31 30t49.5 37.5t64.5 29.5
t78 13.5q61 0 134.5 -24t132 -52.5t133 -53t136.5 -24.5z" />
    <glyph glyph-name="nonbreakingspace" unicode="&#xa0;" horiz-adv-x="860" 
 />
    <glyph glyph-name="cent" unicode="&#xa2;" horiz-adv-x="1112" 
d="M790 301l214 -50q-1 -5 -4 -13.5t-15.5 -34t-28.5 -49.5t-44.5 -54t-63 -53t-85.5 -41.5t-110 -25.5v-199h-168v203q-179 29 -278.5 164.5t-99.5 381.5q0 217 100 348t278 160v217h168v-212q55 -7 103 -25t81.5 -41.5t61 -50.5t44.5 -52.5t28.5 -46.5t16.5 -33l4 -13
l-213 -57q-1 4 -3 11t-11.5 27t-22 36.5t-36.5 35.5t-53 29v-701q32 10 58 28t40 36.5t23.5 35.5t12.5 28zM485 164v697q-150 -61 -158 -336q0 -144 41.5 -236.5t116.5 -124.5z" />
    <glyph glyph-name="sterling" unicode="&#xa3;" horiz-adv-x="1306" 
d="M986 263l213 -83q-26 -43 -50.5 -71.5t-58.5 -49.5t-67 -32.5t-88 -18t-108.5 -8t-140.5 -1.5h-505q-19 19 -24 26q-53 66 -50 145q6 166 181 281q30 20 47 42h-228v170h218q-24 32 -58 61q-65 57 -99 126.5t-37.5 134.5t11 129t40.5 113t57 83q50 54 128 89.5t166 47.5
t180 -4t170.5 -57.5t138.5 -121t83 -186.5l-226 -30q-3 67 -36 114q-38 55 -119 78.5t-167 11.5q-65 -9 -118 -46t-81 -87t-24 -109.5t47 -110.5q9 -10 57.5 -60.5t76.5 -90t46 -85.5h263v-170h-252q-23 -82 -94 -145q-9 -8 -51.5 -39t-65.5 -58.5t-23 -58.5h297h49h67
t58.5 1t51 3.5t43 8t35 13t27.5 19t20 26.5z" />
    <glyph glyph-name="copyright" unicode="&#xa9;" horiz-adv-x="630" 
d="M316 1136q21 0 36 7t19 15l4 7l41 -8q-1 -2 -3 -6.5t-9.5 -14.5t-18 -18t-30 -14.5t-42.5 -6.5q-54 0 -87 36t-32 102q1 59 34 92.5t84 33.5q24 0 43.5 -7t30 -16.5t17.5 -19.5t9 -17l2 -7l-39 -6q-1 4 -4.5 10t-19.5 16t-38 10q-35 0 -55 -22q-23 -26 -21 -73
q0 -47 26 -73q18 -18 53 -20zM314 1438q86 0 146.5 -61t60.5 -146t-60.5 -146t-146.5 -61t-146.5 61t-60.5 146t60.5 146t146.5 61zM314 1058q71 0 121.5 51t50.5 122t-50.5 121.5t-121.5 50.5t-121.5 -50.5t-50.5 -121.5t50.5 -122t121.5 -51z" />
    <glyph glyph-name="guillemotleft" unicode="&#xab;" horiz-adv-x="1345" 
d="M796 878l-467 -442l467 -436h-230l-459 435l465 443h224zM1237 878l-467 -442l467 -436h-230l-459 435l465 443h224z" />
    <glyph glyph-name="registered" unicode="&#xae;" horiz-adv-x="653" 
d="M362 1208q27 -12 47 -61l24 -51h-48q-4 12 -19 47q-13 30 -33 44.5t-39 14.5h-1h-14v-106h-42v252h85q81 2 92 -56q7 -39 -17 -66q-3 -5 -12 -10q-15 -8 -23 -8zM331 1235q25 0 34.5 12.5t8.5 28.5q-1 14 -12.5 25t-33.5 10h-49v-76h52zM325 1436q91 0 155 -64t64 -154
q0 -91 -64 -155t-155 -64q-90 0 -154 64t-64 155q0 90 64 154t154 64zM325 1036q75 0 128.5 53.5t53.5 128.5t-53.5 128t-128.5 53t-128 -53t-53 -128t53 -128.5t128 -53.5z" />
    <glyph glyph-name="guillemotright" unicode="&#xbb;" horiz-adv-x="1345" 
d="M772 878l465 -443l-459 -435h-230l467 436l-467 442h224zM331 878l465 -443l-459 -435h-230l467 436l-467 442h224z" />
    <glyph glyph-name="AE" unicode="&#xc6;" horiz-adv-x="1939" 
d="M1833 1230h-636v-388h505l-1 -213l-500 -2l2 -423h630v-204l-644 1h-204l-3 338l-461 2l-174 -339q-158 -1 -240 -1l765 1425l114 -1v1l847 -1v-195zM617 540l367 -1l-3 671z" />
    <glyph glyph-name="ae" unicode="&#xe6;" horiz-adv-x="1763" 
d="M1179 1048q114 4 202 -28t138 -83t82 -122t42.5 -134t10.5 -129q0 -52 -4 -91v-2l-681 -2q0 -6 0.5 -16.5t5 -40.5t12.5 -57.5t25 -62t40 -59.5t60.5 -44t83.5 -22q51 -3 94 9t68 31.5t42.5 39.5t23.5 35l7 14l207 -57q-2 -5 -6.5 -14t-21 -35t-37 -49.5t-56 -52.5
t-76.5 -49.5t-100.5 -34.5t-126.5 -14q-202 1 -319 112q-27 25 -43 45q-22 -26 -51.5 -50t-77 -50t-116 -41.5t-149.5 -15.5t-147 23t-107.5 60.5t-66.5 86.5t-29.5 101.5t9.5 105t44.5 96.5t81 77.5t114.5 46.5q43 9 157.5 22t179.5 30.5t79 52.5q8 16 5 47.5t-17 56.5
q-46 83 -197 83q-84 0 -131 -36.5t-58 -94.5l-210 39q18 85 71.5 145t123 88t150.5 37t155.5 -2.5t136 -36.5t94.5 -59q109 95 283 101zM775 379v116q-51 -27 -124 -40.5t-128 -16.5t-107.5 -23t-76.5 -62q-12 -21 -14.5 -48.5t6 -55t34 -50.5t65.5 -32q65 -15 144.5 4
t140 75t60.5 133zM969 621h452q0 6 -0.5 15.5t-5 36.5t-12.5 52t-25.5 55.5t-40.5 52.5t-60.5 37.5t-83.5 15.5q-59 1 -103.5 -26.5t-66 -66.5t-35 -78t-16.5 -67z" />
    <glyph glyph-name="divide" unicode="&#xf7;" horiz-adv-x="1091" 
d="M983 387h-876v171h876v-171zM660 704h-231v242h231v-242zM661 0h-232v241h232v-241z" />
    <glyph glyph-name="quoteleft" unicode="&#x2018;" horiz-adv-x="458" 
d="M280 1176h72v-249h-245v249l71 248h103z" />
    <glyph glyph-name="quoteright" unicode="&#x2019;" horiz-adv-x="458" 
d="M107 1424h245v-249l-71 -248h-103v248h-71v249z" />
    <glyph glyph-name="quotedblleft" unicode="&#x201c;" horiz-adv-x="747" 
d="M568 1176h71v-249h-245v249l71 248h103v-248zM281 1424l-1 -248h72v-249h-245v249l71 248h103z" />
    <glyph glyph-name="quotedblright" unicode="&#x201d;" horiz-adv-x="747" 
d="M107 1175v249h245v-249l-71 -248h-103v248h-71zM394 1424h245v-249l-71 -248h-103v248h-71v249z" />
    <glyph glyph-name="guilsinglleft" unicode="&#x2039;" horiz-adv-x="903" 
d="M796 873l-468 -442l468 -436h-230l-459 434l465 444h224z" />
    <glyph glyph-name="guilsinglright" unicode="&#x203a;" horiz-adv-x="903" 
d="M331 873l465 -444l-459 -434h-230l467 436l-467 442h224z" />
    <glyph glyph-name="Euro" unicode="&#x20ac;" horiz-adv-x="1251" 
d="M957 1240q-95 -2 -170.5 -27t-135.5 -93q-73 -80 -100 -209h582l-25 -143h-574q-1 -18 -1 -53q0 -28 3 -55h554l-25 -143h-502q39 -138 114 -212q110 -107 299 -112q94 -3 166 24v-218q-82 -20 -184 -20q-250 0 -422 138.5t-223 399.5h-206l25 143h164q-4 35 -2 88v10
q-1 10 0 10h-187l25 143h177q48 257 224 398t419 141q100 0 190 -23v-224q-80 38 -185 37z" />
    <glyph glyph-name="trademark" unicode="&#x2122;" horiz-adv-x="673" 
d="M107 1384v36h192v-36h-75v-216h-42v216h-75zM547 1420l19 -251l-42 -1l-8 155l-69 -154l-20 -1l-68 154l-9 -154l-40 1l15 251h35l78 -176l75 176h34z" />
    <glyph glyph-name="W.alt1" unicode="&#xf07a;" horiz-adv-x="2107" 
d="M1761 1424q158 1 239 1l-560 -1425h-198l-136 347l-52 180l-56 -181l-136 -344h-198l-557 1424q8 0 80 1t175 0l409 -1105l169 450l-256 653h256l67 -182l54 -187l54 186l69 183q158 1 239 1l-249 -633l174 -473z" />
    <glyph glyph-name="l.alt1" unicode="&#xf07b;" horiz-adv-x="1540" 
d="M1433 476h-1326v214h1326v-214z" />
    <glyph glyph-name="l.alt2" unicode="&#xf07c;" horiz-adv-x="2203" 
d="M2096 472h-1989v214h1989v-214z" />
    </font>
</defs>
</svg>
