<?xml version="1.0" standalone="no"?>
<!DOCTYPE svg PUBLIC "-//W3C//DTD SVG 1.1//EN" "http://www.w3.org/Graphics/SVG/1.1/DTD/svg11.dtd" >
<svg xmlns="http://www.w3.org/2000/svg" xmlns:xlink="http://www.w3.org/1999/xlink" version="1.1">
<metadata>
Created by FontForge 20201107 at Fri May 17 14:59:38 2024
 By 
</metadata>
<defs>
<font id="AndersonGroteskRegular" horiz-adv-x="1099" >
  <font-face 
    font-family="Anderson Grotesk"
    font-weight="400"
    font-stretch="normal"
    units-per-em="2048"
    panose-1="0 0 0 0 0 0 0 0 0 0"
    ascent="1638"
    descent="-410"
    x-height="1033"
    cap-height="1427"
    bbox="-142 -428 2187 1658.29"
    underline-thickness="0"
    underline-position="0"
    unicode-range="U+000A-F010"
  />
<missing-glyph horiz-adv-x="929" 
 />
    <glyph glyph-name=".notdef" horiz-adv-x="929" 
 />
    <glyph glyph-name=".notdef" horiz-adv-x="929" 
 />
    <glyph glyph-name=".null" horiz-adv-x="0" 
 />
    <glyph glyph-name="nonmarkingreturn" horiz-adv-x="682" 
 />
    <glyph glyph-name="LF" unicode="&#xa;" horiz-adv-x="186" 
 />
    <glyph glyph-name="controlCR" unicode="&#xd;" horiz-adv-x="186" 
 />
    <glyph glyph-name="space" unicode=" " horiz-adv-x="512" 
 />
    <glyph glyph-name="exclam" unicode="!" horiz-adv-x="501" 
d="M344 2h-190v191h190v-191zM153 1431h192v-450l-19 -596h-153l-20 596v450z" />
    <glyph glyph-name="quotedbl" unicode="&#x22;" horiz-adv-x="704" 
d="M111 1194v243h189v-243l-24 -241h-136zM402 1437h189v-243l-30 -241h-136l-23 241v243z" />
    <glyph glyph-name="numbersign" unicode="#" horiz-adv-x="1921" 
d="M1258 601h501l-4 -149h-514l-52 -453h-180l52 453h-313l-51 -453h-180l51 453h-401l4 149h415l29 262h-454l3 149h468l52 453h180l-52 -453h313l52 453h180l-52 -453h448l-5 -149h-460zM1078 601l30 262h-313l-30 -262h313z" />
    <glyph glyph-name="dollar" unicode="$" horiz-adv-x="1259" 
d="M828 760q302 -105 318 -372q5 -89 -28 -163t-94 -122.5t-138 -78.5t-166 -39v-151h-159v151q-205 23 -315 133q-54 53 -90 115.5t-45 112.5l191 20q1 -7 4 -18.5t19.5 -43t39.5 -57.5t69 -52t105 -36q8 -2 22 -2v499q-119 37 -182 64t-123 74t-91.5 110t-33.5 125
t13 121.5t44 105.5t63 72q115 104 310 118v151h159v-154q76 -9 128 -30q23 -9 42.5 -18t63 -37t75.5 -60t64.5 -86.5t45.5 -117.5l-185 -20q-10 63 -49 112q-64 83 -185 104v-494zM561 847v447q-38 -4 -83 -16q-70 -19 -116 -73.5t-49 -120t44 -130.5q44 -54 204 -107z
M720 154q81 12 137.5 50.5t79.5 88t17 105t-42 101.5q-49 63 -192 111v-456z" />
    <glyph glyph-name="percent" unicode="%" horiz-adv-x="1622" 
d="M667 1145q0 -52 -9.5 -100t-31.5 -91.5t-53.5 -75.5t-78.5 -50.5t-105 -18.5q-136 0 -207 91t-71 237q0 342 278 342q139 0 208.5 -89.5t69.5 -244.5zM250 1165q0 -220 139 -220q65 0 102 55.5t37 164.5q0 186 -139 186q-61 0 -100 -48t-39 -138zM1232 659
q139 0 208.5 -90t69.5 -245q0 -52 -9.5 -100t-31.5 -91t-53.5 -75t-78.5 -50.5t-105 -18.5q-136 0 -207 91t-71 236q0 343 278 343zM1232 124q66 0 102.5 55.5t36.5 165.5q0 186 -139 186q-61 0 -100 -48.5t-39 -138.5q0 -220 139 -220zM1118 1462h201l-857 -1464h-201z" />
    <glyph glyph-name="ampersand" unicode="&#x26;" horiz-adv-x="1474" 
d="M1347 526q0 -6 -1 -16.5t-10 -43t-24 -67t-47.5 -86.5t-77.5 -103l160 -214h-248l-66 97q-60 -51 -159.5 -82.5t-209 -36.5t-222 31t-187.5 112q-84 84 -115 191t-7.5 211t112.5 198t232 149q-50 74 -86 132q-46 74 -54.5 152t19 142t93 110t158.5 57q88 11 169 -12.5
t139.5 -83.5t71.5 -146q8 -54 -2 -106t-32.5 -91.5t-52 -74.5t-60.5 -59.5t-57.5 -42.5t-42.5 -27l-17 -8l348 -464q54 62 83 130t32 105l2 37zM663 1321q-83 1 -130.5 -51t-27.5 -129q7 -27 38 -77.5t59 -87.5l27 -37q158 77 183 190q18 81 -38 142q-46 50 -111 50z
M366 245q55 -65 155 -92t213.5 -8t200.5 84l-361 509q-91 -27 -157.5 -83.5t-95.5 -124.5t-19 -144.5t64 -140.5z" />
    <glyph glyph-name="quotesingle" unicode="'" horiz-adv-x="411" 
d="M111 1437h189v-243l-24 -241h-136l-29 241v243z" />
    <glyph glyph-name="parenleft" unicode="(" horiz-adv-x="741" 
d="M578 1566q-294 -396 -294 -955q0 -536 294 -949h-161q-306 399 -306 949q4 552 306 955h161z" />
    <glyph glyph-name="parenright" unicode=")" horiz-adv-x="733" 
d="M317 1564q304 -390 304 -946q0 -543 -304 -947h-158q293 408 293 950q0 539 -293 943h158z" />
    <glyph glyph-name="asterisk" unicode="*" horiz-adv-x="983" 
d="M871 1173v-172l-219 27l176 -132l-121 -122l-136 175l30 -218h-172l26 218l-131 -175l-122 122l192 142l-235 -37v172l215 -27l-172 132l122 122l133 -174l-28 218h172l-26 -214l132 170l121 -122l-171 -129z" />
    <glyph glyph-name="plus" unicode="+" horiz-adv-x="1040" 
d="M928 675v-194h-312v-321h-194v321h-311v194h311v302h194v-302h312z" />
    <glyph glyph-name="comma" unicode="," horiz-adv-x="407" 
d="M111 209h185v-209l-59 -207h-85v207h-41v209z" />
    <glyph glyph-name="hyphen" unicode="-" horiz-adv-x="835" 
d="M764 569l1 -162h-694l-1 162h694z" />
    <glyph glyph-name="period" unicode="." horiz-adv-x="442" 
d="M329 -3h-196v206h196v-206z" />
    <glyph glyph-name="slash" unicode="/" horiz-adv-x="923" 
d="M644 1464h168l-533 -1463h-168z" />
    <glyph glyph-name="zero" unicode="0" horiz-adv-x="1323" 
d="M661 1447q140 0 246 -53t172 -150.5t99 -230t33 -298.5q0 -114 -19.5 -218.5t-62 -199.5t-105.5 -164.5t-156 -110.5t-207 -41q-136 0 -242.5 55t-173 152.5t-100.5 226.5t-34 282q0 750 550 750zM661 142q160 0 249.5 157.5t89.5 470.5q0 278 -91.5 405.5t-247.5 127.5
q-149 0 -243.5 -138.5t-94.5 -395.5q0 -627 338 -627z" />
    <glyph glyph-name="one" unicode="1" horiz-adv-x="616" 
d="M346 1427h158v-1428l-187 1l1 1114q0 -4 -18 -15.5t-69 -26t-118 -16.5l-2 158q98 2 166 64t69 149z" />
    <glyph glyph-name="two" unicode="2" horiz-adv-x="1214" 
d="M247 0h145h-145zM370 175h732v-175h-775l-146 1h-70q0 158 81.5 302.5t217.5 243.5q58 42 144 96.5t136.5 87t100 79t72.5 93.5q69 142 0.5 246t-217.5 129q-83 13 -169.5 -22t-130.5 -102q-14 -22 -23 -51.5t-11 -48.5l-2 -18l-199 27q22 112 84.5 195t144.5 125.5
t178 58.5t186 2.5t168 -52.5t125 -97q32 -39 56.5 -84t39 -107.5t8 -126t-44.5 -139t-108 -146.5q-53 -53 -130.5 -107t-145 -95t-132.5 -87t-110 -103.5t-60 -124.5z" />
    <glyph glyph-name="three" unicode="3" horiz-adv-x="1226" 
d="M881 742q10 -4 25.5 -11t56 -37t71.5 -68t56.5 -105t25.5 -145t-30.5 -147t-91 -126.5t-164.5 -91t-238 -33.5q-173 0 -297.5 79t-159.5 208l209 31q28 -71 98.5 -113t154.5 -42q144 1 229 72.5t78 189.5q-3 55 -43.5 116t-99.5 91q-43 21 -98 29.5t-89 6.5l-33 -1v168
q128 1 212 45q67 36 100.5 100t22.5 127q-16 90 -82.5 150t-181.5 59q-124 -1 -203 -68t-83 -185l-215 23q33 196 171 292.5t333 96.5q219 0 346 -108.5t126 -286.5q0 -66 -21.5 -122.5t-51.5 -90.5t-60.5 -58.5t-51.5 -34.5z" />
    <glyph glyph-name="four" unicode="4" horiz-adv-x="1333" 
d="M987 536h235v-149h-235v-387h-189v387h-687v149l687 892h189v-892zM798 536v616l-468 -616h468z" />
    <glyph glyph-name="five" unicode="5" horiz-adv-x="1263" 
d="M1139 569q9 -54 9 -93v-3q0 -115 -34 -207l-1 -1q-1 -1 -1 -2l-2 -4q0 -3 -1 -5q-1 -4 -4 -8q-1 -1 -1 -3.5t-1 -3.5q-2 -4 -2 -5q-1 -1 -6 -11l-1 -1l-6 -12v-2q0 -1 -1.5 -2.5t-2.5 -3.5l-1 -2l-2 -4q0 -1 -1.5 -2.5t-2.5 -3.5q-49 -81 -165.5 -148t-280.5 -66
q-98 1 -179 21.5t-132.5 50.5t-93.5 73t-63.5 79t-39.5 79l-12 44q14 6 44.5 18t43.5 17q9 3 94 45q11 -53 31 -92q17 -33 35 -53q39 -43 88 -68v-1q72 -39 156 -42h36q43 1 81 12q43 12 74 30q84 45 125 122q38 71 37 165v5q-1 66 -23 121q-35 91 -124.5 144.5t-202.5 55.5
h-1q-4 0 -12 -0.5t-12 -0.5q-78 -5 -153 -39.5t-123 -86.5l-175 81l40 678h892v-163h-726l-20 -405q110 99 308 110h26q116 4 231 -50q31 -14 59 -33q82 -53 146 -162q35 -59 53 -162z" />
    <glyph glyph-name="six" unicode="6" horiz-adv-x="1294" 
d="M1173 574q9 -54 9 -92v-4q0 -114 -34 -206l-1 -1q-1 -1 -1 -2l-2 -4q0 -3 -1 -5q-2 -6 -4 -9q-1 -1 -1 -3.5t-1 -3.5l-2 -4l-6 -12l-1 -1q-1 -2 -3 -5.5t-3 -5.5v-1l-1 -1l-3 -6l-3 -6q0 -1 -1.5 -2.5t-2.5 -3.5q-21 -36 -58.5 -71t-91.5 -69t-131.5 -54.5t-164.5 -19.5
q-98 1 -179 21.5t-133 50t-93.5 72.5t-63 79t-39.5 79q-22 52 -32.5 130.5t-12 130t-1.5 152.5q0 750 550 750q313 0 452 -260l-205 -51q-28 77 -90 111.5t-158 35.5q-65 0 -125.5 -30t-109 -86t-77 -145.5t-27.5 -198.5q3 6 8.5 15t31 34t59.5 45t98 39.5t142 25.5h24
q116 4 231 -50q31 -14 59 -33q81 -53 146 -163q35 -59 53 -162zM990 482v5q-1 66 -23 121q-74 195 -282 199h-1q-4 0 -12 -0.5t-12 -0.5q-141 -10 -239 -96t-101 -223q-1 -24 2 -53q7 -64 35 -117q16 -30 36 -53q40 -45 88 -69v-1q70 -38 156 -41h36q43 1 81 12q46 13 74 29
q83 45 125 123q38 71 37 165z" />
    <glyph glyph-name="seven" unicode="7" horiz-adv-x="1189" 
d="M1075 1428l3 -150l-531 -1277l-225 1l525 1241h-736l1 185h963z" />
    <glyph glyph-name="eight" unicode="8" horiz-adv-x="1267" 
d="M913 742q10 -3 26 -10.5t58 -37.5t74 -67.5t58 -104t26 -144.5q0 -75 -29.5 -142.5t-89 -124t-161 -91.5t-233.5 -38h-7q-108 3 -197 26t-148.5 61t-100.5 88t-59.5 105.5t-18.5 115.5q0 57 13.5 108t35.5 86.5t48.5 65.5t53 48.5t48.5 31.5t36 18l13 6q-9 3 -23.5 10
t-52 33.5t-66 59t-52.5 89.5t-24 122q-1 177 132 285t362 109h6h1q225 -1 355 -109t129 -285q0 -65 -22 -121.5t-53.5 -90.5t-62.5 -58.5t-53 -33.5zM351 1085q-12 -67 24 -133.5t111 -103.5q61 -31 153 -31q98 4 148 31q74 37 109.5 104t23.5 133q-17 94 -88.5 156.5
t-195.5 62.5h-1q-124 -2 -195.5 -64.5t-88.5 -154.5zM637 133q149 1 238 76t82 197q-4 61 -45.5 127t-105.5 96q-72 34 -167 32q-94 2 -176 -37q-65 -30 -105 -93.5t-44 -124.5q-8 -122 80.5 -196.5t242.5 -76.5z" />
    <glyph glyph-name="nine" unicode="9" horiz-adv-x="1294" 
d="M1106 1159q76 -183 76 -426q0 -750 -551 -750q-313 0 -452 260l206 51q22 -68 89.5 -110t156.5 -37q67 3 127.5 34t109 86t76.5 143t27 197q-3 -6 -8.5 -15t-31 -34t-60 -45t-98.5 -39.5t-142 -25.5h-23q-117 -4 -231 50q-31 14 -59 33q-79 52 -145 162q-38 65 -55 163
q-7 42 -7 92v3q0 120 34 207v3l2 4q2 4 2 5q1 2 2 5t2 4q2 4 3 7v1q0 1 1 2l6 12q0 1 1 2l2 5q2 5 4 7h1q2 5 3 7l4 6q2 4 3 5q21 36 58 71t91.5 69t132 55t164.5 21q80 0 151 -18.5t122.5 -48t94 -68.5t68.5 -77.5t43 -77.5zM625 624q138 10 234.5 94.5t99.5 218.5
q2 31 -1 52q-7 65 -35 116q-14 27 -36 52q-33 39 -85 68q-68 37 -154 40q-6 1 -18 1q-10 0 -16 -1q-47 -2 -81 -11q-44 -13 -72 -29q-81 -43 -122 -120q-38 -72 -37 -163v-5q2 -66 22 -119q72 -191 278 -195h1q4 0 11 0.5t11 0.5z" />
    <glyph glyph-name="colon" unicode=":" horiz-adv-x="516" 
d="M358 859h-195v206h195v-206zM358 0h-195v206h195v-206z" />
    <glyph glyph-name="semicolon" unicode=";" horiz-adv-x="522" 
d="M159 209h203v-209l-59 -207h-85v207h-59v209zM358 858h-196v206h196v-206z" />
    <glyph glyph-name="less" unicode="&#x3c;" horiz-adv-x="1187" 
d="M1077 1107v-175l-726 -292l726 -296v-177l-966 410v121z" />
    <glyph glyph-name="equal" unicode="=" horiz-adv-x="1077" 
d="M964 685h-853v186h853v-186zM964 308h-853v185h853v-185z" />
    <glyph glyph-name="greater" unicode="&#x3e;" horiz-adv-x="1187" 
d="M111 1108l966 -408v-121l-966 -411v178l726 296l-726 292v174z" />
    <glyph glyph-name="question" unicode="?" horiz-adv-x="970" 
d="M580 -1h-193v195h193v-195zM821 1336q45 -42 71.5 -111t28.5 -147t-35 -158.5t-113 -137.5q-11 -8 -40 -28.5t-41.5 -31t-35 -33t-33 -46.5t-23 -60t-17.5 -84.5t-4 -108.5h-191q0 97 15.5 175.5t38.5 126t55.5 87t60.5 60t60 44.5t47 40q100 109 58 218q-30 80 -119 123
q-103 49 -207 12q-72 -25 -122 -91q-18 -24 -30 -55.5t-15 -51.5l-3 -20l-178 25q14 102 64.5 180t120 119.5t153 60.5t163.5 10.5t152 -38.5t119 -79z" />
    <glyph glyph-name="at" unicode="@" horiz-adv-x="1970" 
d="M1487 1350q127 -88 214.5 -232t123 -301t32 -314.5t-47.5 -285.5q-24 -69 -70.5 -119t-101 -74t-114.5 -29t-111.5 9.5t-92 46.5t-56.5 77q-6 -7 -16.5 -17.5t-45 -38t-71 -49t-91 -39t-108.5 -17.5q-63 0 -117.5 12.5t-109.5 48t-94 91.5t-63.5 149.5t-25.5 215.5
q-1 98 15.5 178.5t42.5 134t63.5 94t74.5 62.5t81 35.5t76.5 17.5t66.5 4q55 0 105.5 -16t83.5 -39t58 -46.5t36 -39.5l12 -16l-2 138l159 -1l11 -693q0 -48 20.5 -81t49.5 -44.5t61.5 -5.5t55.5 31q92 99 96 288q4 181 -48 365q-35 125 -100 218t-153.5 149.5t-193 83.5
t-227.5 27q-150 0 -277.5 -59.5t-218.5 -168.5t-138.5 -272.5t-38.5 -362.5q8 -165 52 -297t113 -217t159 -137t189.5 -65t203 6t201.5 70l80 -155q-7 -4 -19 -10.5t-53 -23.5t-85 -30t-111.5 -23.5t-135.5 -10.5q-121 0 -226 30t-199 94t-168.5 171.5t-122.5 254.5
q-25 76 -40.5 167t-18 199.5t10 216.5t49.5 218t94.5 204t151 174.5t212.5 130.5q128 53 273 66.5t301 -23t284 -125.5zM935 130q44 -1 84 8t80.5 33.5t69 64t47 106t18.5 152.5q0 91 -22.5 161t-56.5 109t-77 63t-81 30t-73 1q-110 -14 -169 -105t-59 -261
q0 -185 60 -272.5t179 -89.5z" />
    <glyph glyph-name="A" unicode="A" horiz-adv-x="1374" 
d="M760 1428q97 -237 292.5 -713.5t293.5 -712.5h-189l-156 381l-640 -1l-147 -380h-187q77 187 277 674.5t309 751.5h147zM423 539h517l-258 641z" />
    <glyph glyph-name="A" unicode="&#xc5;" horiz-adv-x="1374" 
d="M760 1428q97 -237 292.5 -713.5t293.5 -712.5h-189l-156 381l-640 -1l-147 -380h-187q77 187 277 674.5t309 751.5h147zM423 539h517l-258 641z" />
    <glyph glyph-name="A" unicode="&#xc4;" horiz-adv-x="1374" 
d="M760 1428q97 -237 292.5 -713.5t293.5 -712.5h-189l-156 381l-640 -1l-147 -380h-187q77 187 277 674.5t309 751.5h147zM423 539h517l-258 641z" />
    <glyph glyph-name="A" unicode="&#xc3;" horiz-adv-x="1374" 
d="M760 1428q97 -237 292.5 -713.5t293.5 -712.5h-189l-156 381l-640 -1l-147 -380h-187q77 187 277 674.5t309 751.5h147zM423 539h517l-258 641z" />
    <glyph glyph-name="A" unicode="&#xc2;" horiz-adv-x="1374" 
d="M760 1428q97 -237 292.5 -713.5t293.5 -712.5h-189l-156 381l-640 -1l-147 -380h-187q77 187 277 674.5t309 751.5h147zM423 539h517l-258 641z" />
    <glyph glyph-name="A" unicode="&#xc1;" horiz-adv-x="1374" 
d="M760 1428q97 -237 292.5 -713.5t293.5 -712.5h-189l-156 381l-640 -1l-147 -380h-187q77 187 277 674.5t309 751.5h147zM423 539h517l-258 641z" />
    <glyph glyph-name="A" unicode="&#xc0;" horiz-adv-x="1374" 
d="M760 1428q97 -237 292.5 -713.5t293.5 -712.5h-189l-156 381l-640 -1l-147 -380h-187q77 187 277 674.5t309 751.5h147zM423 539h517l-258 641z" />
    <glyph glyph-name="B" unicode="B" horiz-adv-x="1284" 
d="M881 763q7 -1 18.5 -3.5t45.5 -15t64.5 -29t67.5 -49t62.5 -72.5t41.5 -102t13 -134q-3 -57 -22.5 -111t-57 -103t-102 -84.5t-147.5 -46.5q-97 -13 -273 -13l-346 1h-135v1426h463q525 10 525 -353q0 -75 -22.5 -134.5t-54.5 -91t-64 -52.5t-54 -27zM295 1287v-466h123
h65q25 -1 90.5 0.5t79.5 1.5q120 -2 193.5 62t73.5 177q0 228 -372 227zM601 153q121 -3 203.5 14t126 53.5t61.5 81.5t18 108q0 35 -9.5 69t-33.5 68.5t-60.5 60.5t-96 42.5t-134.5 16.5l-381 -2v-512h241h65z" />
    <glyph glyph-name="C" unicode="C" horiz-adv-x="1372" 
d="M722 138q56 0 105.5 8t85.5 21.5t66.5 31t50.5 37t35.5 38.5t24 36.5t14.5 31t8 21.5l1 8l173 -46q-2 -7 -5.5 -19.5t-21 -48t-41 -68t-68.5 -72.5t-100.5 -68.5t-140.5 -48t-184 -19.5q-299 0 -475 196.5t-176 558.5q0 171 49 307.5t135.5 225t204 135.5t257.5 47
q98 0 182 -20t139 -52t98.5 -70.5t68 -77.5t40 -71t20.5 -52l5 -20l-175 -27q-1 5 -4 14t-16 35t-30.5 49t-49 51t-70 48t-96.5 33t-125 11q-187 -5 -312.5 -156t-125.5 -412q0 -127 25 -229t67 -169.5t100.5 -113t123 -65t137.5 -19.5z" />
    <glyph glyph-name="C" unicode="&#xc7;" horiz-adv-x="1372" 
d="M722 138q56 0 105.5 8t85.5 21.5t66.5 31t50.5 37t35.5 38.5t24 36.5t14.5 31t8 21.5l1 8l173 -46q-2 -7 -5.5 -19.5t-21 -48t-41 -68t-68.5 -72.5t-100.5 -68.5t-140.5 -48t-184 -19.5q-299 0 -475 196.5t-176 558.5q0 171 49 307.5t135.5 225t204 135.5t257.5 47
q98 0 182 -20t139 -52t98.5 -70.5t68 -77.5t40 -71t20.5 -52l5 -20l-175 -27q-1 5 -4 14t-16 35t-30.5 49t-49 51t-70 48t-96.5 33t-125 11q-187 -5 -312.5 -156t-125.5 -412q0 -127 25 -229t67 -169.5t100.5 -113t123 -65t137.5 -19.5z" />
    <glyph glyph-name="D" unicode="D" horiz-adv-x="1384" 
d="M558 1426q82 0 153.5 -7.5t150 -28t142 -54.5t122 -90.5t98.5 -131t63.5 -181t23.5 -236.5q0 -167 -39 -291t-105.5 -201t-169 -123.5t-215.5 -64t-260 -17.5h-411v1425q379 1 447 1zM529 167q69 0 123 4t118.5 17.5t112.5 37t95.5 65t78 98.5t49 141.5t18.5 189.5
q0 553 -570 553h-259l-1 -548v-10l1 -548h234z" />
    <glyph glyph-name="E" unicode="E" horiz-adv-x="1157" 
d="M1044 1277l-754 -2v-447h684v-159l-678 -2v-497h748v-169l-762 1l-171 -1v1427h933v-151z" />
    <glyph glyph-name="E" unicode="&#xcb;" horiz-adv-x="1157" 
d="M1044 1277l-754 -2v-447h684v-159l-678 -2v-497h748v-169l-762 1l-171 -1v1427h933v-151z" />
    <glyph glyph-name="E" unicode="&#xca;" horiz-adv-x="1157" 
d="M1044 1277l-754 -2v-447h684v-159l-678 -2v-497h748v-169l-762 1l-171 -1v1427h933v-151z" />
    <glyph glyph-name="E" unicode="&#xc9;" horiz-adv-x="1157" 
d="M1044 1277l-754 -2v-447h684v-159l-678 -2v-497h748v-169l-762 1l-171 -1v1427h933v-151z" />
    <glyph glyph-name="E" unicode="&#xc8;" horiz-adv-x="1157" 
d="M1044 1277l-754 -2v-447h684v-159l-678 -2v-497h748v-169l-762 1l-171 -1v1427h933v-151z" />
    <glyph glyph-name="F" unicode="F" 
d="M1044 1277l-753 -2v-447h683v-160l-678 -2v-496v-169h-185v1426h933v-150z" />
    <glyph glyph-name="G" unicode="G" horiz-adv-x="1413" 
d="M1299 738l2 -736h-149l-19 134q-159 -154 -388 -155q-150 -1 -268.5 41.5t-207 131.5t-135.5 236.5t-47 345.5q0 339 178 526.5t473 187.5q92 0 171.5 -20t133 -52t97.5 -71t69.5 -78t43 -71t23.5 -52l6 -20l-175 -26q-1 5 -3.5 13.5t-15 34t-28.5 48t-47.5 50.5
t-69.5 48t-96.5 34t-126.5 14q-90 0 -169 -38.5t-139 -109.5t-95 -179.5t-35 -240.5q0 -159 34 -276.5t96 -187t142.5 -102.5t180.5 -33q66 0 123 13t96 34t71 46t51 50t32 46t18 34l4 13l-1 220h-380l-2 147h552z" />
    <glyph glyph-name="H" unicode="H" horiz-adv-x="1323" 
d="M1022 1427h190v-1426h-194l-1 169v490l-356 1l-355 -1v-490l-1 -169h-194v1426h190v-599h721v599z" />
    <glyph glyph-name="I" unicode="I" horiz-adv-x="430" 
d="M301 1h-174v1426h174v-1426z" />
    <glyph glyph-name="I" unicode="&#xcf;" horiz-adv-x="430" 
d="M301 1h-174v1426h174v-1426z" />
    <glyph glyph-name="I" unicode="&#xce;" horiz-adv-x="430" 
d="M301 1h-174v1426h174v-1426z" />
    <glyph glyph-name="I" unicode="&#xcd;" horiz-adv-x="430" 
d="M301 1h-174v1426h174v-1426z" />
    <glyph glyph-name="I" unicode="&#xcc;" horiz-adv-x="430" 
d="M301 1h-174v1426h174v-1426z" />
    <glyph glyph-name="J" unicode="J" horiz-adv-x="952" 
d="M442 -19q-83 1 -150 25t-104.5 58.5t-62.5 68.5t-33 58l-9 24l175 65q1 -3 2.5 -8.5t8.5 -20.5t16.5 -28.5t26 -29.5t36.5 -27t50 -16.5t64 -2.5q46 4 80.5 19.5t55.5 42t34 52.5t18.5 65.5t7 66t1.5 66.5l1 978l173 1v-1015q0 -79 -9 -140.5t-35 -120t-68.5 -97
t-113 -62t-165.5 -22.5z" />
    <glyph glyph-name="K" unicode="K" horiz-adv-x="1236" 
d="M487 732l683 -734h-238l-638 682v-682h-183v1427h183v-669l597 668h241z" />
    <glyph glyph-name="L" unicode="L" horiz-adv-x="1128" 
d="M296 173h748v-169h-933v1426h180z" />
    <glyph glyph-name="M" unicode="M" horiz-adv-x="1599" 
d="M1416 1428l108 -1428h-189l-47 981l-484 -979h-26l-483 979l-42 -981l-179 2l86 1426h114l520 -1090l502 1090h120z" />
    <glyph glyph-name="N" unicode="N" horiz-adv-x="1343" 
d="M1232 1428v-115v-510v-117v-568v-73v-44l-135 1l-3 4l-813 1096l5 -1102l-175 2v1426h136l1 -3l806 -1086l5 1089h173z" />
    <glyph glyph-name="N" unicode="&#xd1;" horiz-adv-x="1343" 
d="M1232 1428v-115v-510v-117v-568v-73v-44l-135 1l-3 4l-813 1096l5 -1102l-175 2v1426h136l1 -3l806 -1086l5 1089h173z" />
    <glyph glyph-name="O" unicode="O" horiz-adv-x="1560" 
d="M779 1449q218 0 379 -93.5t244 -258.5t83 -381q0 -332 -194.5 -533t-511.5 -201q-331 0 -518 188t-187 546q0 178 55 319.5t151.5 230.5t223.5 136t275 47zM780 140q108 0 203 41t164.5 114.5t109.5 182.5t40 238q0 168 -68.5 300.5t-186.5 204.5t-262 72
q-109 0 -204 -40t-165.5 -113.5t-111 -184t-40.5 -244.5q0 -276 142 -423.5t379 -147.5z" />
    <glyph glyph-name="O" unicode="&#xd8;" horiz-adv-x="1560" 
d="M779 1449q218 0 379 -93.5t244 -258.5t83 -381q0 -332 -194.5 -533t-511.5 -201q-331 0 -518 188t-187 546q0 178 55 319.5t151.5 230.5t223.5 136t275 47zM780 140q108 0 203 41t164.5 114.5t109.5 182.5t40 238q0 168 -68.5 300.5t-186.5 204.5t-262 72
q-109 0 -204 -40t-165.5 -113.5t-111 -184t-40.5 -244.5q0 -276 142 -423.5t379 -147.5z" />
    <glyph glyph-name="O" unicode="&#xd6;" horiz-adv-x="1560" 
d="M779 1449q218 0 379 -93.5t244 -258.5t83 -381q0 -332 -194.5 -533t-511.5 -201q-331 0 -518 188t-187 546q0 178 55 319.5t151.5 230.5t223.5 136t275 47zM780 140q108 0 203 41t164.5 114.5t109.5 182.5t40 238q0 168 -68.5 300.5t-186.5 204.5t-262 72
q-109 0 -204 -40t-165.5 -113.5t-111 -184t-40.5 -244.5q0 -276 142 -423.5t379 -147.5z" />
    <glyph glyph-name="O" unicode="&#xd5;" horiz-adv-x="1560" 
d="M779 1449q218 0 379 -93.5t244 -258.5t83 -381q0 -332 -194.5 -533t-511.5 -201q-331 0 -518 188t-187 546q0 178 55 319.5t151.5 230.5t223.5 136t275 47zM780 140q108 0 203 41t164.5 114.5t109.5 182.5t40 238q0 168 -68.5 300.5t-186.5 204.5t-262 72
q-109 0 -204 -40t-165.5 -113.5t-111 -184t-40.5 -244.5q0 -276 142 -423.5t379 -147.5z" />
    <glyph glyph-name="O" unicode="&#xd4;" horiz-adv-x="1560" 
d="M779 1449q218 0 379 -93.5t244 -258.5t83 -381q0 -332 -194.5 -533t-511.5 -201q-331 0 -518 188t-187 546q0 178 55 319.5t151.5 230.5t223.5 136t275 47zM780 140q108 0 203 41t164.5 114.5t109.5 182.5t40 238q0 168 -68.5 300.5t-186.5 204.5t-262 72
q-109 0 -204 -40t-165.5 -113.5t-111 -184t-40.5 -244.5q0 -276 142 -423.5t379 -147.5z" />
    <glyph glyph-name="O" unicode="&#xd3;" horiz-adv-x="1560" 
d="M779 1449q218 0 379 -93.5t244 -258.5t83 -381q0 -332 -194.5 -533t-511.5 -201q-331 0 -518 188t-187 546q0 178 55 319.5t151.5 230.5t223.5 136t275 47zM780 140q108 0 203 41t164.5 114.5t109.5 182.5t40 238q0 168 -68.5 300.5t-186.5 204.5t-262 72
q-109 0 -204 -40t-165.5 -113.5t-111 -184t-40.5 -244.5q0 -276 142 -423.5t379 -147.5z" />
    <glyph glyph-name="O" unicode="&#xd2;" horiz-adv-x="1560" 
d="M779 1449q218 0 379 -93.5t244 -258.5t83 -381q0 -332 -194.5 -533t-511.5 -201q-331 0 -518 188t-187 546q0 178 55 319.5t151.5 230.5t223.5 136t275 47zM780 140q108 0 203 41t164.5 114.5t109.5 182.5t40 238q0 168 -68.5 300.5t-186.5 204.5t-262 72
q-109 0 -204 -40t-165.5 -113.5t-111 -184t-40.5 -244.5q0 -276 142 -423.5t379 -147.5z" />
    <glyph glyph-name="P" unicode="P" horiz-adv-x="1204" 
d="M1154 1068q12 -102 -17 -205.5t-94 -165.5q-28 -26 -58 -48q-1 -1 -2 -1q-69 -46 -144.5 -66t-216.5 -22h-166h-158v-562l-187 1v1426h523q97 2 177.5 -15.5t134.5 -48.5t94 -68t63.5 -80t35 -77.5t15.5 -67.5zM655 720q77 0 135.5 18t92 45.5t53.5 66t26.5 72.5t6.5 73
q0 52 -15.5 97.5t-50 87t-99 65.5t-152.5 24l-354 -1v-546h18z" />
    <glyph glyph-name="Q" unicode="Q" horiz-adv-x="1560" 
d="M1211 146l246 28l28 -174h-742q-314 11 -491.5 198t-177.5 535q0 178 55 319t151.5 231t223.5 137t275 47q218 0 379 -94t244 -259t83 -381q0 -317 -179 -516q-11 -12 -49 -38t-46 -33zM780 157q108 0 203 41t164.5 114.5t109.5 182.5t40 238q0 254 -148.5 416
t-368.5 162q-109 0 -204 -40.5t-165.5 -113.5t-111 -184t-40.5 -244q0 -276 142 -424t379 -148z" />
    <glyph glyph-name="R" unicode="R" horiz-adv-x="1273" 
d="M1091 287q29 -88 65 -160t58 -99l21 -28h-240q-44 61 -114 304q-21 72 -60.5 127t-83 86t-97 51t-96.5 26.5t-86 6.5h-3h-158v-600h-186v1425l505 1q108 4 196.5 -16t143.5 -54t95.5 -80t59 -87t26.5 -83q20 -103 -3.5 -207t-91.5 -162q-45 -38 -109.5 -60.5
t-106.5 -25.5l-41 -3q97 -23 176.5 -116.5t129.5 -245.5zM654 751q71 0 126 18.5t87.5 47t53 67t27 75t3.5 73.5q-3 43 -22.5 83.5t-55.5 76.5t-98 57.5t-141 20.5l-337 -1v-516h18z" />
    <glyph glyph-name="S" unicode="S" horiz-adv-x="1193" 
d="M793 753q133 -46 219.5 -140t92.5 -237q4 -105 -44 -187.5t-127.5 -129t-181 -68.5t-202.5 -14t-194 44.5t-153 97.5q-78 78 -116 173q94 35 176 70q2 -12 7 -27t21.5 -44t40 -53.5t67 -48t97.5 -33.5q109 -18 190.5 -6t133.5 50t76 87t18 103.5t-41 100.5
q-20 27 -53.5 50t-77.5 41t-78 29t-84 25.5t-68 20.5q-16 5 -55 17.5t-53 17.5t-43.5 15.5t-45 18t-38 18.5t-40.5 24t-36 28q-51 43 -81 110.5t-34 140.5t25.5 148t90.5 129q71 63 167.5 94t185.5 30t158 -12.5t110 -29.5q59 -25 107.5 -61.5t75.5 -70t45.5 -63.5t24.5 -48
l6 -18l-162 -66q-29 90 -99 143q-51 38 -122 54t-139 12t-131 -23q-61 -18 -106.5 -70.5t-53 -116t35.5 -125.5q22 -29 80 -58t109.5 -46.5t153 -49t145.5 -46.5z" />
    <glyph glyph-name="T" unicode="T" horiz-adv-x="1269" 
d="M92 1425h1084v-158h-449v-1267h-185v1267h-450v158z" />
    <glyph glyph-name="U" unicode="U" horiz-adv-x="1390" 
d="M1082 1427l195 1l-8 -861q0 -84 -6.5 -141.5t-27 -125.5t-66 -125t-116.5 -107q-28 -20 -62 -35.5t-65.5 -24.5t-66.5 -15.5t-63 -8.5t-58.5 -3t-48 0t-37 2t-21.5 1q-59 1 -118.5 15t-121 46t-111.5 77.5t-87.5 115t-51.5 154.5q-19 119 -18 275l-12 761l199 -1l5 -604
v-30v-18v-45q0 -245 30 -348q31 -106 126.5 -170t222.5 -64q89 0 156 20.5t119 67t79.5 130t27.5 202.5z" />
    <glyph glyph-name="U" unicode="&#xdc;" horiz-adv-x="1390" 
d="M1082 1427l195 1l-8 -861q0 -84 -6.5 -141.5t-27 -125.5t-66 -125t-116.5 -107q-28 -20 -62 -35.5t-65.5 -24.5t-66.5 -15.5t-63 -8.5t-58.5 -3t-48 0t-37 2t-21.5 1q-59 1 -118.5 15t-121 46t-111.5 77.5t-87.5 115t-51.5 154.5q-19 119 -18 275l-12 761l199 -1l5 -604
v-30v-18v-45q0 -245 30 -348q31 -106 126.5 -170t222.5 -64q89 0 156 20.5t119 67t79.5 130t27.5 202.5z" />
    <glyph glyph-name="U" unicode="&#xdb;" horiz-adv-x="1390" 
d="M1082 1427l195 1l-8 -861q0 -84 -6.5 -141.5t-27 -125.5t-66 -125t-116.5 -107q-28 -20 -62 -35.5t-65.5 -24.5t-66.5 -15.5t-63 -8.5t-58.5 -3t-48 0t-37 2t-21.5 1q-59 1 -118.5 15t-121 46t-111.5 77.5t-87.5 115t-51.5 154.5q-19 119 -18 275l-12 761l199 -1l5 -604
v-30v-18v-45q0 -245 30 -348q31 -106 126.5 -170t222.5 -64q89 0 156 20.5t119 67t79.5 130t27.5 202.5z" />
    <glyph glyph-name="U" unicode="&#xda;" horiz-adv-x="1390" 
d="M1082 1427l195 1l-8 -861q0 -84 -6.5 -141.5t-27 -125.5t-66 -125t-116.5 -107q-28 -20 -62 -35.5t-65.5 -24.5t-66.5 -15.5t-63 -8.5t-58.5 -3t-48 0t-37 2t-21.5 1q-59 1 -118.5 15t-121 46t-111.5 77.5t-87.5 115t-51.5 154.5q-19 119 -18 275l-12 761l199 -1l5 -604
v-30v-18v-45q0 -245 30 -348q31 -106 126.5 -170t222.5 -64q89 0 156 20.5t119 67t79.5 130t27.5 202.5z" />
    <glyph glyph-name="U" unicode="&#xd9;" horiz-adv-x="1390" 
d="M1082 1427l195 1l-8 -861q0 -84 -6.5 -141.5t-27 -125.5t-66 -125t-116.5 -107q-28 -20 -62 -35.5t-65.5 -24.5t-66.5 -15.5t-63 -8.5t-58.5 -3t-48 0t-37 2t-21.5 1q-59 1 -118.5 15t-121 46t-111.5 77.5t-87.5 115t-51.5 154.5q-19 119 -18 275l-12 761l199 -1l5 -604
v-30v-18v-45q0 -245 30 -348q31 -106 126.5 -170t222.5 -64q89 0 156 20.5t119 67t79.5 130t27.5 202.5z" />
    <glyph glyph-name="V" unicode="V" horiz-adv-x="1462" 
d="M1187 1427l203 -1q-77 -187 -277 -674.5t-309 -751.5h-146q-98 237 -293 713t-293 713l205 1l459 -1179z" />
    <glyph glyph-name="W" unicode="W" horiz-adv-x="1968" 
d="M1712 1426h58.5h74.5h55l-421 -1426h-144l-351 1152l-351 -1152h-145l-420 1426h188l309 -1087l334 1085l1 2h94h1h74v-2l338 -1087z" />
    <glyph glyph-name="X" unicode="X" horiz-adv-x="1290" 
d="M1221 1427l-468 -712l468 -715h-218l-358 568l-357 -568h-218l466 714l-466 713h218l359 -566l337 566h237z" />
    <glyph glyph-name="Y" unicode="Y" horiz-adv-x="1349" 
d="M1075 1427q30 0 104 0.5t103 0.5q-65 -104 -242 -388t-273 -437v-602h-185v601q-85 136 -257 412t-257 413h222l292 -496l93 -157l92 150z" />
    <glyph glyph-name="Y" unicode="&#xdd;" horiz-adv-x="1349" 
d="M1075 1427q30 0 104 0.5t103 0.5q-65 -104 -242 -388t-273 -437v-602h-185v601q-85 136 -257 412t-257 413h222l292 -496l93 -157l92 150z" />
    <glyph glyph-name="Z" unicode="Z" horiz-adv-x="1310" 
d="M330 159h890v-157h-1130v151l861 1118l-861 -6v163h1098v-142z" />
    <glyph glyph-name="bracketleft" unicode="[" horiz-adv-x="614" 
d="M502 1469h-229v-1517h229v-158h-391v1823h391v-148z" />
    <glyph glyph-name="backslash" unicode="\" horiz-adv-x="923" 
d="M279 1460l534 -1462h-169l-533 1462h168z" />
    <glyph glyph-name="bracketright" unicode="]" horiz-adv-x="614" 
d="M111 1617h391v-1823h-391v158h224v1517h-224v148z" />
    <glyph glyph-name="asciicircum" unicode="^" horiz-adv-x="985" 
d="M547 1417l328 -753l-176 1l-203 475l-200 -472l-185 1l338 748h98z" />
    <glyph glyph-name="underscore" unicode="_" horiz-adv-x="1243" 
d="M1132 -177h-1021v172h1021v-172z" />
    <glyph glyph-name="a" unicode="a" horiz-adv-x="1091" 
d="M974 189l50 -187h-198l-15 151q-25 -52 -75 -95q-17 -14 -69 -38q-89 -39 -213 -39q-102 0 -182 30t-123.5 79.5t-66 109.5t-10 122.5t44 116t95.5 93t147 50.5q44 6 188 24q122 14 183.5 33.5t68.5 55.5q2 9 4 24t-9.5 55.5t-42.5 72.5q-26 27 -77 44t-112.5 18.5
t-120 -11t-104.5 -50t-61 -93.5l-166 40q32 109 107 165q77 60 166 80q50 12 127 15.5t173 -13t150 -57.5q23 -18 42 -37t32.5 -41.5t23.5 -39.5t16.5 -45t10.5 -41.5t6 -45.5t3 -41.5t1.5 -44.5t0.5 -40zM802 407v116q-44 -26 -122.5 -40.5t-148.5 -20t-141.5 -23
t-106.5 -48.5q-46 -40 -39 -110.5t63 -112.5q60 -45 166 -45q71 0 137.5 25t113.5 72q78 80 78 187z" />
    <glyph glyph-name="a" unicode="&#xe5;" horiz-adv-x="1091" 
d="M974 189l50 -187h-198l-15 151q-25 -52 -75 -95q-17 -14 -69 -38q-89 -39 -213 -39q-102 0 -182 30t-123.5 79.5t-66 109.5t-10 122.5t44 116t95.5 93t147 50.5q44 6 188 24q122 14 183.5 33.5t68.5 55.5q2 9 4 24t-9.5 55.5t-42.5 72.5q-26 27 -77 44t-112.5 18.5
t-120 -11t-104.5 -50t-61 -93.5l-166 40q32 109 107 165q77 60 166 80q50 12 127 15.5t173 -13t150 -57.5q23 -18 42 -37t32.5 -41.5t23.5 -39.5t16.5 -45t10.5 -41.5t6 -45.5t3 -41.5t1.5 -44.5t0.5 -40zM802 407v116q-44 -26 -122.5 -40.5t-148.5 -20t-141.5 -23
t-106.5 -48.5q-46 -40 -39 -110.5t63 -112.5q60 -45 166 -45q71 0 137.5 25t113.5 72q78 80 78 187z" />
    <glyph glyph-name="a" unicode="&#xe4;" horiz-adv-x="1091" 
d="M974 189l50 -187h-198l-15 151q-25 -52 -75 -95q-17 -14 -69 -38q-89 -39 -213 -39q-102 0 -182 30t-123.5 79.5t-66 109.5t-10 122.5t44 116t95.5 93t147 50.5q44 6 188 24q122 14 183.5 33.5t68.5 55.5q2 9 4 24t-9.5 55.5t-42.5 72.5q-26 27 -77 44t-112.5 18.5
t-120 -11t-104.5 -50t-61 -93.5l-166 40q32 109 107 165q77 60 166 80q50 12 127 15.5t173 -13t150 -57.5q23 -18 42 -37t32.5 -41.5t23.5 -39.5t16.5 -45t10.5 -41.5t6 -45.5t3 -41.5t1.5 -44.5t0.5 -40zM802 407v116q-44 -26 -122.5 -40.5t-148.5 -20t-141.5 -23
t-106.5 -48.5q-46 -40 -39 -110.5t63 -112.5q60 -45 166 -45q71 0 137.5 25t113.5 72q78 80 78 187z" />
    <glyph glyph-name="a" unicode="&#xe3;" horiz-adv-x="1091" 
d="M974 189l50 -187h-198l-15 151q-25 -52 -75 -95q-17 -14 -69 -38q-89 -39 -213 -39q-102 0 -182 30t-123.5 79.5t-66 109.5t-10 122.5t44 116t95.5 93t147 50.5q44 6 188 24q122 14 183.5 33.5t68.5 55.5q2 9 4 24t-9.5 55.5t-42.5 72.5q-26 27 -77 44t-112.5 18.5
t-120 -11t-104.5 -50t-61 -93.5l-166 40q32 109 107 165q77 60 166 80q50 12 127 15.5t173 -13t150 -57.5q23 -18 42 -37t32.5 -41.5t23.5 -39.5t16.5 -45t10.5 -41.5t6 -45.5t3 -41.5t1.5 -44.5t0.5 -40zM802 407v116q-44 -26 -122.5 -40.5t-148.5 -20t-141.5 -23
t-106.5 -48.5q-46 -40 -39 -110.5t63 -112.5q60 -45 166 -45q71 0 137.5 25t113.5 72q78 80 78 187z" />
    <glyph glyph-name="a" unicode="&#xe2;" horiz-adv-x="1091" 
d="M974 189l50 -187h-198l-15 151q-25 -52 -75 -95q-17 -14 -69 -38q-89 -39 -213 -39q-102 0 -182 30t-123.5 79.5t-66 109.5t-10 122.5t44 116t95.5 93t147 50.5q44 6 188 24q122 14 183.5 33.5t68.5 55.5q2 9 4 24t-9.5 55.5t-42.5 72.5q-26 27 -77 44t-112.5 18.5
t-120 -11t-104.5 -50t-61 -93.5l-166 40q32 109 107 165q77 60 166 80q50 12 127 15.5t173 -13t150 -57.5q23 -18 42 -37t32.5 -41.5t23.5 -39.5t16.5 -45t10.5 -41.5t6 -45.5t3 -41.5t1.5 -44.5t0.5 -40zM802 407v116q-44 -26 -122.5 -40.5t-148.5 -20t-141.5 -23
t-106.5 -48.5q-46 -40 -39 -110.5t63 -112.5q60 -45 166 -45q71 0 137.5 25t113.5 72q78 80 78 187z" />
    <glyph glyph-name="a" unicode="&#xe1;" horiz-adv-x="1091" 
d="M974 189l50 -187h-198l-15 151q-25 -52 -75 -95q-17 -14 -69 -38q-89 -39 -213 -39q-102 0 -182 30t-123.5 79.5t-66 109.5t-10 122.5t44 116t95.5 93t147 50.5q44 6 188 24q122 14 183.5 33.5t68.5 55.5q2 9 4 24t-9.5 55.5t-42.5 72.5q-26 27 -77 44t-112.5 18.5
t-120 -11t-104.5 -50t-61 -93.5l-166 40q32 109 107 165q77 60 166 80q50 12 127 15.5t173 -13t150 -57.5q23 -18 42 -37t32.5 -41.5t23.5 -39.5t16.5 -45t10.5 -41.5t6 -45.5t3 -41.5t1.5 -44.5t0.5 -40zM802 407v116q-44 -26 -122.5 -40.5t-148.5 -20t-141.5 -23
t-106.5 -48.5q-46 -40 -39 -110.5t63 -112.5q60 -45 166 -45q71 0 137.5 25t113.5 72q78 80 78 187z" />
    <glyph glyph-name="a" unicode="&#xe0;" horiz-adv-x="1091" 
d="M974 189l50 -187h-198l-15 151q-25 -52 -75 -95q-17 -14 -69 -38q-89 -39 -213 -39q-102 0 -182 30t-123.5 79.5t-66 109.5t-10 122.5t44 116t95.5 93t147 50.5q44 6 188 24q122 14 183.5 33.5t68.5 55.5q2 9 4 24t-9.5 55.5t-42.5 72.5q-26 27 -77 44t-112.5 18.5
t-120 -11t-104.5 -50t-61 -93.5l-166 40q32 109 107 165q77 60 166 80q50 12 127 15.5t173 -13t150 -57.5q23 -18 42 -37t32.5 -41.5t23.5 -39.5t16.5 -45t10.5 -41.5t6 -45.5t3 -41.5t1.5 -44.5t0.5 -40zM802 407v116q-44 -26 -122.5 -40.5t-148.5 -20t-141.5 -23
t-106.5 -48.5q-46 -40 -39 -110.5t63 -112.5q60 -45 166 -45q71 0 137.5 25t113.5 72q78 80 78 187z" />
    <glyph glyph-name="b" unicode="b" horiz-adv-x="1107" 
d="M586 1056q35 2 70.5 -1t81 -16.5t85 -36t78.5 -64t67 -96.5t45 -138t17 -184q0 -98 -17 -178.5t-44 -135t-65 -96t-76.5 -65.5t-83 -38.5t-79.5 -19.5t-70 -5q-63 0 -118 16t-89 38.5t-58.5 45t-35.5 38.5l-10 16v-136h-173v1427h173v-536q14 29 46 62q90 94 256 103z
M557 131q137 0 220 101t83 301q0 187 -83 290t-220 98q-36 -1 -70.5 -13.5t-71 -41.5t-63.5 -73t-44 -114t-17 -157q0 -91 18 -162t45.5 -113t64.5 -69t70.5 -37t67.5 -10z" />
    <glyph glyph-name="c" unicode="c" horiz-adv-x="1054" 
d="M554 137q58 0 107 17t77 40.5t47.5 47t26.5 40.5l7 16l178 -39q-1 -6 -4.5 -16t-18 -39t-34 -55t-56 -58t-80.5 -55t-111.5 -39t-145.5 -16q-100 0 -185.5 35t-151 102t-103 174.5t-37.5 243.5q0 236 126.5 377t342.5 141q77 0 142.5 -15t109.5 -39.5t78.5 -53.5t54 -58
t32.5 -53.5t17 -39.5l4 -15l-177 -44q-2 8 -7 20.5t-25.5 44t-47 55t-75 42t-106.5 15.5q-144 -6 -214 -109.5t-71 -271.5q1 -192 85.5 -294t214.5 -101z" />
    <glyph glyph-name="c" unicode="&#xe7;" horiz-adv-x="1054" 
d="M554 137q58 0 107 17t77 40.5t47.5 47t26.5 40.5l7 16l178 -39q-1 -6 -4.5 -16t-18 -39t-34 -55t-56 -58t-80.5 -55t-111.5 -39t-145.5 -16q-100 0 -185.5 35t-151 102t-103 174.5t-37.5 243.5q0 236 126.5 377t342.5 141q77 0 142.5 -15t109.5 -39.5t78.5 -53.5t54 -58
t32.5 -53.5t17 -39.5l4 -15l-177 -44q-2 8 -7 20.5t-25.5 44t-47 55t-75 42t-106.5 15.5q-144 -6 -214 -109.5t-71 -271.5q1 -192 85.5 -294t214.5 -101z" />
    <glyph glyph-name="d" unicode="d" horiz-adv-x="1089" 
d="M801 1427h174v-1427h-174v136l-11 -16.5t-34 -37t-59 -47t-87.5 -37t-118.5 -16.5q-35 0 -69 5t-76.5 20.5t-79.5 39.5t-73 66t-62 97t-41.5 136t-15.5 178q0 103 16.5 186t41.5 137.5t63.5 95t74 61.5t81.5 33.5t78 15.5t70 3q62 0 116 -17t86.5 -41t56.5 -48.5
t34 -41.5l9 -17q1 473 0 536zM529 131q34 0 67.5 10t70 37t63.5 69t45 113t18 162q0 108 -25 189t-66 124t-84 63.5t-89 22.5q-136 5 -211 -94t-75 -290q0 -203 76 -304.5t210 -101.5z" />
    <glyph glyph-name="e" unicode="e" horiz-adv-x="1083" 
d="M526 1057q106 3 191.5 -27t138 -78.5t88 -114.5t49.5 -130t14 -129q0 -62 -4 -102v-2l-737 -2q2 0 0 -11.5t1 -32t5.5 -46t13 -54.5t23 -57.5t35.5 -54.5t51 -46t69.5 -32t90.5 -12q59 0 108 15.5t77 37.5t47 44t25 37l7 16q172 -48 172 -49q-4 -10 -11.5 -26.5
t-40.5 -59t-75.5 -75t-120 -59t-170.5 -26.5q-322 0 -436 237q-28 58 -44.5 130.5t-18 151.5t11 157.5t46.5 149t85 125.5t130.5 88.5t178.5 36.5zM816 603q-2 0 0 10.5t-1 29.5t-5.5 42.5t-12 50.5t-21.5 53t-34 50t-49 42.5t-66.5 29.5t-86.5 11q-56 0 -101.5 -17.5
t-73.5 -45.5t-48.5 -62.5t-29.5 -68.5t-14.5 -62t-6.5 -46v-17h550z" />
    <glyph glyph-name="e" unicode="&#xeb;" horiz-adv-x="1083" 
d="M526 1057q106 3 191.5 -27t138 -78.5t88 -114.5t49.5 -130t14 -129q0 -62 -4 -102v-2l-737 -2q2 0 0 -11.5t1 -32t5.5 -46t13 -54.5t23 -57.5t35.5 -54.5t51 -46t69.5 -32t90.5 -12q59 0 108 15.5t77 37.5t47 44t25 37l7 16q172 -48 172 -49q-4 -10 -11.5 -26.5
t-40.5 -59t-75.5 -75t-120 -59t-170.5 -26.5q-322 0 -436 237q-28 58 -44.5 130.5t-18 151.5t11 157.5t46.5 149t85 125.5t130.5 88.5t178.5 36.5zM816 603q-2 0 0 10.5t-1 29.5t-5.5 42.5t-12 50.5t-21.5 53t-34 50t-49 42.5t-66.5 29.5t-86.5 11q-56 0 -101.5 -17.5
t-73.5 -45.5t-48.5 -62.5t-29.5 -68.5t-14.5 -62t-6.5 -46v-17h550z" />
    <glyph glyph-name="e" unicode="&#xea;" horiz-adv-x="1083" 
d="M526 1057q106 3 191.5 -27t138 -78.5t88 -114.5t49.5 -130t14 -129q0 -62 -4 -102v-2l-737 -2q2 0 0 -11.5t1 -32t5.5 -46t13 -54.5t23 -57.5t35.5 -54.5t51 -46t69.5 -32t90.5 -12q59 0 108 15.5t77 37.5t47 44t25 37l7 16q172 -48 172 -49q-4 -10 -11.5 -26.5
t-40.5 -59t-75.5 -75t-120 -59t-170.5 -26.5q-322 0 -436 237q-28 58 -44.5 130.5t-18 151.5t11 157.5t46.5 149t85 125.5t130.5 88.5t178.5 36.5zM816 603q-2 0 0 10.5t-1 29.5t-5.5 42.5t-12 50.5t-21.5 53t-34 50t-49 42.5t-66.5 29.5t-86.5 11q-56 0 -101.5 -17.5
t-73.5 -45.5t-48.5 -62.5t-29.5 -68.5t-14.5 -62t-6.5 -46v-17h550z" />
    <glyph glyph-name="e" unicode="&#xe9;" horiz-adv-x="1083" 
d="M526 1057q106 3 191.5 -27t138 -78.5t88 -114.5t49.5 -130t14 -129q0 -62 -4 -102v-2l-737 -2q2 0 0 -11.5t1 -32t5.5 -46t13 -54.5t23 -57.5t35.5 -54.5t51 -46t69.5 -32t90.5 -12q59 0 108 15.5t77 37.5t47 44t25 37l7 16q172 -48 172 -49q-4 -10 -11.5 -26.5
t-40.5 -59t-75.5 -75t-120 -59t-170.5 -26.5q-322 0 -436 237q-28 58 -44.5 130.5t-18 151.5t11 157.5t46.5 149t85 125.5t130.5 88.5t178.5 36.5zM816 603q-2 0 0 10.5t-1 29.5t-5.5 42.5t-12 50.5t-21.5 53t-34 50t-49 42.5t-66.5 29.5t-86.5 11q-56 0 -101.5 -17.5
t-73.5 -45.5t-48.5 -62.5t-29.5 -68.5t-14.5 -62t-6.5 -46v-17h550z" />
    <glyph glyph-name="e" unicode="&#xe8;" horiz-adv-x="1083" 
d="M526 1057q106 3 191.5 -27t138 -78.5t88 -114.5t49.5 -130t14 -129q0 -62 -4 -102v-2l-737 -2q2 0 0 -11.5t1 -32t5.5 -46t13 -54.5t23 -57.5t35.5 -54.5t51 -46t69.5 -32t90.5 -12q59 0 108 15.5t77 37.5t47 44t25 37l7 16q172 -48 172 -49q-4 -10 -11.5 -26.5
t-40.5 -59t-75.5 -75t-120 -59t-170.5 -26.5q-322 0 -436 237q-28 58 -44.5 130.5t-18 151.5t11 157.5t46.5 149t85 125.5t130.5 88.5t178.5 36.5zM816 603q-2 0 0 10.5t-1 29.5t-5.5 42.5t-12 50.5t-21.5 53t-34 50t-49 42.5t-66.5 29.5t-86.5 11q-56 0 -101.5 -17.5
t-73.5 -45.5t-48.5 -62.5t-29.5 -68.5t-14.5 -62t-6.5 -46v-17h550z" />
    <glyph glyph-name="f" unicode="f" horiz-adv-x="671" 
d="M594 1281q-87 2 -136.5 -17t-67 -54.5t-18.5 -95.5l-3 -79l99 5l126 -1v-145h-129l-96 6l3 -124v-774l-180 -2v775l4 126l-104 -4v142l104 -4l-4 79v8q0 30 2 55t11.5 58.5t25.5 60t46.5 53.5t72 44.5t104 27.5t140.5 8v-148z" />
    <glyph glyph-name="g" unicode="g" horiz-adv-x="1095" 
d="M807 1046h175v-1046h-1q-2 -171 -122 -282.5t-328 -111.5q-62 0 -117.5 8t-94.5 21.5t-72 29t-53.5 31.5t-35 29.5t-20.5 21.5l-6 8l146 106q2 -4 7 -10.5t25.5 -24t46.5 -30.5t72.5 -23.5t101.5 -10.5q71 0 124 21t81.5 52t45.5 75t21.5 81t3.5 79v102q-24 -60 -59 -92
q-106 -97 -254 -97q-35 0 -69.5 5t-77.5 20.5t-80 39.5t-73.5 66.5t-62 98t-41.5 137t-16 179.5q0 104 16.5 188t42 138.5t64 95t75 62t82.5 34t78.5 15.5t70.5 3q138 0 221 -72q23 -20 44 -45t30 -40l9 -16v154zM532 132q34 0 68 10t71 37.5t64.5 69.5t45.5 114t18 163
q0 88 -17 158.5t-44.5 114.5t-63.5 73.5t-71 42t-71 14.5q-137 5 -212 -94.5t-75 -292.5q0 -205 76 -307.5t211 -102.5z" />
    <glyph glyph-name="h" unicode="h" 
d="M980 739q4 -31 7.5 -94t4.5 -111l2 -48v-485l-188 -1v374v35v34l-3 151q0 45 -4.5 86t-21.5 87.5t-44.5 78t-77 49t-115.5 10.5q-240 -27 -246 -312l-1 -594l-181 1l-1 1425h174l1 -539q3 7 9 18t32.5 40t60.5 51.5t96 40.5t136 18q62 0 118 -16.5t107 -52t87 -98.5
t48 -148z" />
    <glyph glyph-name="i" unicode="i" horiz-adv-x="481" 
d="M148 -1v1035h182l-3 -1035h-179zM331 1248h-182v178h182v-178z" />
    <glyph glyph-name="i" unicode="&#xef;" horiz-adv-x="481" 
d="M148 -1v1035h182l-3 -1035h-179zM331 1248h-182v178h182v-178z" />
    <glyph glyph-name="i" unicode="&#xee;" horiz-adv-x="481" 
d="M148 -1v1035h182l-3 -1035h-179zM331 1248h-182v178h182v-178z" />
    <glyph glyph-name="i" unicode="&#xed;" horiz-adv-x="481" 
d="M148 -1v1035h182l-3 -1035h-179zM331 1248h-182v178h182v-178z" />
    <glyph glyph-name="i" unicode="&#xec;" horiz-adv-x="481" 
d="M148 -1v1035h182l-3 -1035h-179zM331 1248h-182v178h182v-178z" />
    <glyph glyph-name="j" unicode="j" horiz-adv-x="405" 
d="M116 -13v1050h175q-3 -1074 -3 -1077q1 -40 -8.5 -94.5t-28.5 -85.5q-28 -46 -67.5 -78.5t-75 -50t-85.5 -27.5t-82.5 -12.5t-82.5 -4.5v177q99 2 143 18q115 40 115 185zM291 1249h-179v180h179v-180z" />
    <glyph glyph-name="k" unicode="k" horiz-adv-x="1062" 
d="M1015 1h-230l-496 523l6 -523l-184 -1v1430l184 1l-5 -815l458 422h228l-516 -470z" />
    <glyph glyph-name="l" unicode="l" horiz-adv-x="399" 
d="M286 0h-175v1427h175v-1427z" />
    <glyph glyph-name="m" unicode="m" horiz-adv-x="1755" 
d="M1651 485v-485h-183v373v22v13v34l-3 151q0 31 -1 54t-6.5 60t-15 64t-28.5 56.5t-45 47t-66.5 27t-91.5 3.5q-233 -26 -243 -306v-7v-592h-169h-10v373v22v13v34l-3 151q0 31 -1 54.5t-6.5 60.5t-15 64.5t-28.5 57.5t-45 48t-66.5 27.5t-91.5 3.5q-120 -13 -180 -96
t-63 -221v-593l-177 1l-1 1033h170l1 -150q3 7 9 18t31.5 40t58.5 51.5t93.5 40.5t132.5 18q102 0 183 -44q97 -55 141 -164q7 18 19 38.5t41 52.5t66 56.5t97.5 42.5t131.5 18q60 0 115 -16.5t105 -51.5t85 -98t47 -148q4 -31 7.5 -94t4.5 -111z" />
    <glyph glyph-name="n" unicode="n" 
d="M980 739q4 -31 7.5 -94t4.5 -111l2 -48v-486h-188v374v35v34l-3 151q0 45 -4.5 86t-21.5 87.5t-44.5 78t-77 49t-115.5 10.5q-240 -27 -246 -312l-1 -594l-181 1l-1 1035h174l1 -150q3 7 9 18t32.5 40t60.5 51.5t96 40.5t136 18q62 0 118 -16.5t107 -51.5t87 -98t48 -148
z" />
    <glyph glyph-name="n" unicode="&#xf1;" 
d="M980 739q4 -31 7.5 -94t4.5 -111l2 -48v-486h-188v374v35v34l-3 151q0 45 -4.5 86t-21.5 87.5t-44.5 78t-77 49t-115.5 10.5q-240 -27 -246 -312l-1 -594l-181 1l-1 1035h174l1 -150q3 7 9 18t32.5 40t60.5 51.5t96 40.5t136 18q62 0 118 -16.5t107 -51.5t87 -98t48 -148
z" />
    <glyph glyph-name="o" unicode="o" horiz-adv-x="1118" 
d="M558 1064q123 0 218.5 -41.5t154.5 -115t88.5 -170.5t29.5 -213q0 -80 -14 -153.5t-49.5 -146t-90 -125.5t-141.5 -85.5t-197 -32.5q-105 0 -189.5 30.5t-140 81t-92.5 119.5t-53 143.5t-16 155.5q0 125 28.5 224t86.5 174t153.5 115t223.5 40zM558 124
q140 0 221.5 106.5t81.5 315.5q0 96 -24.5 170t-67.5 119t-98 67.5t-120 22.5q-127 0 -211.5 -103.5t-84.5 -278.5q0 -214 80 -316.5t223 -102.5z" />
    <glyph glyph-name="o" unicode="&#xf8;" horiz-adv-x="1118" 
d="M558 1064q123 0 218.5 -41.5t154.5 -115t88.5 -170.5t29.5 -213q0 -80 -14 -153.5t-49.5 -146t-90 -125.5t-141.5 -85.5t-197 -32.5q-105 0 -189.5 30.5t-140 81t-92.5 119.5t-53 143.5t-16 155.5q0 125 28.5 224t86.5 174t153.5 115t223.5 40zM558 124
q140 0 221.5 106.5t81.5 315.5q0 96 -24.5 170t-67.5 119t-98 67.5t-120 22.5q-127 0 -211.5 -103.5t-84.5 -278.5q0 -214 80 -316.5t223 -102.5z" />
    <glyph glyph-name="o" unicode="&#xf6;" horiz-adv-x="1118" 
d="M558 1064q123 0 218.5 -41.5t154.5 -115t88.5 -170.5t29.5 -213q0 -80 -14 -153.5t-49.5 -146t-90 -125.5t-141.5 -85.5t-197 -32.5q-105 0 -189.5 30.5t-140 81t-92.5 119.5t-53 143.5t-16 155.5q0 125 28.5 224t86.5 174t153.5 115t223.5 40zM558 124
q140 0 221.5 106.5t81.5 315.5q0 96 -24.5 170t-67.5 119t-98 67.5t-120 22.5q-127 0 -211.5 -103.5t-84.5 -278.5q0 -214 80 -316.5t223 -102.5z" />
    <glyph glyph-name="o" unicode="&#xf5;" horiz-adv-x="1118" 
d="M558 1064q123 0 218.5 -41.5t154.5 -115t88.5 -170.5t29.5 -213q0 -80 -14 -153.5t-49.5 -146t-90 -125.5t-141.5 -85.5t-197 -32.5q-105 0 -189.5 30.5t-140 81t-92.5 119.5t-53 143.5t-16 155.5q0 125 28.5 224t86.5 174t153.5 115t223.5 40zM558 124
q140 0 221.5 106.5t81.5 315.5q0 96 -24.5 170t-67.5 119t-98 67.5t-120 22.5q-127 0 -211.5 -103.5t-84.5 -278.5q0 -214 80 -316.5t223 -102.5z" />
    <glyph glyph-name="o" unicode="&#xf4;" horiz-adv-x="1118" 
d="M558 1064q123 0 218.5 -41.5t154.5 -115t88.5 -170.5t29.5 -213q0 -80 -14 -153.5t-49.5 -146t-90 -125.5t-141.5 -85.5t-197 -32.5q-105 0 -189.5 30.5t-140 81t-92.5 119.5t-53 143.5t-16 155.5q0 125 28.5 224t86.5 174t153.5 115t223.5 40zM558 124
q140 0 221.5 106.5t81.5 315.5q0 96 -24.5 170t-67.5 119t-98 67.5t-120 22.5q-127 0 -211.5 -103.5t-84.5 -278.5q0 -214 80 -316.5t223 -102.5z" />
    <glyph glyph-name="o" unicode="&#xf3;" horiz-adv-x="1118" 
d="M558 1064q123 0 218.5 -41.5t154.5 -115t88.5 -170.5t29.5 -213q0 -80 -14 -153.5t-49.5 -146t-90 -125.5t-141.5 -85.5t-197 -32.5q-105 0 -189.5 30.5t-140 81t-92.5 119.5t-53 143.5t-16 155.5q0 125 28.5 224t86.5 174t153.5 115t223.5 40zM558 124
q140 0 221.5 106.5t81.5 315.5q0 96 -24.5 170t-67.5 119t-98 67.5t-120 22.5q-127 0 -211.5 -103.5t-84.5 -278.5q0 -214 80 -316.5t223 -102.5z" />
    <glyph glyph-name="o" unicode="&#xf2;" horiz-adv-x="1118" 
d="M558 1064q123 0 218.5 -41.5t154.5 -115t88.5 -170.5t29.5 -213q0 -80 -14 -153.5t-49.5 -146t-90 -125.5t-141.5 -85.5t-197 -32.5q-105 0 -189.5 30.5t-140 81t-92.5 119.5t-53 143.5t-16 155.5q0 125 28.5 224t86.5 174t153.5 115t223.5 40zM558 124
q140 0 221.5 106.5t81.5 315.5q0 96 -24.5 170t-67.5 119t-98 67.5t-120 22.5q-127 0 -211.5 -103.5t-84.5 -278.5q0 -214 80 -316.5t223 -102.5z" />
    <glyph glyph-name="p" unicode="p" horiz-adv-x="1097" 
d="M598 1048q35 0 69.5 -5t77.5 -20.5t80.5 -40t73.5 -66.5t62 -97.5t42 -136t16 -178.5q0 -103 -16.5 -187t-42.5 -138.5t-64 -95t-75 -62t-82 -33.5t-79 -14.5t-71 -1.5q-134 5 -236 91q-20 17 -37 43t-24 44l-7 17v-511h-174v1374h174v-169q20 67 64 103q102 84 249 84z
M560 113q136 -6 211.5 93.5t75.5 292.5q0 203 -76 305.5t-211 102.5q-34 0 -68 -10t-71 -37t-64.5 -69.5t-45.5 -114t-18 -162.5q0 -87 17 -157.5t44.5 -114.5t63.5 -73.5t71 -42t71 -13.5z" />
    <glyph glyph-name="q" unicode="q" horiz-adv-x="1097" 
d="M807 1036h175v-1375h-175v503q-19 -51 -56 -85q-106 -97 -248 -102q-37 -1 -71 1.5t-78.5 14.5t-82 33.5t-75 62t-63.5 95.5t-42.5 139t-16.5 187q0 98 16 178.5t41.5 136t62 97.5t73.5 66.5t80 40t77.5 20.5t69.5 5q152 0 257 -90q17 -15 31 -37.5t20 -37.5l5 -15v162z
M532 119q46 2 89.5 22.5t85 64t67 125t25.5 189.5q0 91 -18 162.5t-45.5 113.5t-64.5 69.5t-71 37.5t-68 10q-134 0 -210 -102.5t-76 -305.5q0 -193 75 -292.5t211 -93.5z" />
    <glyph glyph-name="r" unicode="r" horiz-adv-x="813" 
d="M683 870q-5 4 -14.5 9.5t-47 14t-83.5 7.5q-107 -3 -168.5 -68t-75.5 -157q-3 -17 -3.5 -72t-0.5 -101l1 -46v-457h-179l-1 1034l179 1v-138q3 6 8.5 16t28.5 36t51 46t78 37.5t107 20.5q54 3 104.5 -9t74.5 -26l23 -13q-20 -31 -41 -67.5t-41 -67.5z" />
    <glyph glyph-name="s" unicode="s" horiz-adv-x="1036" 
d="M880 475q82 -98 69 -224q-9 -92 -71 -156.5t-152 -90.5t-190 -27.5t-193.5 29t-153.5 82.5q-36 32 -62.5 72t-34.5 64l-9 24l179 38q1 -5 3.5 -14t16 -32.5t34.5 -42.5t64 -38t99 -26q60 -8 131.5 2.5t105.5 36.5q44 32 54.5 82t-22.5 103q-22 32 -76.5 50t-121.5 27
t-136 18.5t-135 33.5t-104 63q-101 108 -89 231t122 203q67 49 179.5 66.5t214 5t158.5 -42.5q135 -70 182 -220l-162 -49q-2 8 -6 21.5t-22.5 44.5t-43.5 50q-47 35 -116 49t-128 9.5t-103 -20.5q-57 -21 -84.5 -64.5t-20.5 -88.5t42 -77q28 -25 86.5 -40t126 -23.5
t137 -20t133 -38.5t99.5 -70z" />
    <glyph glyph-name="s" unicode="&#xdf;" horiz-adv-x="1036" 
d="M880 475q82 -98 69 -224q-9 -92 -71 -156.5t-152 -90.5t-190 -27.5t-193.5 29t-153.5 82.5q-36 32 -62.5 72t-34.5 64l-9 24l179 38q1 -5 3.5 -14t16 -32.5t34.5 -42.5t64 -38t99 -26q60 -8 131.5 2.5t105.5 36.5q44 32 54.5 82t-22.5 103q-22 32 -76.5 50t-121.5 27
t-136 18.5t-135 33.5t-104 63q-101 108 -89 231t122 203q67 49 179.5 66.5t214 5t158.5 -42.5q135 -70 182 -220l-162 -49q-2 8 -6 21.5t-22.5 44.5t-43.5 50q-47 35 -116 49t-128 9.5t-103 -20.5q-57 -21 -84.5 -64.5t-20.5 -88.5t42 -77q28 -25 86.5 -40t126 -23.5
t137 -20t133 -38.5t99.5 -70z" />
    <glyph glyph-name="t" unicode="t" horiz-adv-x="753" 
d="M403 441v-184q5 -82 41 -105q25 -17 75 -17q31 0 62 6.5t46 12.5l15 7l43 -158q-70 -14 -128 -18t-102 -1.5t-78.5 15.5t-58.5 29t-41 43.5t-27 54t-15.5 66t-7 74.5t-1.5 83v7v395l5 152l-161 -5v140l160 -3l-3 115l1 208l178 70l-2 -265l-4 -128l130 4l120 1v-141h-122
l-129 5l4 -151v-312z" />
    <glyph glyph-name="u" unicode="u" 
d="M115 294q-4 31 -7.5 94t-5.5 111l-1 48v486h188v-374v-35v-34l3 -151q0 -45 4.5 -86t21.5 -87.5t44.5 -78t77 -49t115.5 -10.5q241 27 247 312v594l181 -1l2 -1035h-175l-1 150q-3 -7 -9 -18t-32.5 -40t-60.5 -51.5t-96 -40.5t-136 -18q-62 0 -118 16.5t-107 51.5t-87 98
t-48 148z" />
    <glyph glyph-name="u" unicode="&#xfc;" 
d="M115 294q-4 31 -7.5 94t-5.5 111l-1 48v486h188v-374v-35v-34l3 -151q0 -45 4.5 -86t21.5 -87.5t44.5 -78t77 -49t115.5 -10.5q241 27 247 312v594l181 -1l2 -1035h-175l-1 150q-3 -7 -9 -18t-32.5 -40t-60.5 -51.5t-96 -40.5t-136 -18q-62 0 -118 16.5t-107 51.5t-87 98
t-48 148z" />
    <glyph glyph-name="u" unicode="&#xfb;" 
d="M115 294q-4 31 -7.5 94t-5.5 111l-1 48v486h188v-374v-35v-34l3 -151q0 -45 4.5 -86t21.5 -87.5t44.5 -78t77 -49t115.5 -10.5q241 27 247 312v594l181 -1l2 -1035h-175l-1 150q-3 -7 -9 -18t-32.5 -40t-60.5 -51.5t-96 -40.5t-136 -18q-62 0 -118 16.5t-107 51.5t-87 98
t-48 148z" />
    <glyph glyph-name="u" unicode="&#xfa;" 
d="M115 294q-4 31 -7.5 94t-5.5 111l-1 48v486h188v-374v-35v-34l3 -151q0 -45 4.5 -86t21.5 -87.5t44.5 -78t77 -49t115.5 -10.5q241 27 247 312v594l181 -1l2 -1035h-175l-1 150q-3 -7 -9 -18t-32.5 -40t-60.5 -51.5t-96 -40.5t-136 -18q-62 0 -118 16.5t-107 51.5t-87 98
t-48 148z" />
    <glyph glyph-name="u" unicode="&#xf9;" 
d="M115 294q-4 31 -7.5 94t-5.5 111l-1 48v486h188v-374v-35v-34l3 -151q0 -45 4.5 -86t21.5 -87.5t44.5 -78t77 -49t115.5 -10.5q241 27 247 312v594l181 -1l2 -1035h-175l-1 150q-3 -7 -9 -18t-32.5 -40t-60.5 -51.5t-96 -40.5t-136 -18q-62 0 -118 16.5t-107 51.5t-87 98
t-48 148z" />
    <glyph glyph-name="v" unicode="v" horiz-adv-x="1077" 
d="M838 1034h189l-397 -1034h-175v1l-409 1035h199l243 -668l56 -163l49 163z" />
    <glyph glyph-name="w" unicode="w" horiz-adv-x="1525" 
d="M1299 1034h179l-342 -1034h-113l-261 776l-264 -776h-119l-333 1034h176l188 -605l38 -143l38 140l209 608h137l207 -587l37 -163l42 159z" />
    <glyph glyph-name="x" unicode="x" horiz-adv-x="1081" 
d="M690 441l342 -441h-209l-230 312l-54 82l-54 -81l-231 -313h-208l341 453l49 65l-49 66l-325 452h197l213 -297l67 -101l62 97l215 301h204l-331 -455l-53 -70z" />
    <glyph glyph-name="y" unicode="y" horiz-adv-x="1105" 
d="M1058 1033l-461 -1179q-27 -59 -66 -104t-79.5 -69.5t-83.5 -41t-80.5 -20.5t-67 -5t-46.5 1l-18 2l32 171q32 -13 91 0q150 34 202 225l-435 1020h199l273 -665l57 -163l49 163l245 665h189z" />
    <glyph glyph-name="y" unicode="&#xff;" horiz-adv-x="1105" 
d="M1058 1033l-461 -1179q-27 -59 -66 -104t-79.5 -69.5t-83.5 -41t-80.5 -20.5t-67 -5t-46.5 1l-18 2l32 171q32 -13 91 0q150 34 202 225l-435 1020h199l273 -665l57 -163l49 163l245 665h189z" />
    <glyph glyph-name="y" unicode="&#xfd;" horiz-adv-x="1105" 
d="M1058 1033l-461 -1179q-27 -59 -66 -104t-79.5 -69.5t-83.5 -41t-80.5 -20.5t-67 -5t-46.5 1l-18 2l32 171q32 -13 91 0q150 34 202 225l-435 1020h199l273 -665l57 -163l49 163l245 665h189z" />
    <glyph glyph-name="z" unicode="z" horiz-adv-x="1030" 
d="M944 898l-615 -744l615 1v-154h-861v131l633 756l-633 2v144h861v-136z" />
    <glyph glyph-name="braceleft" unicode="{" horiz-adv-x="788" 
d="M582 -93q48 -9 91 11l2 -142q-24 -7 -52.5 -12.5t-90 2.5t-107.5 42q-71 52 -105 167q-10 36 -12 183q-1 63 -0.5 97t0 66t-3.5 65q-10 135 -48 178q-36 48 -97 58q-25 4 -48 0q1 28 1 84q0 57 -1 85q23 -4 48 0q57 10 97 58q38 45 48 178q3 34 3.5 66t0 66t0.5 96
q2 149 12 183q35 116 105 168q97 70 250 32l-2 -143q-44 20 -91 12q-46 -9 -76 -49.5t-32 -107.5q-3 -67 1 -117q11 -177 -12 -289q-17 -81 -38 -117q-47 -80 -142 -121q94 -37 142 -120q21 -36 38 -117q23 -112 12 -289q-3 -36 -1 -116q1 -43 9.5 -73t24 -46.5t32.5 -24.5
t42 -13z" />
    <glyph glyph-name="braceright" unicode="}" horiz-adv-x="788" 
d="M676 797q-2 -56 -2 -84t2 -84q-24 4 -49 0q-59 -10 -96 -59q-39 -45 -49 -177q-3 -33 -3.5 -65t0 -66t-0.5 -97q-2 -147 -12 -183q-34 -115 -105 -167q-36 -26 -78.5 -37.5t-80 -9t-57.5 6t-34 7.5l2 143q44 -20 91 -12q51 10 79 42.5t30 115.5q1 69 -2 116
q-11 177 12 288q17 81 38 117q49 84 142 121q-95 41 -142 121q-21 36 -38 117q-23 111 -12 288q4 59 2 117q-2 67 -32.5 107.5t-76.5 49.5q-47 8 -91 -12l-2 143q151 40 250 -32q70 -52 105 -168q10 -34 12 -183q1 -62 0.5 -96t0 -66t3.5 -66q6 -81 18 -117.5t31 -59.5
q41 -50 96 -59q25 -4 49 0z" />
    <glyph glyph-name="asciitilde" unicode="~" horiz-adv-x="1226" 
d="M880 529q57 0 115.5 24.5t88.5 48.5l31 25l-4 -213q-10 -7 -28.5 -17.5t-78 -28t-121.5 -17.5q-88 0 -266 54t-268 54q-38 0 -76.5 -11t-65.5 -26.5t-49 -31t-33 -26.5l-11 -11l-3 201q4 4 11 10.5t31 24t49.5 30.5t64.5 23.5t78 10.5q61 0 134.5 -19t131.5 -42.5
t132.5 -43t136.5 -19.5z" />
    <glyph glyph-name="nonbreakingspace" unicode="&#xa0;" horiz-adv-x="868" 
 />
    <glyph glyph-name="cent" unicode="&#xa2;" horiz-adv-x="1120" 
d="M819 307l189 -44q-1 -5 -4 -13.5t-15.5 -34t-28.5 -49t-44.5 -53.5t-63 -53t-85.5 -41.5t-110 -25.5v-200h-168v203q-178 29 -278 165t-100 382q0 217 100 348t278 160v216h168v-212q55 -7 103 -25t81.5 -41.5t61 -50.5t44.5 -52.5t28.5 -46.5t16.5 -33l4 -13l-178 -48
q-2 5 -6 13.5t-19 31t-32 39.5t-45 31t-59 15v-700q32 4 61 19t46.5 33.5t30.5 37t19 30.5zM489 177v697q-79 -16 -129.5 -109t-50.5 -221q0 -158 46 -252t134 -115z" />
    <glyph glyph-name="sterling" unicode="&#xa3;" horiz-adv-x="1331" 
d="M1031 235l188 -48q-23 -44 -44.5 -74t-52.5 -51.5t-61.5 -33t-84 -18.5t-106 -8.5t-139.5 -1.5h-505q-19 19 -24 26q-53 66 -50 145q6 159 151 260q10 7 53.5 34t66.5 46q21 18 25.5 50t-5.5 58h-332v156h195q-59 68 -85.5 148t-20.5 152t31 133.5t66 104.5
q51 53 128.5 87.5t164 46.5t177.5 -4.5t168 -58t136 -121.5t82 -187l-178 -24q-7 58 -57 123q-52 66 -130 102t-183 19q-83 -13 -140.5 -58.5t-78.5 -103.5t-10.5 -122.5t53.5 -115.5q20 -23 58 -62.5t54 -58.5h376v-156h-293q21 -95 -28 -168t-117 -108q-144 -74 -132 -178
h334h54h91t71 3.5t62.5 10.5t40.5 21t31 35z" />
    <glyph glyph-name="yen" unicode="&#xa5;" horiz-adv-x="1437" 
d="M1325 1426q-273 -436 -432 -691h318v-145h-401v-84h401v-145h-401v-362h-185v362h-393v145h393v84h-393v145h309q-387 622 -430 691h222l292 -497l93 -156l92 150l308 503h207z" />
    <glyph glyph-name="copyright" unicode="&#xa9;" horiz-adv-x="638" 
d="M320 1139q21 0 36 7t19 14l4 8l41 -9l-3 -6t-9.5 -14.5t-18 -18t-30 -14t-42.5 -6.5q-54 0 -87 36t-32 102q1 59 34 92.5t84 33.5q39 0 64.5 -17t31.5 -33l6 -17l-39 -7l-1 1q0 1 -1.5 3.5l-3 5t-4.5 6t-6 6.5t-8 6t-10.5 5t-12.5 3t-15 1q-35 0 -55 -22q-23 -26 -21 -73
q2 -51 25 -73q18 -18 54 -20zM318 1441q85 0 146 -61t61 -147q0 -85 -60.5 -146t-146.5 -61t-146.5 61t-60.5 146q0 86 61 147t146 61zM318 1061q71 0 121.5 50.5t50.5 121.5t-50.5 122t-121.5 51t-121.5 -51t-50.5 -122t50.5 -121.5t121.5 -50.5z" />
    <glyph glyph-name="guillemotleft" unicode="&#xab;" horiz-adv-x="1351" 
d="M799 875l-467 -442l467 -436h-230l-458 434l464 444h224zM1241 875l-467 -442l467 -436h-230l-459 434l465 444h224z" />
    <glyph glyph-name="registered" unicode="&#xae;" horiz-adv-x="661" 
d="M366 211q25 -8 46 -61l25 -51h-48q-4 12 -19 47q-13 30 -33 44.5t-39 14.5h-1h-14v-106h-42v252h85q46 2 66.5 -16t24.5 -40q7 -40 -16 -65q-3 -5 -12 -10q-16 -9 -23 -9zM334 239q25 0 35.5 12.5t8.5 28.5q-1 14 -12.5 25t-33.5 10h-49v-76h51zM329 440q91 0 155 -64
t64 -155q0 -90 -64 -154t-155 -64q-90 0 -154 64t-64 154q0 91 64 155t154 64zM329 40q75 0 128.5 53t53.5 128t-53.5 128.5t-128.5 53.5t-128 -53.5t-53 -128.5t53 -128t128 -53z" />
    <glyph glyph-name="guillemotright" unicode="&#xbb;" horiz-adv-x="1351" 
d="M776 874l465 -443l-459 -435h-230l467 436l-467 442h224zM335 874l464 -443l-458 -435h-230l467 436l-467 442h224z" />
    <glyph glyph-name="AE" unicode="&#xc6;" horiz-adv-x="2060" 
d="M1947 1281l-753 -2v-448l683 1v-159l-678 -2v-498h748v-168h-762h-171v383l-477 -1l-228 -381h-198q85 136 400.5 644t487.5 782h28h920v-151zM1014 544v619l-382 -619h382z" />
    <glyph glyph-name="ae" unicode="&#xe6;" horiz-adv-x="1828" 
d="M1248 1057q109 4 194 -25.5t135.5 -78t83 -115.5t44.5 -130.5t12 -129.5q0 -53 -5 -103v-1l-718 -3q2 0 0 -11.5t1 -32.5t5.5 -46.5t13 -55t22.5 -58t34.5 -55t50 -47t67.5 -32.5t88 -12q58 0 106 16t75 38.5t45.5 45t25.5 38.5l6 16q167 -47 167 -48q-2 -5 -5.5 -14
t-19 -34.5t-34.5 -49t-53 -52t-73.5 -49t-97.5 -34.5t-124 -14q-287 0 -407 204q-13 -25 -29.5 -48t-50 -52.5t-75 -50.5t-105 -36t-138.5 -15q-80 0 -146.5 18.5t-110 50.5t-74 74t-40 89t-6.5 95t25.5 93t56.5 82t86.5 63t115.5 35q80 12 184 23q60 7 91 11.5t71 13.5
t59 22t23 31q2 9 3.5 24.5t-10 58t-41.5 78.5q-33 40 -99.5 59.5t-135.5 14.5t-127 -47.5t-73 -116.5l-174 28q25 94 92.5 157.5t151 87.5t172 26t161.5 -17t113 -50q46 -35 75 -83q48 62 128 106t188 48zM824 392v137q-50 -22 -128.5 -36t-142.5 -20t-129 -24.5t-99 -50.5
q-48 -45 -41 -116t62 -115q55 -42 137 -46.5t157.5 23.5t129.5 94t54 154zM1531 616v17t-4 43t-12.5 61t-28 64.5t-47 61t-73.5 43.5t-104 19q-55 1 -99 -15.5t-71.5 -44t-47.5 -60.5t-29 -66t-14.5 -60.5t-6.5 -44.5v-18h537z" />
    <glyph glyph-name="divide" unicode="&#xf7;" 
d="M986 508h-875v171h875v-171zM664 825h-231v242h231v-242zM664 121h-231v241h231v-241z" />
    <glyph glyph-name="quoteleft" unicode="&#x2018;" horiz-adv-x="407" 
d="M255 1226h41v-209h-185v209l59 208h85v-208z" />
    <glyph glyph-name="quoteright" unicode="&#x2019;" horiz-adv-x="407" 
d="M111 1434h185v-209l-59 -208h-85v208h-41v209z" />
    <glyph glyph-name="quotedblleft" unicode="&#x201c;" horiz-adv-x="655" 
d="M255 1433v-208h41v-209h-185v209l59 208h85zM502 1226h41v-209h-185v209l59 208h85v-208z" />
    <glyph glyph-name="quotedblright" unicode="&#x201d;" horiz-adv-x="649" 
d="M111 1225v209h185v-209l-59 -208h-85v208h-41zM351 1434h186v-209l-60 -208h-84v208h-42v209z" />
    <glyph glyph-name="bullet" unicode="&#x2022;" horiz-adv-x="714" 
d="M358 721q101 0 173.5 -72.5t72.5 -174.5q0 -65 -34.5 -123t-87.5 -89q-52 -31 -121 -32t-125 30t-90.5 88.5t-34.5 125.5q0 102 72 174.5t175 72.5z" />
    <glyph glyph-name="guilsinglleft" unicode="&#x2039;" horiz-adv-x="911" 
d="M799 874l-467 -442l467 -436h-230l-458 435l464 443h224z" />
    <glyph glyph-name="guilsinglright" unicode="&#x203a;" horiz-adv-x="911" 
d="M335 874l464 -443l-458 -435h-230l467 436l-467 442h224z" />
    <glyph glyph-name="Euro" unicode="&#x20ac;" horiz-adv-x="1253" 
d="M902 1302q-157 -3 -279.5 -104.5t-164.5 -281.5h658l-25 -133h-650q-2 -34 -2 -52q0 -51 2 -76h642l-24 -132h-600q28 -135 97 -221.5t158 -120.5t200 -31q152 5 227 40v-176q-102 -28 -220 -28q-255 0 -421 135.5t-213 401.5h-176l24 132h137q-4 37 -4 86q0 28 2 42
h-127l25 133h115q45 259 215 399t417 140q125 0 226 -32v-171q-91 53 -239 50z" />
    <glyph glyph-name="trademark" unicode="&#x2122;" horiz-adv-x="681" 
d="M111 1400v36h191v-36h-74v-216h-42v216h-75zM551 1436l19 -252h-43l-8 154l-69 -154h-19l-68 153l-9 -153h-40l15 252h35l78 -177l75 177h34z" />
    <glyph glyph-name="Q.alt1" unicode="&#xf006;" horiz-adv-x="1695" 
d="M1303 190q42 -34 86 -43t75 -2.5t68.5 30.5t51.5 37t38 37v-201q-51 -33 -103.5 -49.5t-96.5 -15.5t-85 9.5t-71.5 24t-54 29.5t-35.5 24l-12 11q-11 -10 -12 -10q-159 -90 -368 -90q-331 0 -519 188.5t-188 546.5q0 178 55.5 319.5t152 231t224 136.5t275.5 47
q218 0 379 -93.5t244 -259t83 -381.5q0 -325 -187 -526zM801 139q31 1 84 15t91 27l37 13q-73 65 -151.5 111.5t-139.5 52.5q-64 7 -103 -34.5t-28.5 -95.5t70.5 -79q8 -2 25 -4t19 -2h1q50 -6 84 -5q2 0 6 0.5t5 0.5zM1150 293q152 163 152 424q0 254 -148.5 415.5
t-369.5 161.5q-109 0 -204 -40.5t-165.5 -114t-111.5 -184t-41 -244.5q1 -303 173 -453q-11 112 68 178.5t206 66.5q64 0 126.5 -18t123 -54.5t92.5 -60t84 -65.5z" />
    <glyph glyph-name="W.alt1" unicode="&#xf00b;" horiz-adv-x="2062" 
d="M1795 1427l203 -1q-83 -201 -280.5 -684t-304.5 -742h-147q-78 189 -234 571q-62 -151 -235 -571h-147q-97 237 -292.5 713t-293.5 713l205 1l459 -1179l210 550q-86 210 -258 628l205 1l148 -381l145 381l205 -1q-170 -414 -255 -622l216 -556z" />
    <glyph glyph-name="hyphen.alt1" unicode="&#xf00f;" horiz-adv-x="1607" 
d="M1495 569l1 -162h-1384l-1 162h1384z" />
    <glyph glyph-name="hyphen.alt2" unicode="&#xf010;" horiz-adv-x="2297" 
d="M2186 566l1 -162h-2076v162h2075z" />
    </font>
</defs>
</svg>
