<?xml version="1.0" standalone="no"?>
<!DOCTYPE svg PUBLIC "-//W3C//DTD SVG 1.1//EN" "http://www.w3.org/Graphics/SVG/1.1/DTD/svg11.dtd" >
<svg xmlns="http://www.w3.org/2000/svg" xmlns:xlink="http://www.w3.org/1999/xlink" version="1.1">
<metadata>
Created by FontForge 20201107 at Fri May 17 14:59:38 2024
 By 
</metadata>
<defs>
<font id="AndersonGroteskLight" horiz-adv-x="362" >
  <font-face 
    font-family="Anderson Grotesk Light"
    font-weight="400"
    font-stretch="normal"
    units-per-em="2048"
    panose-1="0 0 0 0 0 0 0 0 0 0"
    ascent="1638"
    descent="-410"
    x-height="1033"
    cap-height="1427"
    bbox="-137 -456.286 2218 1595"
    underline-thickness="0"
    underline-position="0"
    unicode-range="U+000A-F00F"
  />
<missing-glyph horiz-adv-x="931" 
 />
    <glyph glyph-name=".notdef" horiz-adv-x="931" 
 />
    <glyph glyph-name=".notdef" horiz-adv-x="931" 
 />
    <glyph glyph-name=".null" horiz-adv-x="0" 
 />
    <glyph glyph-name="nonmarkingreturn" horiz-adv-x="682" 
 />
    <glyph glyph-name="LF" unicode="&#xa;" horiz-adv-x="0" 
 />
    <glyph glyph-name="controlCR" unicode="&#xd;" horiz-adv-x="0" 
 />
    <glyph glyph-name="space" unicode=" " horiz-adv-x="552" 
 />
    <glyph glyph-name="exclam" unicode="!" 
d="M136 191h90v-191h-90v191zM135 1429h92v-450l-10 -596h-72l-10 596v450z" />
    <glyph glyph-name="quotedbl" unicode="&#x22;" horiz-adv-x="509" 
d="M135 1184v242h90v-242l-11 -242h-65zM285 1426h90v-242l-12 -242h-64l-14 242v242z" />
    <glyph glyph-name="numbersign" unicode="#" horiz-adv-x="1751" 
d="M1608 936l-413 -1l-39 -461h413l-6 -80h-414l-33 -394h-80l34 394h-462l-34 -394h-79l33 394h-393l7 80h393l39 461h-393l7 80h393l35 412h79l-35 -412h462l35 412h80l-35 -412h413zM1076 474l40 461h-462l-40 -461h462z" />
    <glyph glyph-name="dollar" unicode="$" horiz-adv-x="1306" 
d="M1171 376q5 -93 -31 -169t-101 -124.5t-147.5 -77t-174.5 -34.5v-171h-90v170q-106 5 -199.5 40t-155.5 96q-55 53 -91.5 115.5t-45.5 112.5l102 10q2 -10 7.5 -26.5t28.5 -61t54.5 -80t89 -69.5t128.5 -44q39 -5 82 -7v616q-2 0 -6 1t-7 1.5t-5 0.5q-19 4 -69 13.5
t-65.5 13t-51.5 12.5t-54 17t-42.5 21.5t-46.5 30.5q-75 59 -104 142.5t-14.5 163t61.5 151t116 112.5q124 74 288 83v160h90v-161q77 -5 145.5 -28t128.5 -64t102.5 -107.5t59.5 -153.5l-93 -9q-5 70 -59 150q-37 54 -112.5 91.5t-171.5 45.5v-608q72 -12 124 -25
q315 -78 330 -350zM322 878q43 -45 116 -69t189 -43v593q-88 -7 -164 -34q-96 -34 -153 -113t-55.5 -171.5t67.5 -162.5zM717 56q85 6 153 32.5t109 65t65 87.5t26 98.5t-13.5 98t-48.5 87.5q-74 88 -291 130v-599z" />
    <glyph glyph-name="percent" unicode="%" horiz-adv-x="1757" 
d="M413 1481q139 0 209 -89.5t70 -244.5q0 -52 -10 -100t-31.5 -91.5t-53.5 -75.5t-79 -50.5t-105 -18.5q-136 0 -207 91t-71 237q0 342 278 342zM413 879q93 0 145.5 74t52.5 219q0 130 -53.5 190t-144.5 60q-86 0 -141.5 -65t-55.5 -185q0 -293 197 -293zM1344 687
q139 0 208.5 -89.5t69.5 -244.5q0 -52 -9.5 -100t-31.5 -91.5t-53.5 -75.5t-78.5 -50.5t-105 -18.5q-136 0 -207.5 91t-71.5 237q0 342 279 342zM1344 85q93 0 145 73.5t52 219.5q0 130 -53 190t-144 60q-86 0 -142 -65t-56 -185q0 -293 198 -293zM1243 1464h101l-858 -1464
h-100z" />
    <glyph glyph-name="ampersand" unicode="&#x26;" horiz-adv-x="1472" 
d="M1096 256l243 -257h-129l-161 180q-56 -80 -151.5 -136.5t-201.5 -77.5t-217.5 2.5t-193.5 94.5q-71 62 -110.5 141.5t-39.5 164.5t34 166.5t114.5 154t197.5 120.5q-99 124 -139 179q-51 71 -64.5 148.5t9 143.5t84.5 116.5t154 67.5q135 26 251 -31t145 -183
q37 -161 -95 -313q-31 -35 -83 -73.5t-89 -59.5l-37 -20l420 -463q33 56 55.5 127t28.5 114l6 43l84 -41q-3 -18 -9.5 -49.5t-36 -113t-69.5 -145.5zM368 1118q13 -39 62 -107t92 -117l43 -48q141 68 201 141q52 60 70 124t3 116t-49.5 93t-87 62t-110.5 17
q-126 -9 -192.5 -92.5t-31.5 -188.5zM331 138q55 -59 141 -83.5t178 -13t185 64t158 139.5l-458 503q-107 -42 -178.5 -103t-100 -127t-28.5 -135t27.5 -131.5t75.5 -113.5z" />
    <glyph glyph-name="quotesingle" unicode="'" 
d="M135 1426h91v-242l-11 -242h-65l-15 242v242z" />
    <glyph glyph-name="parenleft" unicode="(" horiz-adv-x="675" 
d="M540 1569q-294 -396 -294 -956q0 -536 294 -949h-99q-306 399 -306 949q4 553 306 956h99z" />
    <glyph glyph-name="parenright" unicode=")" horiz-adv-x="675" 
d="M234 1560q304 -404 306 -955q0 -550 -306 -949h-99q295 414 295 949q0 558 -295 955h99z" />
    <glyph glyph-name="asterisk" unicode="*" horiz-adv-x="983" 
d="M848 1131v-133l-259 27l201 -164l-90 -90l-175 205l33 -265h-126l13 263l-164 -201l-89 89l205 164l-262 -25v132l260 -18l-195 165l84 83l161 -188l-13 249h121l-16 -249l160 191l89 -89l-191 -162z" />
    <glyph glyph-name="plus" unicode="+" horiz-adv-x="966" 
d="M519 603h311v-86h-311v-304h-87v304h-297v86h297v304h87v-304z" />
    <glyph glyph-name="comma" unicode="," horiz-adv-x="385" 
d="M159 200h91v-199l-28 -198h-87l24 198v199z" />
    <glyph glyph-name="hyphen" unicode="-" horiz-adv-x="847" 
d="M770 516h-694v86h694v-86z" />
    <glyph glyph-name="period" unicode="." 
d="M135 191h92v-199h-92v199z" />
    <glyph glyph-name="slash" unicode="/" horiz-adv-x="788" 
d="M556 1491h96l-420 -1493h-97z" />
    <glyph glyph-name="zero" unicode="0" horiz-adv-x="1372" 
d="M686 1444q140 0 246 -53t172 -150.5t99 -230t33 -298.5q0 -114 -19.5 -218.5t-62 -199.5t-105.5 -165t-156 -111t-207 -41q-136 0 -242.5 55t-173 152.5t-101 227t-34.5 282.5q0 750 551 750zM686 66q217 0 338 174t121 528q0 161 -36 278.5t-102.5 185t-149 99
t-185.5 31.5q-201 0 -322.5 -151t-121.5 -443q0 -702 458 -702z" />
    <glyph glyph-name="one" unicode="1" horiz-adv-x="579" 
d="M357 1427h87v-1428l-93 1v1219q-11 -23 -35 -43q-54 -45 -181 -52v81q107 0 164 64.5t58 157.5z" />
    <glyph glyph-name="two" unicode="2" horiz-adv-x="1261" 
d="M244 87l96 1l787 7v-95h-775l-146 1h-71q0 259 169 409q54 48 140 100.5t169 95.5t163 87t139.5 89t80.5 87q31 63 36 131t-18 130t-65.5 113t-110.5 83.5t-150 38.5q-153 11 -255 -40t-155 -133q-20 -31 -31.5 -66.5t-13.5 -55.5l-2 -20l-96 12q22 112 84.5 195.5
t144.5 127t178 60.5t186 4.5t168.5 -50t125.5 -95.5q30 -37 53.5 -83t39 -104t10.5 -127t-33 -136q-28 -66 -92.5 -124.5t-148 -105t-168 -88.5t-173.5 -93.5t-144 -100.5q-32 -29 -60.5 -70t-40.5 -78q-18 -54 -21 -107z" />
    <glyph glyph-name="three" unicode="3" horiz-adv-x="1277" 
d="M871 736q11 -4 29 -11t64.5 -37t82 -68t64.5 -105t29 -145q0 -62 -18.5 -118.5t-59 -108t-100 -89t-148.5 -60t-197 -22.5q-173 0 -297.5 79t-159.5 208l107 20q9 -40 31.5 -75.5t62.5 -69t106.5 -53t151.5 -19.5q77 0 148 16.5t136 51.5t103 100.5t37 154.5
q-2 99 -67 181t-195 113q-46 11 -100 16t-85 4l-31 -1v91q129 -9 222 11q62 13 109 43.5t71.5 68.5t36.5 76.5t11 74.5q-2 143 -107.5 221t-269.5 78q-95 0 -172 -26.5t-125 -71t-75 -100.5t-29 -117l-102 11q14 103 60.5 180t116.5 121.5t152 66t176 21.5
q219 0 345.5 -108.5t125.5 -286.5q0 -66 -25 -122.5t-60 -90.5t-70.5 -58.5t-59.5 -34.5z" />
    <glyph glyph-name="four" unicode="4" horiz-adv-x="1327" 
d="M956 478h235v-91h-235v-387h-97v387h-724v84l724 957h97v-950zM859 478v808l-614 -808h614z" />
    <glyph glyph-name="five" unicode="5" horiz-adv-x="1271" 
d="M1128 570q9 -54 9 -93v-3q0 -114 -35 -210l-2 -2q0 -2 -1 -4q0 -2 -2 -6q-1 -4 -4 -8q-1 -1 -1 -3t-1 -4l-2 -4l-6 -12l-1 -1l-6 -12v-1l-1 -1l-3 -6q0 -1 -1.5 -2.5t-2.5 -3.5l-3 -6q-50 -82 -170 -150t-289 -67q-338 3 -471 236l66 27q11 4 29 12q50 -94 145 -144.5
t231 -44.5q214 11 321 122t107 293q0 88 -28 166t-81 137.5t-136 93.5t-185 31q-115 -3 -212.5 -62t-154.5 -154q-7 3 -20 9t-18 8l-31 12l-21 9l37 706h868v-82h-789l-27 -557q34 69 89 105q64 43 121.5 63.5t153.5 24.5h25q119 4 238 -50q31 -14 60 -33q83 -52 150 -165
q37 -60 55 -164z" />
    <glyph glyph-name="six" unicode="6" horiz-adv-x="1341" 
d="M1198 570q8 -48 8 -92v-4q0 -115 -34 -207v-1l-1 -1l-2 -4q0 -1 -2 -5l-1 -4q-1 -3 -2 -5q0 -1 -1 -3.5t-2 -3.5q-1 -2 -1 -4l-6 -12l-1 -1q-1 -2 -3 -5.5t-3 -5.5l-1 -1v-1l-3 -6q0 -1 -1.5 -2.5t-2.5 -3.5l-3 -6q-49 -81 -165.5 -148.5t-280.5 -66.5q-106 1 -189.5 23
t-153.5 73.5t-115.5 133t-71 203.5t-25.5 283q0 750 551 750q72 0 134 -15t103 -39t74 -52.5t51.5 -57.5t30.5 -53t16 -39l4 -15l-96 -24q-1 5 -3 12.5t-12.5 30.5t-24.5 43.5t-40.5 46t-58.5 44t-81.5 31.5t-107.5 13q-163 1 -272 -105.5t-146 -275.5q-24 -105 -34 -243
q-2 -28 5 -112q7 54 50 121q19 29 35 50t53 55.5t77 57t104 40.5t138 21h23q117 4 232 -50q29 -13 58 -33q81 -53 146 -163q37 -62 54 -162zM690 62q208 10 312 120.5t104 290.5q0 177 -114.5 297t-301.5 120q-172 0 -294.5 -122t-122.5 -295q0 -88 26 -163.5t75.5 -133
t131 -88.5t184.5 -26z" />
    <glyph glyph-name="seven" unicode="7" horiz-adv-x="1251" 
d="M1115 1439v-98l-530 -1339l-114 -2l539 1342h-875l2 97h978z" />
    <glyph glyph-name="eight" unicode="8" horiz-adv-x="1316" 
d="M876 736q6 -2 17 -5.5t42.5 -17.5t60.5 -31.5t64 -48.5t60 -66t42.5 -86t17.5 -108q0 -75 -29.5 -142.5t-89 -124t-161 -91.5t-233.5 -38h-8q-108 3 -197 26t-148.5 61t-100.5 88t-59.5 105.5t-18.5 115.5q0 57 17 107.5t44 85.5t60 64.5t66 47t60 30t44 17.5l17 5
q-11 4 -29.5 11t-66.5 35t-84.5 62t-66.5 91.5t-30 122.5q-1 177 131.5 285t361.5 109h6h2q225 -1 354.5 -109t128.5 -285q0 -65 -28.5 -121.5t-68.5 -91t-80.5 -59t-68.5 -34.5zM266 1105q-13 -84 35.5 -165t150.5 -126q83 -39 212 -39q137 6 204 39q102 46 151.5 128
t32.5 163q-24 115 -123.5 192t-270.5 77q-172 -2 -274 -79.5t-118 -189.5zM666 58q199 1 318 90t109 234q-7 72 -61.5 150.5t-139.5 115.5q-96 40 -223 38q-51 1 -117 -11t-117 -33q-88 -36 -141 -112t-59 -148q-10 -145 108 -233.5t323 -90.5z" />
    <glyph glyph-name="nine" unicode="9" horiz-adv-x="1341" 
d="M144 850q-9 54 -9 92v4q0 115 34 207l2 2q0 1 2 5q0 3 1 5q1 4 4 8q0 2 1 3.5t1 3.5l2 4l6 12l1 1l6 12v1q0 1 1.5 2.5t2.5 3.5l3 6q0 1 1.5 2.5t2.5 3.5q21 36 58 71t91.5 69t132 55t164.5 20q106 -1 189.5 -23t153 -73.5t115.5 -133t71 -203.5t25 -283
q0 -750 -550 -750q-72 0 -134 15t-103 39t-74 52.5t-51.5 57.5t-30.5 53t-16 39l-4 15l96 24q1 -5 3 -12.5t12.5 -30.5t24 -43.5t40 -46t59 -44t81.5 -31.5t107 -13q163 -1 272 105.5t146 275.5q24 105 34 243q2 28 -5 112q-6 -54 -49 -121q-19 -29 -35 -50t-53 -55.5
t-77 -57t-104 -40.5t-138 -21h-24q-116 -4 -231 50q-31 14 -59 33q-81 53 -146 163q-35 59 -53 162zM652 1358q-208 -10 -312 -120.5t-104 -290.5q0 -177 114.5 -297t301.5 -120q172 0 294.5 122t122.5 295q0 88 -26 163.5t-75.5 133t-131 88.5t-184.5 26z" />
    <glyph glyph-name="colon" unicode=":" 
d="M227 -4h-92v199h92v-199zM227 832h-92v199h92v-199z" />
    <glyph glyph-name="semicolon" unicode=";" horiz-adv-x="385" 
d="M250 838h-91v199h91v-199zM159 1v199h91v-199l-28 -198h-87z" />
    <glyph glyph-name="less" unicode="&#x3c;" horiz-adv-x="1308" 
d="M1171 895l-932 -346v-9l932 -344v-104l-1036 397v117l1036 395v-106z" />
    <glyph glyph-name="equal" unicode="=" horiz-adv-x="966" 
d="M830 687h-695v86h695v-86zM830 331h-695v86h695v-86z" />
    <glyph glyph-name="greater" unicode="&#x3e;" horiz-adv-x="1308" 
d="M135 1007l1036 -394v-117l-1036 -398v104l933 344v9l-933 346v106z" />
    <glyph glyph-name="question" unicode="?" horiz-adv-x="1140" 
d="M571 194h95v-194h-95v194zM907 1336q45 -42 71.5 -111t28.5 -146.5t-35 -158t-113 -137.5q-11 -8 -40 -28.5t-41.5 -31t-35 -33t-33 -46.5t-23 -60t-17.5 -84.5t-4 -108.5h-94q-1 92 13.5 165t37 117t54.5 80t59.5 54.5t59.5 41t47 38.5q57 61 66 147t-18 156.5
t-70 109.5q-49 44 -123 63.5t-151.5 13t-151.5 -48.5t-119 -116q-16 -25 -27.5 -60.5t-15.5 -57.5l-3 -23l-94 13q14 102 64.5 179.5t120 119.5t153 60.5t163.5 10.5t152 -38.5t119 -79.5z" />
    <glyph glyph-name="at" unicode="@" horiz-adv-x="2017" 
d="M1521 1326q105 -76 181 -182t116 -222t55.5 -244t6 -249.5t-40.5 -237.5q-19 -71 -63.5 -122t-99.5 -74.5t-115.5 -23t-111.5 24.5t-87 77.5t-43 127.5q-5 -13 -13 -27q-31 -59 -64 -90q-126 -113 -270 -113q-40 0 -79.5 6t-86 22t-87.5 41.5t-80 68t-66.5 97
t-44.5 132.5t-17 172q0 127 29.5 225.5t76.5 157.5t110.5 96t125.5 49t128 8q161 -11 267 -117q39 -39 55 -72l16 -44v211h97l1 -663q0 -155 20 -207q18 -46 53.5 -67t73 -18t69.5 16t50 30q51 50 72.5 123.5t27.5 184.5q5 63 2 139.5t-13.5 149.5t-40 158t-77.5 166
q-211 359 -653 359q-238 0 -415 -116.5t-269 -333.5t-81 -504q8 -220 92 -392.5t221 -274.5q99 -74 238.5 -99.5t271.5 -3t227 82.5l42 -85q-6 -4 -18.5 -10.5t-53 -23t-84.5 -29.5t-111.5 -23.5t-135.5 -10.5q-122 0 -228.5 29.5t-203 92.5t-173 170.5t-124.5 253.5
q-25 76 -41 166t-19 196.5t9 212.5t48.5 214t93.5 200.5t150 172t212 129.5q128 53 276.5 67t309 -22.5t286.5 -127.5zM976 53q42 0 86.5 13t93 46.5t86 83.5t62 132t24.5 184q0 109 -31 198.5t-81.5 144t-108.5 85t-118 33.5q-165 10 -268 -112t-103 -349q0 -457 358 -459z
" />
    <glyph glyph-name="A" unicode="A" horiz-adv-x="1392" 
d="M747 1428l586 -1426l-104 -1l-181 450h-710l-180 -450l-99 1l586 1426h102zM372 536h641l-317 805z" />
    <glyph glyph-name="A" unicode="&#xc5;" horiz-adv-x="1392" 
d="M747 1428l586 -1426l-104 -1l-181 450h-710l-180 -450l-99 1l586 1426h102zM372 536h641l-317 805z" />
    <glyph glyph-name="A" unicode="&#xc4;" horiz-adv-x="1392" 
d="M747 1428l586 -1426l-104 -1l-181 450h-710l-180 -450l-99 1l586 1426h102zM372 536h641l-317 805z" />
    <glyph glyph-name="A" unicode="&#xc3;" horiz-adv-x="1392" 
d="M747 1428l586 -1426l-104 -1l-181 450h-710l-180 -450l-99 1l586 1426h102zM372 536h641l-317 805z" />
    <glyph glyph-name="A" unicode="&#xc2;" horiz-adv-x="1392" 
d="M747 1428l586 -1426l-104 -1l-181 450h-710l-180 -450l-99 1l586 1426h102zM372 536h641l-317 805z" />
    <glyph glyph-name="A" unicode="&#xc1;" horiz-adv-x="1392" 
d="M747 1428l586 -1426l-104 -1l-181 450h-710l-180 -450l-99 1l586 1426h102zM372 536h641l-317 805z" />
    <glyph glyph-name="A" unicode="&#xc0;" horiz-adv-x="1392" 
d="M747 1428l586 -1426l-104 -1l-181 450h-710l-180 -450l-99 1l586 1426h102zM372 536h641l-317 805z" />
    <glyph glyph-name="B" unicode="B" horiz-adv-x="1306" 
d="M878 763q7 -1 19.5 -4t48.5 -16t68.5 -30.5t72.5 -50.5t68 -73t46.5 -100.5t16.5 -131.5q-1 -56 -20.5 -110.5t-57.5 -103.5t-103 -84t-148 -47q-90 -12 -272 -12h-347h-135v1427h423q199 0 289 -25q115 -32 185 -111t70 -217q0 -69 -23 -126t-56 -90t-66 -55.5
t-56 -30.5zM229 1348v-551h161h84q35 -1 123.5 1t98.5 2q153 0 237.5 72.5t84.5 206.5q0 43 -8.5 78t-37 74.5t-76.5 65.5t-134 41.5t-202 12.5zM613 80q123 -3 213 9.5t147.5 38t91.5 66.5t47.5 89.5t13.5 113.5q0 43 -11.5 84.5t-41.5 84.5t-75.5 75t-120.5 52t-169 20
l-330 -2l-149 -1v-630h302h82z" />
    <glyph glyph-name="C" unicode="C" horiz-adv-x="1368" 
d="M718 51q84 0 155.5 16t119 41.5t85 56.5t59 62t35.5 56.5t18 41.5l5 16l95 -25q-2 -7 -5.5 -19.5t-21 -48t-41 -68t-68.5 -72.5t-100.5 -68.5t-140.5 -48t-184 -19.5q-299 0 -475.5 197t-176.5 558q0 171 49 307.5t136 225t204.5 135t257.5 46.5q98 0 182 -20t139 -52
t98.5 -70.5t68 -77.5t40 -71t20.5 -52l5 -20l-91 -14q-1 6 -4 17t-17.5 42.5t-34.5 60.5t-58 64t-84.5 60t-118 42.5t-155.5 17.5q-111 0 -206.5 -39.5t-170 -116.5t-117.5 -202t-43 -285q0 -138 30 -252t80.5 -191t120.5 -130t147.5 -77t162.5 -24z" />
    <glyph glyph-name="C" unicode="&#xc7;" horiz-adv-x="1368" 
d="M718 51q84 0 155.5 16t119 41.5t85 56.5t59 62t35.5 56.5t18 41.5l5 16l95 -25q-2 -7 -5.5 -19.5t-21 -48t-41 -68t-68.5 -72.5t-100.5 -68.5t-140.5 -48t-184 -19.5q-299 0 -475.5 197t-176.5 558q0 171 49 307.5t136 225t204.5 135t257.5 46.5q98 0 182 -20t139 -52
t98.5 -70.5t68 -77.5t40 -71t20.5 -52l5 -20l-91 -14q-1 6 -4 17t-17.5 42.5t-34.5 60.5t-58 64t-84.5 60t-118 42.5t-155.5 17.5q-111 0 -206.5 -39.5t-170 -116.5t-117.5 -202t-43 -285q0 -138 30 -252t80.5 -191t120.5 -130t147.5 -77t162.5 -24z" />
    <glyph glyph-name="D" unicode="D" horiz-adv-x="1413" 
d="M583 1426q82 0 153.5 -7.5t150 -28t141.5 -54.5t122 -90.5t98.5 -131t63 -181t23.5 -236.5q0 -159 -38.5 -280t-106 -199.5t-168 -128t-216 -69.5t-259.5 -20h-412v1425q380 1 448 1zM511 91q66 0 119.5 2.5t116 10.5t112 22t102 38t91.5 56.5t75 80t58.5 107t36 138
t13.5 172.5q0 149 -37.5 262t-98.5 181t-149.5 110.5t-178.5 58t-198 15.5h-346l-1 -621v-12l1 -621h284z" />
    <glyph glyph-name="E" unicode="E" horiz-adv-x="1204" 
d="M1069 1342l-841 -2v-553l771 1l-2 -84l-770 -1l1 -614h841v-89l-762 1l-172 -1v1427h934v-85z" />
    <glyph glyph-name="E" unicode="&#xcb;" horiz-adv-x="1204" 
d="M1069 1342l-841 -2v-553l771 1l-2 -84l-770 -1l1 -614h841v-89l-762 1l-172 -1v1427h934v-85z" />
    <glyph glyph-name="E" unicode="&#xca;" horiz-adv-x="1204" 
d="M1069 1342l-841 -2v-553l771 1l-2 -84l-770 -1l1 -614h841v-89l-762 1l-172 -1v1427h934v-85z" />
    <glyph glyph-name="E" unicode="&#xc9;" horiz-adv-x="1204" 
d="M1069 1342l-841 -2v-553l771 1l-2 -84l-770 -1l1 -614h841v-89l-762 1l-172 -1v1427h934v-85z" />
    <glyph glyph-name="E" unicode="&#xc8;" horiz-adv-x="1204" 
d="M1069 1342l-841 -2v-553l771 1l-2 -84l-770 -1l1 -614h841v-89l-762 1l-172 -1v1427h934v-85z" />
    <glyph glyph-name="F" unicode="F" horiz-adv-x="1204" 
d="M228 0h-93v1427h934v-85l-841 -2v-553l771 1l-2 -84l-770 -1z" />
    <glyph glyph-name="G" unicode="G" horiz-adv-x="1380" 
d="M1280 711l2 -713h-72l-13 156l-3 76q-1 -1 -15.5 -32t-22.5 -42q-135 -183 -427 -183q-299 0 -475 196.5t-176 558.5q0 171 48.5 307.5t135.5 225t204.5 135t257.5 46.5q86 0 161 -19t126.5 -50t93.5 -68.5t67 -75t42 -68.5t24 -51l6 -19l-85 -29q-2 6 -5.5 17.5
t-18.5 43.5t-35.5 61t-57.5 65t-82 61.5t-112 43t-145 17.5q-228 0 -374 -174t-146 -472q0 -173 42.5 -304t118 -209t170.5 -116.5t207 -38.5q84 0 155 17.5t117.5 45.5t83 62t57 68.5t33.5 62.5t17 45l4 18l-3 253l-402 1v81h497z" />
    <glyph glyph-name="H" unicode="H" horiz-adv-x="1372" 
d="M1141 1426h96v-1426h-94l-1 169v532l-456 1l-450 -1v-532l-1 -169h-100v1426h102v-630h904v630z" />
    <glyph glyph-name="I" unicode="I" horiz-adv-x="366" 
d="M232 0h-97v1427h97v-1427z" />
    <glyph glyph-name="I" unicode="&#xcf;" horiz-adv-x="366" 
d="M232 0h-97v1427h97v-1427z" />
    <glyph glyph-name="I" unicode="&#xce;" horiz-adv-x="366" 
d="M232 0h-97v1427h97v-1427z" />
    <glyph glyph-name="I" unicode="&#xcd;" horiz-adv-x="366" 
d="M232 0h-97v1427h97v-1427z" />
    <glyph glyph-name="I" unicode="&#xcc;" horiz-adv-x="366" 
d="M232 0h-97v1427h97v-1427z" />
    <glyph glyph-name="J" unicode="J" horiz-adv-x="956" 
d="M437 -23q-83 1 -150 25t-104.5 58.5t-62.5 68.5t-34 58l-8 24l101 37q1 -7 4.5 -19.5t20.5 -44.5t42.5 -56.5t76.5 -44.5t117 -21q76 -1 129.5 21.5t83 57t46 90t20.5 105.5t3 120l1 978h98v-1015q0 -80 -8.5 -141t-33.5 -120t-66.5 -97t-111 -61.5t-164.5 -22.5z" />
    <glyph glyph-name="K" unicode="K" horiz-adv-x="1034" 
d="M997 1427l-685 -714l685 -713h-136l-631 675v-675h-95v1426h95v-680l640 681h127z" />
    <glyph glyph-name="L" unicode="L" horiz-adv-x="1148" 
d="M233 86l836 -1v-85h-934v1426l93 1z" />
    <glyph glyph-name="M" unicode="M" horiz-adv-x="1648" 
d="M1432 1428l116 -1428h-95l-93 1258l-506 -1257h-62l-536 1248l-66 -1249h-92l87 1428h92l544 -1264l505 1264h106z" />
    <glyph glyph-name="N" unicode="N" horiz-adv-x="1370" 
d="M1234 1430v-117v-510v-117v-569v-73v-44l-95 1l-3 4l-912 1258l-2 -1263l-87 1v1426h76l2 -2l934 -1282l-4 1287h91z" />
    <glyph glyph-name="N" unicode="&#xd1;" horiz-adv-x="1370" 
d="M1234 1430v-117v-510v-117v-569v-73v-44l-95 1l-3 4l-912 1258l-2 -1263l-87 1v1426h76l2 -2l934 -1282l-4 1287h91z" />
    <glyph glyph-name="O" unicode="O" horiz-adv-x="1566" 
d="M783 1438q218 0 378.5 -93.5t243.5 -258.5t83 -381q0 -332 -194 -533t-511 -201q-331 0 -518.5 188t-187.5 546q0 143 36 263t100 206t153 146t194 89t223 29zM783 45q123 0 232 44t191 125.5t130 206.5t48 278q0 151 -48 278t-130 212t-191 132t-232 47q-124 0 -233 -44
t-192 -126t-131.5 -210t-48.5 -287q0 -163 45.5 -289.5t127 -206t191 -120t241.5 -40.5z" />
    <glyph glyph-name="O" unicode="&#xd8;" horiz-adv-x="1566" 
d="M783 1438q218 0 378.5 -93.5t243.5 -258.5t83 -381q0 -332 -194 -533t-511 -201q-331 0 -518.5 188t-187.5 546q0 143 36 263t100 206t153 146t194 89t223 29zM783 45q123 0 232 44t191 125.5t130 206.5t48 278q0 151 -48 278t-130 212t-191 132t-232 47q-124 0 -233 -44
t-192 -126t-131.5 -210t-48.5 -287q0 -163 45.5 -289.5t127 -206t191 -120t241.5 -40.5z" />
    <glyph glyph-name="O" unicode="&#xd6;" horiz-adv-x="1566" 
d="M783 1438q218 0 378.5 -93.5t243.5 -258.5t83 -381q0 -332 -194 -533t-511 -201q-331 0 -518.5 188t-187.5 546q0 143 36 263t100 206t153 146t194 89t223 29zM783 45q123 0 232 44t191 125.5t130 206.5t48 278q0 151 -48 278t-130 212t-191 132t-232 47q-124 0 -233 -44
t-192 -126t-131.5 -210t-48.5 -287q0 -163 45.5 -289.5t127 -206t191 -120t241.5 -40.5z" />
    <glyph glyph-name="O" unicode="&#xd5;" horiz-adv-x="1566" 
d="M783 1438q218 0 378.5 -93.5t243.5 -258.5t83 -381q0 -332 -194 -533t-511 -201q-331 0 -518.5 188t-187.5 546q0 143 36 263t100 206t153 146t194 89t223 29zM783 45q123 0 232 44t191 125.5t130 206.5t48 278q0 151 -48 278t-130 212t-191 132t-232 47q-124 0 -233 -44
t-192 -126t-131.5 -210t-48.5 -287q0 -163 45.5 -289.5t127 -206t191 -120t241.5 -40.5z" />
    <glyph glyph-name="O" unicode="&#xd4;" horiz-adv-x="1566" 
d="M783 1438q218 0 378.5 -93.5t243.5 -258.5t83 -381q0 -332 -194 -533t-511 -201q-331 0 -518.5 188t-187.5 546q0 143 36 263t100 206t153 146t194 89t223 29zM783 45q123 0 232 44t191 125.5t130 206.5t48 278q0 151 -48 278t-130 212t-191 132t-232 47q-124 0 -233 -44
t-192 -126t-131.5 -210t-48.5 -287q0 -163 45.5 -289.5t127 -206t191 -120t241.5 -40.5z" />
    <glyph glyph-name="O" unicode="&#xd3;" horiz-adv-x="1566" 
d="M783 1438q218 0 378.5 -93.5t243.5 -258.5t83 -381q0 -332 -194 -533t-511 -201q-331 0 -518.5 188t-187.5 546q0 143 36 263t100 206t153 146t194 89t223 29zM783 45q123 0 232 44t191 125.5t130 206.5t48 278q0 151 -48 278t-130 212t-191 132t-232 47q-124 0 -233 -44
t-192 -126t-131.5 -210t-48.5 -287q0 -163 45.5 -289.5t127 -206t191 -120t241.5 -40.5z" />
    <glyph glyph-name="O" unicode="&#xd2;" horiz-adv-x="1566" 
d="M783 1438q218 0 378.5 -93.5t243.5 -258.5t83 -381q0 -332 -194 -533t-511 -201q-331 0 -518.5 188t-187.5 546q0 143 36 263t100 206t153 146t194 89t223 29zM783 45q123 0 232 44t191 125.5t130 206.5t48 278q0 151 -48 278t-130 212t-191 132t-232 47q-124 0 -233 -44
t-192 -126t-131.5 -210t-48.5 -287q0 -163 45.5 -289.5t127 -206t191 -120t241.5 -40.5z" />
    <glyph glyph-name="P" unicode="P" horiz-adv-x="1241" 
d="M1173 998q0 -100 -24.5 -171t-81.5 -128q-28 -28 -58 -49h-1q-69 -46 -144.5 -66t-216.5 -22h-246h-23h-144v-562l-99 1v1425h523q117 2 208.5 -23t148 -66.5t93.5 -99.5t51 -116.5t14 -122.5zM685 650q387 0 387 347q0 72 -24.5 134.5t-71.5 111t-123.5 76t-174.5 27.5
l-444 -1v-692h19z" />
    <glyph glyph-name="Q" unicode="Q" horiz-adv-x="1554" 
d="M1475 726q0 -222 -92 -389.5t-255 -254.5l347 26v-108h-681v1q-5 -1 -17 -1q-327 0 -513 186t-186 540q0 176 54.5 316t150 228.5t221.5 135t273 46.5q216 0 375 -92.5t241 -256t82 -377.5zM777 71q122 0 230 44.5t190 125.5t129.5 206t47.5 276q0 150 -48 275.5
t-129.5 209t-190 129.5t-230.5 46q-123 0 -230 -43t-189 -123.5t-129.5 -207t-47.5 -283.5q0 -161 45 -287t125.5 -206t188.5 -121t238 -41z" />
    <glyph glyph-name="R" unicode="R" horiz-adv-x="1308" 
d="M1073 319q22 -64 58.5 -144t62.5 -127l26 -48h-120q-60 120 -126 323q-95 290 -410 295l-160 2h-171l-2 -620l-96 1v1425h489q242 5 352 -64q159 -98 159 -334q0 -161 -85 -259.5t-243 -118.5q171 -49 266 -331zM253 707l375 3q75 0 131 7t109.5 27.5t87 55t54 92
t20.5 136.5q0 172 -89 245t-297 72h-413l2 -638h20z" />
    <glyph glyph-name="S" unicode="S" horiz-adv-x="1214" 
d="M793 738q316 -80 331 -351q4 -79 -22 -146.5t-73.5 -114.5t-113 -81t-139 -49.5t-152 -16t-151 14.5t-137.5 46.5t-111 76.5q-55 53 -91.5 116t-45.5 113l102 10q2 -10 7.5 -26.5t28.5 -61t54.5 -80t89 -69.5t128.5 -44q125 -18 218.5 -3t157.5 51.5t100 89t45.5 109.5
t-5.5 114t-53 101q-22 26 -55.5 47.5t-64 35t-77 26t-71.5 17.5t-73 13.5t-58 10.5q-17 3 -68.5 12.5t-66 13t-51 12.5t-54 17t-42.5 21.5t-47 30.5q-75 59 -104 142.5t-14.5 163t61.5 151.5t116 113q72 43 167.5 66t198.5 16.5t194.5 -41.5t161 -115.5t92.5 -197.5l-93 -9
q-5 70 -59 150q-39 57 -119.5 95t-188.5 44.5t-229 -35.5q-96 -34 -153.5 -113t-56 -172t67.5 -163q44 -47 122 -71.5t207.5 -44.5t188.5 -35z" />
    <glyph glyph-name="T" unicode="T" horiz-adv-x="1132" 
d="M47 1421h1034v-82l-471 2v-1343l-97 -2v1343h-466v82z" />
    <glyph glyph-name="U" unicode="U" horiz-adv-x="1335" 
d="M1023 69q-29 -20 -63 -35.5t-65 -25t-66.5 -15.5t-63 -8.5t-58 -3t-48 0t-37 1.5t-21.5 1q-75 2 -150 25.5t-146.5 69.5t-124 127.5t-69.5 186.5q-14 85 -18 274l-5 762h98l5 -605v-29v-19v-45q0 -191 17 -311t71 -189q56 -72 154 -118.5t225 -46.5q376 0 465 292
q23 77 23 210l6 860l95 1l-8 -862q0 -84 -6.5 -141.5t-27 -125t-66 -124.5t-116.5 -107z" />
    <glyph glyph-name="U" unicode="&#xdc;" horiz-adv-x="1335" 
d="M1023 69q-29 -20 -63 -35.5t-65 -25t-66.5 -15.5t-63 -8.5t-58 -3t-48 0t-37 1.5t-21.5 1q-75 2 -150 25.5t-146.5 69.5t-124 127.5t-69.5 186.5q-14 85 -18 274l-5 762h98l5 -605v-29v-19v-45q0 -191 17 -311t71 -189q56 -72 154 -118.5t225 -46.5q376 0 465 292
q23 77 23 210l6 860l95 1l-8 -862q0 -84 -6.5 -141.5t-27 -125t-66 -124.5t-116.5 -107z" />
    <glyph glyph-name="U" unicode="&#xdb;" horiz-adv-x="1335" 
d="M1023 69q-29 -20 -63 -35.5t-65 -25t-66.5 -15.5t-63 -8.5t-58 -3t-48 0t-37 1.5t-21.5 1q-75 2 -150 25.5t-146.5 69.5t-124 127.5t-69.5 186.5q-14 85 -18 274l-5 762h98l5 -605v-29v-19v-45q0 -191 17 -311t71 -189q56 -72 154 -118.5t225 -46.5q376 0 465 292
q23 77 23 210l6 860l95 1l-8 -862q0 -84 -6.5 -141.5t-27 -125t-66 -124.5t-116.5 -107z" />
    <glyph glyph-name="U" unicode="&#xda;" horiz-adv-x="1335" 
d="M1023 69q-29 -20 -63 -35.5t-65 -25t-66.5 -15.5t-63 -8.5t-58 -3t-48 0t-37 1.5t-21.5 1q-75 2 -150 25.5t-146.5 69.5t-124 127.5t-69.5 186.5q-14 85 -18 274l-5 762h98l5 -605v-29v-19v-45q0 -191 17 -311t71 -189q56 -72 154 -118.5t225 -46.5q376 0 465 292
q23 77 23 210l6 860l95 1l-8 -862q0 -84 -6.5 -141.5t-27 -125t-66 -124.5t-116.5 -107z" />
    <glyph glyph-name="U" unicode="&#xd9;" horiz-adv-x="1335" 
d="M1023 69q-29 -20 -63 -35.5t-65 -25t-66.5 -15.5t-63 -8.5t-58 -3t-48 0t-37 1.5t-21.5 1q-75 2 -150 25.5t-146.5 69.5t-124 127.5t-69.5 186.5q-14 85 -18 274l-5 762h98l5 -605v-29v-19v-45q0 -191 17 -311t71 -189q56 -72 154 -118.5t225 -46.5q376 0 465 292
q23 77 23 210l6 860l95 1l-8 -862q0 -84 -6.5 -141.5t-27 -125t-66 -124.5t-116.5 -107z" />
    <glyph glyph-name="V" unicode="V" horiz-adv-x="1347" 
d="M623 0l-586 1426l104 1l533 -1322l537 1322l100 -1l-586 -1426h-102z" />
    <glyph glyph-name="W" unicode="W" horiz-adv-x="1882" 
d="M1745 1427l100 -1l-436 -1426h-86l-355 1176l-27 135l-28 -135l-356 -1176h-84l-437 1426l97 1l349 -1155l33 -134l33 133l341 1156h103l342 -1153l32 -134l33 135z" />
    <glyph glyph-name="X" unicode="X" horiz-adv-x="1327" 
d="M1249 1426l-533 -708l533 -718h-124l-463 643l-460 -643h-124l532 717l-532 709l130 1l455 -631l457 631z" />
    <glyph glyph-name="Y" unicode="Y" horiz-adv-x="1429" 
d="M1233 1424h119l-589 -814v-610h-97v610l-588 814h116l521 -717z" />
    <glyph glyph-name="Y" unicode="&#xdd;" horiz-adv-x="1429" 
d="M1233 1424h119l-589 -814v-610h-97v610l-588 814h116l521 -717z" />
    <glyph glyph-name="Z" unicode="Z" horiz-adv-x="1306" 
d="M88 1342v85h1098v-65l-968 -1279l1000 1v-84h-1130v71l965 1274z" />
    <glyph glyph-name="bracketleft" unicode="[" horiz-adv-x="499" 
d="M364 1295h-134v-1662h134v-82h-229v1822h229v-78z" />
    <glyph glyph-name="backslash" unicode="\" horiz-adv-x="788" 
d="M232 1448l420 -1493h-96l-421 1493h97z" />
    <glyph glyph-name="bracketright" unicode="]" horiz-adv-x="499" 
d="M135 1425h229v-1822h-229v82h134v1662h-134v78z" />
    <glyph glyph-name="underscore" unicode="_" horiz-adv-x="1292" 
d="M135 -9h1021v-100h-1021v100z" />
    <glyph glyph-name="a" unicode="a" horiz-adv-x="1107" 
d="M957 210l41 -210h-107l-29 173q-2 -4 -7 -11t-22.5 -27.5t-38 -39t-55 -41t-72 -39t-90 -27.5t-109.5 -11q-207 0 -315 119q-84 92 -74 213q9 120 105 196q76 60 188 73q33 4 103 9t92 7q161 16 224 31.5t70 51.5q1 7 1.5 18.5t-2.5 44t-11.5 62t-30.5 63.5t-54 56
q-43 29 -111.5 43.5t-141.5 11.5t-141 -35.5t-104 -90.5q-20 -32 -30 -80l-100 27q15 54 42 95q42 64 112.5 102.5t147 49t153.5 5t139 -25.5t98 -47q77 -59 102 -139t27 -192v-435zM866 371l1 197q-59 -27 -137 -40.5t-148 -17.5t-139.5 -11t-129.5 -27.5t-98 -58.5
q-56 -60 -40 -151.5t80 -136.5q58 -41 138 -54.5t159.5 3.5t149 54.5t115 101.5t49.5 141z" />
    <glyph glyph-name="a" unicode="&#xe5;" horiz-adv-x="1107" 
d="M957 210l41 -210h-107l-29 173q-2 -4 -7 -11t-22.5 -27.5t-38 -39t-55 -41t-72 -39t-90 -27.5t-109.5 -11q-207 0 -315 119q-84 92 -74 213q9 120 105 196q76 60 188 73q33 4 103 9t92 7q161 16 224 31.5t70 51.5q1 7 1.5 18.5t-2.5 44t-11.5 62t-30.5 63.5t-54 56
q-43 29 -111.5 43.5t-141.5 11.5t-141 -35.5t-104 -90.5q-20 -32 -30 -80l-100 27q15 54 42 95q42 64 112.5 102.5t147 49t153.5 5t139 -25.5t98 -47q77 -59 102 -139t27 -192v-435zM866 371l1 197q-59 -27 -137 -40.5t-148 -17.5t-139.5 -11t-129.5 -27.5t-98 -58.5
q-56 -60 -40 -151.5t80 -136.5q58 -41 138 -54.5t159.5 3.5t149 54.5t115 101.5t49.5 141z" />
    <glyph glyph-name="a" unicode="&#xe4;" horiz-adv-x="1107" 
d="M957 210l41 -210h-107l-29 173q-2 -4 -7 -11t-22.5 -27.5t-38 -39t-55 -41t-72 -39t-90 -27.5t-109.5 -11q-207 0 -315 119q-84 92 -74 213q9 120 105 196q76 60 188 73q33 4 103 9t92 7q161 16 224 31.5t70 51.5q1 7 1.5 18.5t-2.5 44t-11.5 62t-30.5 63.5t-54 56
q-43 29 -111.5 43.5t-141.5 11.5t-141 -35.5t-104 -90.5q-20 -32 -30 -80l-100 27q15 54 42 95q42 64 112.5 102.5t147 49t153.5 5t139 -25.5t98 -47q77 -59 102 -139t27 -192v-435zM866 371l1 197q-59 -27 -137 -40.5t-148 -17.5t-139.5 -11t-129.5 -27.5t-98 -58.5
q-56 -60 -40 -151.5t80 -136.5q58 -41 138 -54.5t159.5 3.5t149 54.5t115 101.5t49.5 141z" />
    <glyph glyph-name="a" unicode="&#xe3;" horiz-adv-x="1107" 
d="M957 210l41 -210h-107l-29 173q-2 -4 -7 -11t-22.5 -27.5t-38 -39t-55 -41t-72 -39t-90 -27.5t-109.5 -11q-207 0 -315 119q-84 92 -74 213q9 120 105 196q76 60 188 73q33 4 103 9t92 7q161 16 224 31.5t70 51.5q1 7 1.5 18.5t-2.5 44t-11.5 62t-30.5 63.5t-54 56
q-43 29 -111.5 43.5t-141.5 11.5t-141 -35.5t-104 -90.5q-20 -32 -30 -80l-100 27q15 54 42 95q42 64 112.5 102.5t147 49t153.5 5t139 -25.5t98 -47q77 -59 102 -139t27 -192v-435zM866 371l1 197q-59 -27 -137 -40.5t-148 -17.5t-139.5 -11t-129.5 -27.5t-98 -58.5
q-56 -60 -40 -151.5t80 -136.5q58 -41 138 -54.5t159.5 3.5t149 54.5t115 101.5t49.5 141z" />
    <glyph glyph-name="a" unicode="&#xe2;" horiz-adv-x="1107" 
d="M957 210l41 -210h-107l-29 173q-2 -4 -7 -11t-22.5 -27.5t-38 -39t-55 -41t-72 -39t-90 -27.5t-109.5 -11q-207 0 -315 119q-84 92 -74 213q9 120 105 196q76 60 188 73q33 4 103 9t92 7q161 16 224 31.5t70 51.5q1 7 1.5 18.5t-2.5 44t-11.5 62t-30.5 63.5t-54 56
q-43 29 -111.5 43.5t-141.5 11.5t-141 -35.5t-104 -90.5q-20 -32 -30 -80l-100 27q15 54 42 95q42 64 112.5 102.5t147 49t153.5 5t139 -25.5t98 -47q77 -59 102 -139t27 -192v-435zM866 371l1 197q-59 -27 -137 -40.5t-148 -17.5t-139.5 -11t-129.5 -27.5t-98 -58.5
q-56 -60 -40 -151.5t80 -136.5q58 -41 138 -54.5t159.5 3.5t149 54.5t115 101.5t49.5 141z" />
    <glyph glyph-name="a" unicode="&#xe1;" horiz-adv-x="1107" 
d="M957 210l41 -210h-107l-29 173q-2 -4 -7 -11t-22.5 -27.5t-38 -39t-55 -41t-72 -39t-90 -27.5t-109.5 -11q-207 0 -315 119q-84 92 -74 213q9 120 105 196q76 60 188 73q33 4 103 9t92 7q161 16 224 31.5t70 51.5q1 7 1.5 18.5t-2.5 44t-11.5 62t-30.5 63.5t-54 56
q-43 29 -111.5 43.5t-141.5 11.5t-141 -35.5t-104 -90.5q-20 -32 -30 -80l-100 27q15 54 42 95q42 64 112.5 102.5t147 49t153.5 5t139 -25.5t98 -47q77 -59 102 -139t27 -192v-435zM866 371l1 197q-59 -27 -137 -40.5t-148 -17.5t-139.5 -11t-129.5 -27.5t-98 -58.5
q-56 -60 -40 -151.5t80 -136.5q58 -41 138 -54.5t159.5 3.5t149 54.5t115 101.5t49.5 141z" />
    <glyph glyph-name="a" unicode="&#xe0;" horiz-adv-x="1107" 
d="M957 210l41 -210h-107l-29 173q-2 -4 -7 -11t-22.5 -27.5t-38 -39t-55 -41t-72 -39t-90 -27.5t-109.5 -11q-207 0 -315 119q-84 92 -74 213q9 120 105 196q76 60 188 73q33 4 103 9t92 7q161 16 224 31.5t70 51.5q1 7 1.5 18.5t-2.5 44t-11.5 62t-30.5 63.5t-54 56
q-43 29 -111.5 43.5t-141.5 11.5t-141 -35.5t-104 -90.5q-20 -32 -30 -80l-100 27q15 54 42 95q42 64 112.5 102.5t147 49t153.5 5t139 -25.5t98 -47q77 -59 102 -139t27 -192v-435zM866 371l1 197q-59 -27 -137 -40.5t-148 -17.5t-139.5 -11t-129.5 -27.5t-98 -58.5
q-56 -60 -40 -151.5t80 -136.5q58 -41 138 -54.5t159.5 3.5t149 54.5t115 101.5t49.5 141z" />
    <glyph glyph-name="b" unicode="b" horiz-adv-x="1118" 
d="M570 1058q66 4 128.5 -8t126 -48.5t110.5 -96t76.5 -158t29.5 -225.5q0 -93 -17 -171.5t-44.5 -133t-66.5 -96.5t-80 -67.5t-88 -41.5t-86.5 -22t-79.5 -6q-148 0 -269 113q-36 34 -65 89l-12 28v-213h-98v1427h98v-602q9 29 16 44q15 31 55 71q107 107 266 117zM575 66
q175 0 267.5 119.5t92.5 352.5q0 226 -102.5 341t-269.5 106q-60 -4 -118 -34t-109 -84.5t-82 -143.5t-31 -198q0 -102 24.5 -184t62 -132t86 -83.5t93 -46.5t86.5 -13z" />
    <glyph glyph-name="c" unicode="c" horiz-adv-x="1028" 
d="M868 260l80 -37q-55 -116 -150 -181t-250 -65q-98 0 -178 30.5t-133.5 81.5t-90 120t-52.5 144t-16 156q0 156 55 280t163 197.5t253 73.5q281 0 399 -259q-9 -4 -27.5 -11.5t-27.5 -11.5q-1 0 -4.5 -2t-10 -5t-11.5 -5q-42 104 -126.5 161.5t-193.5 57.5
q-165 0 -265.5 -132.5t-100.5 -342.5q0 -215 102.5 -334.5t264.5 -119.5q65 0 123.5 19t112.5 66.5t84 118.5z" />
    <glyph glyph-name="c" unicode="&#xe7;" horiz-adv-x="1028" 
d="M868 260l80 -37q-55 -116 -150 -181t-250 -65q-98 0 -178 30.5t-133.5 81.5t-90 120t-52.5 144t-16 156q0 156 55 280t163 197.5t253 73.5q281 0 399 -259q-9 -4 -27.5 -11.5t-27.5 -11.5q-1 0 -4.5 -2t-10 -5t-11.5 -5q-42 104 -126.5 161.5t-193.5 57.5
q-165 0 -265.5 -132.5t-100.5 -342.5q0 -215 102.5 -334.5t264.5 -119.5q65 0 123.5 19t112.5 66.5t84 118.5z" />
    <glyph glyph-name="d" unicode="d" horiz-adv-x="1120" 
d="M78 516q0 127 29.5 225.5t76.5 158t110.5 96t126 48.5t128.5 8q159 -10 266 -117q40 -40 55 -71l16 -45v603h98v-1427h-98v213q-4 -13 -12 -28q-29 -55 -65 -89q-122 -114 -269 -114q-58 0 -114.5 12t-121.5 48.5t-113.5 93.5t-80.5 156.5t-32 228.5zM184 532
q0 -233 92.5 -352.5t267.5 -119.5q42 0 86.5 13t93 46.5t86 83.5t62 132t24.5 184q0 109 -31 198t-82 143.5t-109 84.5t-118 34q-167 9 -269.5 -106t-102.5 -341z" />
    <glyph glyph-name="e" unicode="e" horiz-adv-x="1058" 
d="M875 256q12 -5 34 -16t34 -16q2 -1 6.5 -2.5t6.5 -2.5q-96 -242 -414 -242q-97 0 -176 30.5t-131.5 81.5t-88.5 120t-52 144t-16 156q0 239 125.5 395t339.5 156q242 0 359 -194q61 -101 76 -259l3 -127l-805 -2q4 -83 10 -111q33 -151 129 -230t228 -81q119 -2 203.5 49
t128.5 151zM190 671q-12 -47 -15 -111l710 2q0 26 -2 46q-12 147 -53 217q-44 75 -119 118t-170 42q-130 -2 -223.5 -86.5t-127.5 -227.5z" />
    <glyph glyph-name="e" unicode="&#xeb;" horiz-adv-x="1058" 
d="M875 256q12 -5 34 -16t34 -16q2 -1 6.5 -2.5t6.5 -2.5q-96 -242 -414 -242q-97 0 -176 30.5t-131.5 81.5t-88.5 120t-52 144t-16 156q0 239 125.5 395t339.5 156q242 0 359 -194q61 -101 76 -259l3 -127l-805 -2q4 -83 10 -111q33 -151 129 -230t228 -81q119 -2 203.5 49
t128.5 151zM190 671q-12 -47 -15 -111l710 2q0 26 -2 46q-12 147 -53 217q-44 75 -119 118t-170 42q-130 -2 -223.5 -86.5t-127.5 -227.5z" />
    <glyph glyph-name="e" unicode="&#xea;" horiz-adv-x="1058" 
d="M875 256q12 -5 34 -16t34 -16q2 -1 6.5 -2.5t6.5 -2.5q-96 -242 -414 -242q-97 0 -176 30.5t-131.5 81.5t-88.5 120t-52 144t-16 156q0 239 125.5 395t339.5 156q242 0 359 -194q61 -101 76 -259l3 -127l-805 -2q4 -83 10 -111q33 -151 129 -230t228 -81q119 -2 203.5 49
t128.5 151zM190 671q-12 -47 -15 -111l710 2q0 26 -2 46q-12 147 -53 217q-44 75 -119 118t-170 42q-130 -2 -223.5 -86.5t-127.5 -227.5z" />
    <glyph glyph-name="e" unicode="&#xe9;" horiz-adv-x="1058" 
d="M875 256q12 -5 34 -16t34 -16q2 -1 6.5 -2.5t6.5 -2.5q-96 -242 -414 -242q-97 0 -176 30.5t-131.5 81.5t-88.5 120t-52 144t-16 156q0 239 125.5 395t339.5 156q242 0 359 -194q61 -101 76 -259l3 -127l-805 -2q4 -83 10 -111q33 -151 129 -230t228 -81q119 -2 203.5 49
t128.5 151zM190 671q-12 -47 -15 -111l710 2q0 26 -2 46q-12 147 -53 217q-44 75 -119 118t-170 42q-130 -2 -223.5 -86.5t-127.5 -227.5z" />
    <glyph glyph-name="e" unicode="&#xe8;" horiz-adv-x="1058" 
d="M875 256q12 -5 34 -16t34 -16q2 -1 6.5 -2.5t6.5 -2.5q-96 -242 -414 -242q-97 0 -176 30.5t-131.5 81.5t-88.5 120t-52 144t-16 156q0 239 125.5 395t339.5 156q242 0 359 -194q61 -101 76 -259l3 -127l-805 -2q4 -83 10 -111q33 -151 129 -230t228 -81q119 -2 203.5 49
t128.5 151zM190 671q-12 -47 -15 -111l710 2q0 26 -2 46q-12 147 -53 217q-44 75 -119 118t-170 42q-130 -2 -223.5 -86.5t-127.5 -227.5z" />
    <glyph glyph-name="f" unicode="f" horiz-adv-x="696" 
d="M617 1344q-78 4 -134 -5t-88.5 -27.5t-51 -50.5t-24.5 -65.5t-6 -81.5l-1 -76l132 2l150 -1v-82l-149 1l-133 2l2 -106v-853l-93 -1v856l2 106l-145 -2v79l144 -1l-1 76v7q0 30 2 54.5t10.5 59t24 60.5t45.5 53.5t70.5 45t103 27.5t140.5 8v-85z" />
    <glyph glyph-name="g" unicode="g" horiz-adv-x="1120" 
d="M886 1028h98v-1039q0 -171 -118.5 -286t-325.5 -115q-65 0 -123.5 13t-100 34.5t-77 47t-57.5 51t-37.5 47t-22.5 34.5l-6 13l82 43q3 -8 8.5 -21t31 -47t59.5 -60t96 -47t138 -21q355 0 355 350v170q-27 -65 -80 -112q-121 -107 -267 -107q-50 0 -97.5 9t-102 30
t-99.5 61.5t-82.5 97t-58.5 144t-21 196.5q0 107 20.5 194t56.5 145t81.5 99.5t99.5 63t106.5 29.5t106.5 5q144 -8 255 -111q20 -18 40.5 -47.5t31.5 -49.5l10 -21v207zM543 58q42 0 86.5 12.5t93 46t86 84t62 133t24.5 184.5q0 109 -31 198t-81.5 143.5t-108.5 84.5
t-118 34q-167 9 -269.5 -106.5t-102.5 -341.5q0 -234 92 -353t267 -119z" />
    <glyph glyph-name="h" unicode="h" horiz-adv-x="1124" 
d="M1010 740q4 -31 7.5 -94t4.5 -111l2 -48v-486h-97v374v35v34l-3 151q1 172 -57 261t-183 102q-25 3 -48 3q-12 0 -46 -2q-96 -6 -178.5 -59t-129 -130t-48.5 -157l-1 -613l-97 1l-1 1426h97v-613q5 10 15.5 26.5t47.5 58t80 73t113.5 57t148.5 24.5q63 -1 120.5 -17.5
t111 -51t91.5 -97t50 -147.5z" />
    <glyph glyph-name="i" unicode="i" horiz-adv-x="368" 
d="M135 1v1034h98l-2 -1034h-96zM233 1250h-97v178h97v-178z" />
    <glyph glyph-name="i" unicode="&#xef;" horiz-adv-x="368" 
d="M135 1v1034h98l-2 -1034h-96zM233 1250h-97v178h97v-178z" />
    <glyph glyph-name="i" unicode="&#xee;" horiz-adv-x="368" 
d="M135 1v1034h98l-2 -1034h-96zM233 1250h-97v178h97v-178z" />
    <glyph glyph-name="i" unicode="&#xed;" horiz-adv-x="368" 
d="M135 1v1034h98l-2 -1034h-96zM233 1250h-97v178h97v-178z" />
    <glyph glyph-name="i" unicode="&#xec;" horiz-adv-x="368" 
d="M135 1v1034h98l-2 -1034h-96zM233 1250h-97v178h97v-178z" />
    <glyph glyph-name="j" unicode="j" horiz-adv-x="368" 
d="M138 -71v1107h94q-2 -1074 -2 -1077q0 -121 -28 -177q-74 -148 -325 -160q-10 -1 -14 -1v94q66 0 108.5 7t84 28t61.5 65.5t21 113.5zM232 1248h-97v180h97v-180z" />
    <glyph glyph-name="k" unicode="k" horiz-adv-x="987" 
d="M950 1h-130l-596 538l6 -538l-95 -1v1430l95 1l-5 -830l520 438h127l-547 -467z" />
    <glyph glyph-name="l" unicode="l" horiz-adv-x="354" 
d="M227 0h-92v1426h92v-1426z" />
    <glyph glyph-name="m" unicode="m" horiz-adv-x="1773" 
d="M1662 745q4 -31 7 -94.5t4 -110.5l1 -48v-491l-99 -1v415v65l-3 120q2 345 -208 370q-24 3 -44 3q-13 1 -42 -1q-87 -6 -162.5 -61.5t-117.5 -134t-45 -158.5l-1 -507l3 -110h-103v374l-2 221q2 347 -205 370q-18 2 -44 4q-10 0 -42 -2q-129 -9 -225.5 -129t-99.5 -247
l-1 -591h-97l-1 1036l98 -1v-250q19 69 59 116q130 154 310 152q98 -2 183 -50t127 -150q6 -14 10.5 -31t6.5 -27l2 -11q24 56 39 78q22 31 49.5 60t71 62.5t104 53.5t126.5 19q57 -1 109.5 -17.5t102 -51t84 -97t45.5 -147.5z" />
    <glyph glyph-name="n" unicode="n" horiz-adv-x="1124" 
d="M1010 740q4 -31 7.5 -94t4.5 -111l2 -48v-486h-102v374v35v34l-3 151q2 339 -235 363q-25 3 -48 3q-12 0 -46 -2q-144 -9 -248.5 -115.5t-107.5 -230.5l-1 -613l-97 1l-1 1035h97v-221q3 5 8 13.5t24 34t40.5 48t57 50t74 47.5t91.5 33t110 12q63 -1 120.5 -17.5t111 -51
t91.5 -97t50 -147.5z" />
    <glyph glyph-name="n" unicode="&#xf1;" horiz-adv-x="1124" 
d="M1010 740q4 -31 7.5 -94t4.5 -111l2 -48v-486h-102v374v35v34l-3 151q2 339 -235 363q-25 3 -48 3q-12 0 -46 -2q-144 -9 -248.5 -115.5t-107.5 -230.5l-1 -613l-97 1l-1 1035h97v-221q3 5 8 13.5t24 34t40.5 48t57 50t74 47.5t91.5 33t110 12q63 -1 120.5 -17.5t111 -51
t91.5 -97t50 -147.5z" />
    <glyph glyph-name="o" unicode="o" horiz-adv-x="1163" 
d="M582 1056q123 0 220.5 -43.5t158.5 -119t92.5 -171.5t31.5 -206q0 -79 -16.5 -153.5t-55 -146t-95 -125t-143.5 -86t-194 -32.5q-105 0 -190.5 30.5t-143 81.5t-96 120t-56 144t-17.5 156q0 156 58.5 280t174.5 197.5t271 73.5zM581 49q184 0 293 124.5t109 343.5
q0 226 -108.5 347.5t-293.5 121.5q-183 0 -291.5 -129.5t-108.5 -339.5q0 -227 110.5 -347.5t289.5 -120.5z" />
    <glyph glyph-name="o" unicode="&#xf8;" horiz-adv-x="1163" 
d="M582 1056q123 0 220.5 -43.5t158.5 -119t92.5 -171.5t31.5 -206q0 -79 -16.5 -153.5t-55 -146t-95 -125t-143.5 -86t-194 -32.5q-105 0 -190.5 30.5t-143 81.5t-96 120t-56 144t-17.5 156q0 156 58.5 280t174.5 197.5t271 73.5zM581 49q184 0 293 124.5t109 343.5
q0 226 -108.5 347.5t-293.5 121.5q-183 0 -291.5 -129.5t-108.5 -339.5q0 -227 110.5 -347.5t289.5 -120.5z" />
    <glyph glyph-name="o" unicode="&#xf6;" horiz-adv-x="1163" 
d="M582 1056q123 0 220.5 -43.5t158.5 -119t92.5 -171.5t31.5 -206q0 -79 -16.5 -153.5t-55 -146t-95 -125t-143.5 -86t-194 -32.5q-105 0 -190.5 30.5t-143 81.5t-96 120t-56 144t-17.5 156q0 156 58.5 280t174.5 197.5t271 73.5zM581 49q184 0 293 124.5t109 343.5
q0 226 -108.5 347.5t-293.5 121.5q-183 0 -291.5 -129.5t-108.5 -339.5q0 -227 110.5 -347.5t289.5 -120.5z" />
    <glyph glyph-name="o" unicode="&#xf5;" horiz-adv-x="1163" 
d="M582 1056q123 0 220.5 -43.5t158.5 -119t92.5 -171.5t31.5 -206q0 -79 -16.5 -153.5t-55 -146t-95 -125t-143.5 -86t-194 -32.5q-105 0 -190.5 30.5t-143 81.5t-96 120t-56 144t-17.5 156q0 156 58.5 280t174.5 197.5t271 73.5zM581 49q184 0 293 124.5t109 343.5
q0 226 -108.5 347.5t-293.5 121.5q-183 0 -291.5 -129.5t-108.5 -339.5q0 -227 110.5 -347.5t289.5 -120.5z" />
    <glyph glyph-name="o" unicode="&#xf4;" horiz-adv-x="1163" 
d="M582 1056q123 0 220.5 -43.5t158.5 -119t92.5 -171.5t31.5 -206q0 -79 -16.5 -153.5t-55 -146t-95 -125t-143.5 -86t-194 -32.5q-105 0 -190.5 30.5t-143 81.5t-96 120t-56 144t-17.5 156q0 156 58.5 280t174.5 197.5t271 73.5zM581 49q184 0 293 124.5t109 343.5
q0 226 -108.5 347.5t-293.5 121.5q-183 0 -291.5 -129.5t-108.5 -339.5q0 -227 110.5 -347.5t289.5 -120.5z" />
    <glyph glyph-name="o" unicode="&#xf3;" horiz-adv-x="1163" 
d="M582 1056q123 0 220.5 -43.5t158.5 -119t92.5 -171.5t31.5 -206q0 -79 -16.5 -153.5t-55 -146t-95 -125t-143.5 -86t-194 -32.5q-105 0 -190.5 30.5t-143 81.5t-96 120t-56 144t-17.5 156q0 156 58.5 280t174.5 197.5t271 73.5zM581 49q184 0 293 124.5t109 343.5
q0 226 -108.5 347.5t-293.5 121.5q-183 0 -291.5 -129.5t-108.5 -339.5q0 -227 110.5 -347.5t289.5 -120.5z" />
    <glyph glyph-name="o" unicode="&#xf2;" horiz-adv-x="1163" 
d="M582 1056q123 0 220.5 -43.5t158.5 -119t92.5 -171.5t31.5 -206q0 -79 -16.5 -153.5t-55 -146t-95 -125t-143.5 -86t-194 -32.5q-105 0 -190.5 30.5t-143 81.5t-96 120t-56 144t-17.5 156q0 156 58.5 280t174.5 197.5t271 73.5zM581 49q184 0 293 124.5t109 343.5
q0 226 -108.5 347.5t-293.5 121.5q-183 0 -291.5 -129.5t-108.5 -339.5q0 -227 110.5 -347.5t289.5 -120.5z" />
    <glyph glyph-name="p" unicode="p" horiz-adv-x="1120" 
d="M570 1057q66 4 128.5 -8t126 -48.5t110.5 -96t76.5 -158t29.5 -225.5q0 -93 -17 -171.5t-44.5 -133t-66.5 -96.5t-80 -67.5t-88 -41.5t-86.5 -22t-79.5 -6q-161 0 -285 122q-18 17 -33 41t-21 39l-7 15v-536h-98v1369h98v-195q25 66 74 109q116 101 263 110zM575 65
q175 1 267.5 120t92.5 352q0 226 -102.5 341t-269.5 106q-60 -4 -118 -34t-109 -84.5t-82 -143.5t-31 -198q0 -102 24.5 -184t62 -132t86 -83.5t93 -46.5t86.5 -13z" />
    <glyph glyph-name="q" unicode="q" horiz-adv-x="1120" 
d="M78 519q0 127 29.5 225.5t76.5 157.5t110.5 95.5t126 48.5t128.5 8q138 -9 248 -97q27 -21 49 -49.5t31 -46.5l9 -18v190h98v-1369h-98v531q-21 -54 -63 -94q-128 -121 -283 -121q-58 0 -114.5 12t-121.5 48.5t-113.5 93.5t-80.5 156.5t-32 228.5zM184 534
q0 -233 92.5 -352t267.5 -120q42 0 86.5 13t93 46.5t86 83.5t62 132.5t24.5 184.5q0 109 -31 198t-82 143.5t-109 84.5t-118 34q-167 9 -269.5 -106.5t-102.5 -341.5z" />
    <glyph glyph-name="r" unicode="r" horiz-adv-x="782" 
d="M734 1007l-50 -80q-3 3 -8 6.5t-23 14t-37 16t-50 11t-62 -1.5q-70 -10 -124 -48.5t-84.5 -95t-46 -119.5t-15.5 -130l-1 -580l-97 1l-1 1035h97v-196q3 8 9 21t29.5 47.5t53.5 62t82.5 52t113.5 29.5q64 5 117.5 -6t74.5 -25z" />
    <glyph glyph-name="s" unicode="s" horiz-adv-x="1036" 
d="M566 547q151 -26 200 -44q54 -20 90 -50q101 -87 93 -210q-7 -113 -99 -183t-213 -85t-247.5 12t-201.5 93q-36 32 -61 72t-32 64l-7 25l97 21q1 -6 3.5 -17t17.5 -40t38 -53.5t69 -50t106 -37.5q44 -9 97 -11t124 10.5t126 43.5q56 32 76 86.5t4.5 106t-54.5 85.5
q-39 33 -124 53t-168 27.5t-171 28t-131 54.5q-74 59 -91.5 146.5t19.5 167t112 124.5q73 43 177 57.5t196 2t149 -42.5q137 -71 183 -219l-92 -28q-1 6 -2.5 15.5t-13 36.5t-29.5 50t-55 49.5t-85 42.5q-69 23 -159 23q-102 0 -171 -32q-66 -29 -94 -58q-38 -41 -50 -98
q-16 -73 22 -122q22 -27 44.5 -44t58 -28t61 -15.5t87 -13t101.5 -15.5z" />
    <glyph glyph-name="s" unicode="&#xdf;" horiz-adv-x="1036" 
d="M566 547q151 -26 200 -44q54 -20 90 -50q101 -87 93 -210q-7 -113 -99 -183t-213 -85t-247.5 12t-201.5 93q-36 32 -61 72t-32 64l-7 25l97 21q1 -6 3.5 -17t17.5 -40t38 -53.5t69 -50t106 -37.5q44 -9 97 -11t124 10.5t126 43.5q56 32 76 86.5t4.5 106t-54.5 85.5
q-39 33 -124 53t-168 27.5t-171 28t-131 54.5q-74 59 -91.5 146.5t19.5 167t112 124.5q73 43 177 57.5t196 2t149 -42.5q137 -71 183 -219l-92 -28q-1 6 -2.5 15.5t-13 36.5t-29.5 50t-55 49.5t-85 42.5q-69 23 -159 23q-102 0 -171 -32q-66 -29 -94 -58q-38 -41 -50 -98
q-16 -73 22 -122q22 -27 44.5 -44t58 -28t61 -15.5t87 -13t101.5 -15.5z" />
    <glyph glyph-name="t" unicode="t" horiz-adv-x="761" 
d="M333 441q0 -20 -0.5 -68t0 -71.5t1.5 -58t5 -57t10 -38.5q37 -93 189 -79q31 3 61.5 13t44.5 18l15 9l25 -91q-72 -38 -196 -36q-50 1 -88.5 11.5t-65 26.5t-45 43t-29.5 54t-17 68t-7.5 77t-1.5 87v7v466l4 143l-160 -4v86l163 -4l-5 167l1 174l98 43l-1 -214l-4 -170
l143 4l166 1v-87h-167l-142 4l3 -146v-378z" />
    <glyph glyph-name="u" unicode="u" horiz-adv-x="1124" 
d="M112 292q-4 31 -7.5 94t-4.5 111l-2 48v487h103v-375v-35v-34l3 -151q-2 -340 235 -364q26 -3 48 -3q37 0 46 1q162 15 258.5 123.5t96.5 262.5l2 576l96 -1l1 -1038l-96 1l-1 217q-20 -46 -36 -66q-140 -171 -369 -168q-63 1 -120.5 17.5t-111 51t-91.5 97.5t-50 148z
" />
    <glyph glyph-name="u" unicode="&#xfc;" horiz-adv-x="1124" 
d="M112 292q-4 31 -7.5 94t-4.5 111l-2 48v487h103v-375v-35v-34l3 -151q-2 -340 235 -364q26 -3 48 -3q37 0 46 1q162 15 258.5 123.5t96.5 262.5l2 576l96 -1l1 -1038l-96 1l-1 217q-20 -46 -36 -66q-140 -171 -369 -168q-63 1 -120.5 17.5t-111 51t-91.5 97.5t-50 148z
" />
    <glyph glyph-name="u" unicode="&#xfb;" horiz-adv-x="1124" 
d="M112 292q-4 31 -7.5 94t-4.5 111l-2 48v487h103v-375v-35v-34l3 -151q-2 -340 235 -364q26 -3 48 -3q37 0 46 1q162 15 258.5 123.5t96.5 262.5l2 576l96 -1l1 -1038l-96 1l-1 217q-20 -46 -36 -66q-140 -171 -369 -168q-63 1 -120.5 17.5t-111 51t-91.5 97.5t-50 148z
" />
    <glyph glyph-name="u" unicode="&#xfa;" horiz-adv-x="1124" 
d="M112 292q-4 31 -7.5 94t-4.5 111l-2 48v487h103v-375v-35v-34l3 -151q-2 -340 235 -364q26 -3 48 -3q37 0 46 1q162 15 258.5 123.5t96.5 262.5l2 576l96 -1l1 -1038l-96 1l-1 217q-20 -46 -36 -66q-140 -171 -369 -168q-63 1 -120.5 17.5t-111 51t-91.5 97.5t-50 148z
" />
    <glyph glyph-name="u" unicode="&#xf9;" horiz-adv-x="1124" 
d="M112 292q-4 31 -7.5 94t-4.5 111l-2 48v487h103v-375v-35v-34l3 -151q-2 -340 235 -364q26 -3 48 -3q37 0 46 1q162 15 258.5 123.5t96.5 262.5l2 576l96 -1l1 -1038l-96 1l-1 217q-20 -46 -36 -66q-140 -171 -369 -168q-63 1 -120.5 17.5t-111 51t-91.5 97.5t-50 148z
" />
    <glyph glyph-name="v" unicode="v" horiz-adv-x="983" 
d="M842 1036h104l-398 -1036h-117l-394 1036h106l346 -933h8z" />
    <glyph glyph-name="w" unicode="w" horiz-adv-x="1558" 
d="M1421 1036h99l-338 -1016l-6 -20h-102l-6 20l-247 732l-40 158h-5l-40 -157l-256 -753h-102l-341 1036h102l289 -898h8l291 898h105l292 -896h8z" />
    <glyph glyph-name="x" unicode="x" horiz-adv-x="991" 
d="M548 516l405 -516h-110l-348 443l-335 -443h-123l405 516l-373 519h125l301 -443l310 443h115z" />
    <glyph glyph-name="y" unicode="y" horiz-adv-x="983" 
d="M842 1034h104l-321 -838l-106 -276q-31 -72 -74.5 -128t-87 -87t-89.5 -52t-85.5 -27.5t-70.5 -9t-49 -0.5l-18 2l6 95q6 -1 16.5 -2t42 0.5t62.5 7.5t72.5 24.5t76.5 47t70.5 78.5t58.5 115l-413 1050h106l348 -922h6l33 85z" />
    <glyph glyph-name="y" unicode="&#xff;" horiz-adv-x="983" 
d="M842 1034h104l-321 -838l-106 -276q-31 -72 -74.5 -128t-87 -87t-89.5 -52t-85.5 -27.5t-70.5 -9t-49 -0.5l-18 2l6 95q6 -1 16.5 -2t42 0.5t62.5 7.5t72.5 24.5t76.5 47t70.5 78.5t58.5 115l-413 1050h106l348 -922h6l33 85z" />
    <glyph glyph-name="y" unicode="&#xfd;" horiz-adv-x="983" 
d="M842 1034h104l-321 -838l-106 -276q-31 -72 -74.5 -128t-87 -87t-89.5 -52t-85.5 -27.5t-70.5 -9t-49 -0.5l-18 2l6 95q6 -1 16.5 -2t42 0.5t62.5 7.5t72.5 24.5t76.5 47t70.5 78.5t58.5 115l-413 1050h106l348 -922h6l33 85z" />
    <glyph glyph-name="z" unicode="z" horiz-adv-x="1058" 
d="M98 954v79h838v-65l-716 -884l740 4v-88h-862v77l715 874z" />
    <glyph glyph-name="braceleft" unicode="{" horiz-adv-x="903" 
d="M559 -347q36 -18 79.5 -18.5t64 5t34.5 11.5l30 -77q-176 -40 -280 32q-26 18 -46.5 39t-33.5 45.5t-22.5 45t-13 49.5t-6 46t-0.5 48t3 41.5t5 40.5t4 32q13 104 -5 215t-70 165q-23 24 -64.5 36t-71.5 12h-31v83q13 -1 33.5 -0.5t65.5 12t68 35.5q51 54 69.5 165.5
t5.5 215.5q0 2 -4 32t-5 40.5t-3 41.5t0.5 48t6 46t13 49.5t22.5 45t33.5 45.5t46.5 39q104 72 280 32l-30 -77q-14 6 -34.5 11.5t-64 5t-79.5 -18.5q-55 -26 -87 -91t-21 -145q11 -76 15.5 -133.5t2 -126.5t-22 -128.5t-55.5 -107.5q-21 -28 -49.5 -47.5t-47.5 -24.5
l-18 -6q8 -2 20.5 -6t43 -24t51.5 -48q36 -48 55.5 -107.5t22 -128.5t-2 -126t-15.5 -133q-11 -80 21 -145t87 -91z" />
    <glyph glyph-name="braceright" unicode="}" horiz-adv-x="903" 
d="M600 536q23 -24 64.5 -36t71.5 -12h31v-83q-13 1 -33.5 0.5t-65.5 -12t-68 -35.5q-51 -54 -69.5 -165.5t-5.5 -215.5q0 -2 4 -32t5 -40.5t3 -41.5t-0.5 -48t-6 -46t-13 -49.5t-22.5 -45t-33.5 -45.5t-46.5 -39q-104 -72 -280 -32l30 77q14 -6 34.5 -11.5t64 -5t79.5 18.5
q56 26 88 91.5t21 145.5q-11 76 -15.5 133t-2.5 126.5t21.5 128.5t55.5 107q21 28 49.5 47.5t47.5 25.5l18 5q-8 2 -20.5 6t-43 24t-51.5 48q-36 48 -55.5 107t-21.5 128.5t2.5 126.5t15.5 133q11 80 -21 145.5t-88 91.5q-36 18 -79.5 18.5t-63.5 -5.5t-35 -12l-30 77
q176 40 280 -32q26 -18 46.5 -39t33.5 -45.5t22.5 -44.5t13 -49.5t6 -46t0.5 -47.5t-3 -41.5t-5 -40.5t-4 -32q-13 -104 5.5 -215.5t69.5 -165.5z" />
    <glyph glyph-name="asciitilde" unicode="~" horiz-adv-x="1275" 
d="M905 571q57 0 115.5 12.5t89.5 24.5l30 12l-4 -107q-95 -39 -235 -39q-88 0 -263 30.5t-265 30.5q-60 0 -118.5 -13t-86.5 -26l-29 -13q-1 17 -2 50.5t-2 49.5q11 6 30 14t80.5 22t123.5 14q91 0 267 -31t269 -31z" />
    <glyph glyph-name="nonbreakingspace" unicode="&#xa0;" horiz-adv-x="643" 
 />
    <glyph glyph-name="cent" unicode="&#xa2;" horiz-adv-x="1187" 
d="M1051 218q-111 -226 -375 -243v-172h-98v172q-92 7 -167.5 41t-126 84.5t-84.5 117.5t-49.5 138t-15.5 148q0 147 51.5 265.5t153 194t238.5 88.5v172h98v-172q259 -19 374 -257q-9 -4 -28 -11.5t-29 -11.5q-6 -2 -27 -11q-39 92 -115 148.5t-175 67.5v-924
q95 10 172.5 59t118.5 142zM237 505q0 -197 94.5 -314t246.5 -135v918q-154 -20 -247.5 -148.5t-93.5 -320.5z" />
    <glyph glyph-name="sterling" unicode="&#xa3;" horiz-adv-x="1333" 
d="M1097 210l99 -25q-27 -65 -67 -108t-120 -65q-55 -15 -244 -15h-562q-16 16 -23 26q-11 14 -23.5 46.5t-18.5 82t1 99.5t42.5 102t97.5 87q35 19 110.5 50t95.5 49h-312v91h305q-19 20 -78.5 52.5t-85.5 55.5q-65 57 -101.5 124t-43.5 128.5t5 123t38 110.5t62 86
q51 53 128.5 87.5t164 46.5t177.5 -4.5t168.5 -58t136.5 -121.5t82 -187l-93 -12q-2 12 -6 32t-25.5 68t-52.5 81q-70 75 -172.5 104.5t-218.5 10.5q-140 -22 -206 -83q-88 -82 -93 -215t83 -230q34 -36 108.5 -78t99.5 -69q26 -26 36 -52h388v-91h-383q-13 -44 -54 -74.5
t-108 -56t-77 -31.5q-38 -20 -62 -40.5t-45.5 -54.5t-18.5 -84t32 -113l497 1q144 0 182 7q43 8 74.5 23t46 31t23.5 30.5t10 23.5z" />
    <glyph glyph-name="yen" unicode="&#xa5;" horiz-adv-x="1544" 
d="M1409 1419l-537 -742h303v-91h-355v-78h355v-91h-355v-422h-96v422h-355v91h355v78h-355v91h303l-537 742l116 1l521 -717l519 717z" />
    <glyph glyph-name="copyright" unicode="&#xa9;" horiz-adv-x="686" 
d="M345 1163q21 0 35.5 7.5t18.5 15.5l4 7l41 -9q-1 -2 -2.5 -6t-9.5 -14.5t-18 -18t-29.5 -14t-42.5 -6.5q-54 0 -87.5 36t-32.5 102q1 59 34 92.5t84 33.5q24 0 44 -7t30.5 -16.5t17.5 -19.5t9 -17l2 -7l-40 -7q-1 4 -4.5 10t-19.5 16t-38 10q-36 0 -55 -21
q-23 -26 -21 -73q2 -51 26 -74q18 -18 54 -20zM342 1465q86 0 147 -61t61 -146t-61 -146t-147 -61t-146.5 60.5t-60.5 146.5t60.5 146.5t146.5 60.5zM342 1086q71 0 122 50.5t51 121.5t-51 121.5t-122 50.5t-121.5 -50.5t-50.5 -121.5t50.5 -121.5t121.5 -50.5z" />
    <glyph glyph-name="registered" unicode="&#xae;" horiz-adv-x="708" 
d="M390 190q26 -9 47 -61l25 -51h-49q-3 12 -18 47q-13 30 -33.5 44.5t-39.5 14.5h-15v-106h-41v252h84q46 2 67 -16t25 -40q7 -40 -17 -65q-3 -5 -12 -10q-16 -9 -23 -9zM359 218q25 0 35 12.5t8 28.5q-1 14 -12.5 25t-33.5 10h-49v-76h52zM354 419q90 0 154 -64t64 -155
q0 -90 -64 -154t-154 -64q-91 0 -155 64t-64 154q0 91 64 155t155 64zM354 19q75 0 128 53t53 128t-53 128.5t-128 53.5t-128.5 -53.5t-53.5 -128.5t53.5 -128t128.5 -53z" />
    <glyph glyph-name="divide" unicode="&#xf7;" horiz-adv-x="966" 
d="M521 750h-77v200h77v-200zM521 154h-77v200h77v-200zM830 518h-695v86h695v-86z" />
    <glyph glyph-name="quoteleft" unicode="&#x2018;" horiz-adv-x="385" 
d="M164 1421h86l-23 -199v-198h-92v198z" />
    <glyph glyph-name="quoteright" unicode="&#x2019;" horiz-adv-x="385" 
d="M159 1421h91v-199l-28 -198h-87l24 198v199z" />
    <glyph glyph-name="quotedblleft" unicode="&#x201c;" horiz-adv-x="536" 
d="M135 1222l29 199h86l-23 -199v-198h-92v198zM315 1421h87l-24 -199v-198h-91v198z" />
    <glyph glyph-name="quotedblright" unicode="&#x201d;" horiz-adv-x="534" 
d="M159 1220v198h91v-198l-28 -198h-87zM308 1418h91v-198l-28 -198h-87l24 198v198z" />
    <glyph glyph-name="Euro" unicode="&#x20ac;" horiz-adv-x="1384" 
d="M983 1363q-200 0 -346 -141t-177 -385h789l-15 -94h-781q0 -4 -0.5 -12t-0.5 -12q0 -22 2 -66h765l-15 -95h-741q19 -131 69 -231t121.5 -160.5t155.5 -90.5t178 -30q151 0 262 52v-93q-112 -38 -250 -38q-263 0 -432.5 153t-208.5 438h-214l15 95h190q-2 46 -2 69v21
h-212l16 94h202q31 286 205 442.5t435 156.5q140 0 256 -42v-87q-112 56 -266 56z" />
    <glyph glyph-name="trademark" unicode="&#x2122;" horiz-adv-x="731" 
d="M135 1380v36h192v-36h-74v-216h-42v216h-76zM575 1416l19 -252h-42l-8 154l-69 -154h-19l-69 154l-9 -154h-40l16 252h34l78 -177l76 177h33z" />
    <glyph glyph-name="Q.alt1" unicode="&#xf008;" horiz-adv-x="1626" 
d="M1361 67q35 -1 67 9t53 24t36.5 28t22.5 24l7 10v-122q-2 -3 -6.5 -7t-21 -15t-37 -19t-56.5 -15t-77 -7q-111 1 -204 85q-163 -85 -362 -85q-154 0 -282 47t-222.5 137t-147.5 231t-53 319t55 319.5t151.5 230.5t223.5 136t275 47q218 0 379 -93.5t244 -258.5t83 -381
q0 -193 -72 -348t-200 -251q58 -45 144 -45zM457 132q-31 41 -35 99.5t12 87.5q22 51 76.5 84.5t127.5 32.5q65 -1 132 -21t117 -46.5t106 -68t86 -68t70 -65.5q110 81 171.5 219t61.5 319q0 126 -30.5 234t-85.5 188t-129.5 137t-164 85.5t-187.5 28.5q-125 0 -232 -41
t-190 -121.5t-131 -211t-49 -297.5q-1 -206 72 -353t202 -222zM788 51q146 0 292 72q-220 214 -425 210q-53 -1 -90 -22t-50 -52t-11.5 -65.5t23.5 -65.5t57 -49q93 -28 204 -28z" />
    <glyph glyph-name="W.alt1" unicode="&#xf00b;" horiz-adv-x="2154" 
d="M1919 1427l99 -1l-586 -1426h-102l-234 570l-20 81l-19 -81l-234 -570h-102l-586 1426l104 1l533 -1323l256 631l-284 691l104 1l209 -519l20 -78l21 78l211 519l100 -1l-283 -689l255 -633z" />
    <glyph glyph-name="hyphen.alt1" unicode="&#xf00e;" horiz-adv-x="1658" 
d="M1523 515h-1388v87h1388v-87z" />
    <glyph glyph-name="hyphen.alt2" unicode="&#xf00f;" horiz-adv-x="2353" 
d="M2218 514h-2083v86h2083v-86z" />
    </font>
</defs>
</svg>
