<svg width="145" height="43" viewBox="0 0 145 43" fill="none" xmlns="http://www.w3.org/2000/svg">
<path d="M29.7727 14C29.3352 12.661 28.7585 11.4612 28.0426 10.4006C27.34 9.3267 26.4981 8.41193 25.517 7.65625C24.5492 6.90057 23.4489 6.32386 22.2159 5.92613C20.983 5.52841 19.6307 5.32954 18.1591 5.32954C15.7462 5.32954 13.5521 5.95265 11.5767 7.19886C9.60133 8.44508 8.0303 10.2812 6.86364 12.7074C5.69697 15.1335 5.11364 18.1098 5.11364 21.6364C5.11364 25.1629 5.7036 28.1392 6.88352 30.5653C8.06345 32.9915 9.66099 34.8277 11.6761 36.0739C13.6913 37.3201 15.9583 37.9432 18.4773 37.9432C20.8106 37.9432 22.8655 37.446 24.642 36.4517C26.4318 35.4441 27.8239 34.0256 28.8182 32.196C29.8258 30.3532 30.3295 28.1856 30.3295 25.6932L31.8409 26.0114H19.5909V21.6364H35.1023V26.0114C35.1023 29.3655 34.3864 32.2822 32.9545 34.7614C31.536 37.2405 29.5739 39.1629 27.0682 40.5284C24.5758 41.8807 21.7121 42.5568 18.4773 42.5568C14.8712 42.5568 11.7027 41.7083 8.97159 40.0114C6.25379 38.3144 4.13258 35.9015 2.60795 32.7727C1.09659 29.6439 0.340909 25.9318 0.340909 21.6364C0.340909 18.4148 0.77178 15.518 1.63352 12.946C2.50852 10.3608 3.74148 8.16004 5.33239 6.34375C6.9233 4.52746 8.80587 3.13542 10.9801 2.16761C13.1544 1.19981 15.5473 0.715908 18.1591 0.715908C20.3068 0.715908 22.3087 1.04072 24.1648 1.69034C26.0341 2.3267 27.6979 3.23485 29.1562 4.41477C30.6278 5.58144 31.8542 6.98011 32.8352 8.61079C33.8163 10.2282 34.4924 12.0246 34.8636 14H29.7727ZM65.8217 11.4545C65.5831 9.43939 64.6153 7.875 62.9183 6.76136C61.2214 5.64773 59.1399 5.09091 56.674 5.09091C54.871 5.09091 53.2933 5.38257 51.9411 5.96591C50.602 6.54924 49.5547 7.35132 48.799 8.37216C48.0566 9.39299 47.6854 10.553 47.6854 11.8523C47.6854 12.9394 47.9439 13.8741 48.4609 14.6563C48.9912 15.4252 49.6674 16.0682 50.4893 16.5852C51.3113 17.089 52.1731 17.5066 53.0746 17.8381C53.9761 18.1562 54.8047 18.4148 55.5604 18.6136L59.6967 19.7273C60.7573 20.0057 61.9373 20.3902 63.2365 20.8807C64.549 21.3712 65.8018 22.0407 66.995 22.8892C68.2015 23.7244 69.1958 24.7983 69.978 26.1108C70.7602 27.4233 71.1513 29.0341 71.1513 30.9432C71.1513 33.1439 70.5746 35.1326 69.4212 36.9091C68.281 38.6856 66.6106 40.0975 64.4098 41.1449C62.2223 42.1922 59.5642 42.7159 56.4354 42.7159C53.5187 42.7159 50.9931 42.2453 48.8587 41.304C46.7375 40.3627 45.067 39.0502 43.8473 37.3665C42.6409 35.6828 41.9581 33.7273 41.799 31.5H46.8899C47.0225 33.0379 47.5395 34.3106 48.4411 35.3182C49.3558 36.3125 50.5092 37.0549 51.9013 37.5455C53.3066 38.0227 54.8179 38.2614 56.4354 38.2614C58.3179 38.2614 60.0083 37.9564 61.5064 37.3466C63.0045 36.7235 64.1911 35.8617 65.0661 34.7614C65.9411 33.6477 66.3786 32.3485 66.3786 30.8636C66.3786 29.5114 66.0007 28.411 65.245 27.5625C64.4893 26.714 63.495 26.0246 62.2621 25.4943C61.0291 24.964 59.6967 24.5 58.2649 24.1023L53.2536 22.6705C50.0717 21.7557 47.5528 20.4498 45.6967 18.7528C43.8407 17.0559 42.9126 14.8352 42.9126 12.0909C42.9126 9.8106 43.5291 7.82197 44.7621 6.125C46.0083 4.41477 47.6787 3.08901 49.7734 2.14773C51.8814 1.19318 54.2346 0.715908 56.8331 0.715908C59.4581 0.715908 61.7914 1.18655 63.8331 2.12784C65.8748 3.05587 67.4922 4.3286 68.6854 5.94602C69.8918 7.56345 70.5282 9.39962 70.5945 11.4545H65.8217ZM80.9304 42H75.7599L90.7145 1.27273H95.8054L110.76 42H105.589L93.419 7.71591H93.1009L80.9304 42ZM82.8395 26.0909H103.68V30.4659H82.8395V26.0909ZM117.104 42V1.27273H130.865C134.06 1.27273 136.672 1.84943 138.7 3.00284C140.742 4.14299 142.253 5.6875 143.234 7.63636C144.215 9.58523 144.706 11.7595 144.706 14.1591C144.706 16.5587 144.215 18.7396 143.234 20.7017C142.267 22.6638 140.768 24.2282 138.74 25.3949C136.712 26.5483 134.113 27.125 130.945 27.125H121.081V22.75H130.786C132.973 22.75 134.73 22.3722 136.055 21.6165C137.381 20.8608 138.342 19.84 138.939 18.554C139.549 17.2547 139.854 15.7898 139.854 14.1591C139.854 12.5284 139.549 11.0701 138.939 9.78409C138.342 8.49811 137.375 7.49053 136.036 6.76136C134.696 6.01894 132.92 5.64773 130.706 5.64773H122.036V42H117.104Z" fill="white"/>
</svg>
