<svg width="227" height="54" viewBox="0 0 227 54" fill="none" xmlns="http://www.w3.org/2000/svg">
<path d="M0.931818 42L0.931818 1.27273H5.86364L5.86364 19.4091L27.5795 19.4091L27.5795 1.27273H32.5114V42H27.5795V23.7841H5.86364L5.86364 42H0.931818ZM60.9986 29.5114V11.4545H65.6918V42H60.9986V36.8295H60.6804C59.9645 38.3807 58.8509 39.6998 57.3395 40.7869C55.8281 41.8608 53.919 42.3977 51.6122 42.3977C49.7031 42.3977 48.0062 41.9801 46.5213 41.1449C45.0365 40.2964 43.8698 39.0237 43.0213 37.3267C42.1728 35.6165 41.7486 33.4621 41.7486 30.8636V11.4545H46.4418V30.5455C46.4418 32.7727 47.0649 34.5492 48.3111 35.875C49.5705 37.2008 51.1747 37.8636 53.1236 37.8636C54.2902 37.8636 55.4768 37.5653 56.6832 36.9687C57.9029 36.3722 58.9238 35.4574 59.7457 34.2244C60.581 32.9915 60.9986 31.4205 60.9986 29.5114ZM74.924 42V1.27273H79.6172V16.3068H80.0149C80.3596 15.7765 80.8369 15.1004 81.4467 14.2784C82.0698 13.4432 82.9581 12.7008 84.1115 12.0511C85.2782 11.3883 86.8558 11.0568 88.8445 11.0568C91.4164 11.0568 93.6835 11.6998 95.6456 12.9858C97.6077 14.2718 99.139 16.0947 100.239 18.4545C101.34 20.8144 101.89 23.5985 101.89 26.8068C101.89 30.0417 101.34 32.8456 100.239 35.2187C99.139 37.5786 97.6143 39.4081 95.6655 40.7074C93.7166 41.9934 91.4695 42.6364 88.924 42.6364C86.9619 42.6364 85.3909 42.3116 84.2109 41.6619C83.031 40.9991 82.1229 40.25 81.4865 39.4148C80.8501 38.5663 80.3596 37.8636 80.0149 37.3068H79.4581V42H74.924ZM79.5376 26.7273C79.5376 29.0341 79.8757 31.0691 80.5518 32.8324C81.228 34.5824 82.2157 35.9545 83.5149 36.9489C84.8142 37.9299 86.4051 38.4205 88.2876 38.4205C90.2498 38.4205 91.8871 37.9034 93.1996 36.8693C94.5253 35.822 95.5197 34.4167 96.1825 32.6534C96.8587 30.8769 97.1967 28.9015 97.1967 26.7273C97.1967 24.5795 96.8653 22.6439 96.2024 20.9205C95.5528 19.1837 94.5651 17.8116 93.2393 16.804C91.9268 15.7831 90.2763 15.2727 88.2876 15.2727C86.3786 15.2727 84.7744 15.7566 83.4751 16.7244C82.1759 17.679 81.1948 19.018 80.532 20.7415C79.8691 22.4517 79.5376 24.447 79.5376 26.7273ZM131.978 11.4545C131.739 9.43939 130.772 7.875 129.075 6.76136C127.378 5.64773 125.296 5.09091 122.83 5.09091C121.027 5.09091 119.45 5.38257 118.097 5.96591C116.758 6.54924 115.711 7.35132 114.955 8.37216C114.213 9.39299 113.842 10.553 113.842 11.8523C113.842 12.9394 114.1 13.8741 114.617 14.6562C115.147 15.4252 115.824 16.0682 116.646 16.5852C117.468 17.089 118.329 17.5066 119.231 17.8381C120.132 18.1562 120.961 18.4148 121.717 18.6136L125.853 19.7273C126.914 20.0057 128.094 20.3902 129.393 20.8807C130.705 21.3712 131.958 22.0407 133.151 22.8892C134.358 23.7244 135.352 24.7983 136.134 26.1108C136.916 27.4233 137.308 29.0341 137.308 30.9432C137.308 33.1439 136.731 35.1326 135.577 36.9091C134.437 38.6856 132.767 40.0975 130.566 41.1449C128.379 42.1922 125.72 42.7159 122.592 42.7159C119.675 42.7159 117.149 42.2453 115.015 41.304C112.894 40.3627 111.223 39.0502 110.004 37.3665C108.797 35.6828 108.114 33.7273 107.955 31.5H113.046C113.179 33.0379 113.696 34.3106 114.597 35.3182C115.512 36.3125 116.665 37.0549 118.058 37.5455C119.463 38.0227 120.974 38.2614 122.592 38.2614C124.474 38.2614 126.165 37.9564 127.663 37.3466C129.161 36.7235 130.347 35.8617 131.222 34.7614C132.097 33.6477 132.535 32.3485 132.535 30.8636C132.535 29.5114 132.157 28.411 131.401 27.5625C130.646 26.714 129.651 26.0246 128.418 25.4943C127.185 24.964 125.853 24.5 124.421 24.1023L119.41 22.6705C116.228 21.7557 113.709 20.4498 111.853 18.7528C109.997 17.0559 109.069 14.8352 109.069 12.0909C109.069 9.8106 109.685 7.82197 110.918 6.125C112.165 4.41477 113.835 3.08901 115.93 2.14773C118.038 1.19318 120.391 0.715908 122.989 0.715908C125.614 0.715908 127.948 1.18655 129.989 2.12784C132.031 3.05587 133.648 4.3286 134.842 5.94602C136.048 7.56345 136.684 9.39962 136.751 11.4545H131.978ZM144.78 53.4545V11.4545H149.314V16.3068H149.871C150.215 15.7765 150.693 15.1004 151.303 14.2784C151.926 13.4432 152.814 12.7008 153.967 12.0511C155.134 11.3883 156.712 11.0568 158.7 11.0568C161.272 11.0568 163.539 11.6998 165.501 12.9858C167.464 14.2718 168.995 16.0947 170.095 18.4545C171.196 20.8144 171.746 23.5985 171.746 26.8068C171.746 30.0417 171.196 32.8456 170.095 35.2187C168.995 37.5786 167.47 39.4081 165.521 40.7074C163.572 41.9934 161.325 42.6364 158.78 42.6364C156.818 42.6364 155.247 42.3116 154.067 41.6619C152.887 40.9991 151.979 40.25 151.342 39.4148C150.706 38.5663 150.215 37.8636 149.871 37.3068H149.473V53.4545H144.78ZM149.393 26.7273C149.393 29.0341 149.732 31.0691 150.408 32.8324C151.084 34.5824 152.071 35.9545 153.371 36.9489C154.67 37.9299 156.261 38.4205 158.143 38.4205C160.106 38.4205 161.743 37.9034 163.055 36.8693C164.381 35.822 165.375 34.4167 166.038 32.6534C166.714 30.8769 167.053 28.9015 167.053 26.7273C167.053 24.5795 166.721 22.6439 166.058 20.9205C165.409 19.1837 164.421 17.8116 163.095 16.804C161.783 15.7831 160.132 15.2727 158.143 15.2727C156.234 15.2727 154.63 15.7566 153.331 16.7244C152.032 17.679 151.051 19.018 150.388 20.7415C149.725 22.4517 149.393 24.447 149.393 26.7273ZM191.314 42.6364C188.556 42.6364 186.137 41.9801 184.055 40.6676C181.987 39.3551 180.37 37.5189 179.203 35.1591C178.05 32.7992 177.473 30.0417 177.473 26.8864C177.473 23.7045 178.05 20.9271 179.203 18.554C180.37 16.1809 181.987 14.3381 184.055 13.0256C186.137 11.7131 188.556 11.0568 191.314 11.0568C194.071 11.0568 196.484 11.7131 198.553 13.0256C200.634 14.3381 202.251 16.1809 203.405 18.554C204.571 20.9271 205.155 23.7045 205.155 26.8864C205.155 30.0417 204.571 32.7992 203.405 35.1591C202.251 37.5189 200.634 39.3551 198.553 40.6676C196.484 41.9801 194.071 42.6364 191.314 42.6364ZM191.314 38.4205C193.409 38.4205 195.132 37.8835 196.484 36.8097C197.837 35.7358 198.838 34.3239 199.487 32.5739C200.137 30.8239 200.462 28.928 200.462 26.8864C200.462 24.8447 200.137 22.9422 199.487 21.179C198.838 19.4157 197.837 17.9905 196.484 16.9034C195.132 15.8163 193.409 15.2727 191.314 15.2727C189.219 15.2727 187.496 15.8163 186.143 16.9034C184.791 17.9905 183.79 19.4157 183.141 21.179C182.491 22.9422 182.166 24.8447 182.166 26.8864C182.166 28.928 182.491 30.8239 183.141 32.5739C183.79 34.3239 184.791 35.7358 186.143 36.8097C187.496 37.8835 189.219 38.4205 191.314 38.4205ZM225.603 11.4545V15.4318H209.773V11.4545H225.603ZM214.387 4.13636H219.08V33.25C219.08 34.5758 219.272 35.5701 219.657 36.233C220.055 36.8826 220.558 37.3201 221.168 37.5455C221.791 37.7576 222.448 37.8636 223.137 37.8636C223.654 37.8636 224.078 37.8371 224.41 37.7841C224.741 37.7178 225.006 37.6648 225.205 37.625L226.16 41.8409C225.842 41.9602 225.397 42.0795 224.827 42.1989C224.257 42.3314 223.535 42.3977 222.66 42.3977C221.334 42.3977 220.035 42.1127 218.762 41.5426C217.503 40.9725 216.455 40.1042 215.62 38.9375C214.798 37.7708 214.387 36.2992 214.387 34.5227V4.13636Z" fill="white"/>
</svg>
