<svg width="200" height="43" viewBox="0 0 200 43" fill="none" xmlns="http://www.w3.org/2000/svg">
<path d="M33.2273 1.2726V41.9999H28.4545L6.26136 10.0226H5.86364V41.9999H0.931818V1.2726H5.70455L27.9773 33.3294H28.375V1.2726H33.2273ZM55.2663 42.6362C52.3232 42.6362 49.7843 41.9866 47.6499 40.6874C45.5286 39.3749 43.8913 37.5453 42.7379 35.1987C41.5978 32.8389 41.0277 30.0946 41.0277 26.9658C41.0277 23.837 41.5978 21.0794 42.7379 18.6931C43.8913 16.2934 45.4955 14.4241 47.5504 13.0851C49.6186 11.7328 52.0315 11.0567 54.7891 11.0567C56.38 11.0567 57.951 11.3218 59.5021 11.8521C61.0533 12.3825 62.4652 13.2442 63.7379 14.4374C65.0107 15.6173 66.0249 17.1817 66.7805 19.1306C67.5362 21.0794 67.9141 23.479 67.9141 26.3294V28.3181H44.3686V24.2612H63.1413C63.1413 22.5378 62.7966 20.9999 62.1072 19.6476C61.4311 18.2953 60.4633 17.2281 59.2038 16.4459C57.9576 15.6637 56.486 15.2726 54.7891 15.2726C52.9197 15.2726 51.3023 15.7366 49.9368 16.6647C48.5845 17.5794 47.5438 18.7726 46.8146 20.2442C46.0855 21.7158 45.7209 23.2934 45.7209 24.9772V27.6817C45.7209 29.9885 46.1186 31.944 46.9141 33.5482C47.7228 35.1391 48.843 36.3522 50.2749 37.1874C51.7067 38.0093 53.3705 38.4203 55.2663 38.4203C56.4993 38.4203 57.6129 38.248 58.6072 37.9033C59.6148 37.5453 60.4832 37.015 61.2124 36.3124C61.9415 35.5965 62.505 34.7082 62.9027 33.6476L67.4368 34.9203C66.9595 36.4582 66.1574 37.8105 65.0305 38.9772C63.9036 40.1306 62.5116 41.0321 60.8544 41.6817C59.1972 42.3181 57.3345 42.6362 55.2663 42.6362ZM77.733 11.4544L85.0511 23.9431L92.3693 11.4544H97.7784L87.9148 26.7272L97.7784 41.9999H92.3693L85.0511 30.1476L77.733 41.9999H72.3239L82.0284 26.7272L72.3239 11.4544H77.733ZM117.759 11.4544V15.4317H101.93V11.4544H117.759ZM106.543 4.13624H111.237V33.2499C111.237 34.5756 111.429 35.57 111.813 36.2328C112.211 36.8825 112.715 37.32 113.325 37.5453C113.948 37.7575 114.604 37.8635 115.293 37.8635C115.81 37.8635 116.235 37.837 116.566 37.784C116.897 37.7177 117.163 37.6647 117.362 37.6249L118.316 41.8408C117.998 41.9601 117.554 42.0794 116.984 42.1987C116.414 42.3313 115.691 42.3976 114.816 42.3976C113.49 42.3976 112.191 42.1126 110.918 41.5425C109.659 40.9724 108.612 40.104 107.776 38.9374C106.954 37.7707 106.543 36.2991 106.543 34.5226V4.13624ZM156.796 1.2726H161.728V30.3862C161.728 32.9847 161.251 35.1921 160.296 37.0084C159.342 38.8247 157.996 40.2035 156.259 41.1448C154.522 42.0861 152.474 42.5567 150.114 42.5567C147.887 42.5567 145.905 42.1523 144.168 41.3436C142.432 40.5217 141.066 39.355 140.072 37.8436C139.077 36.3323 138.58 34.5359 138.58 32.4544H143.433C143.433 33.6078 143.718 34.6154 144.288 35.4772C144.871 36.3256 145.666 36.9885 146.674 37.4658C147.682 37.9431 148.828 38.1817 150.114 38.1817C151.533 38.1817 152.739 37.8834 153.734 37.2868C154.728 36.6902 155.484 35.8152 156.001 34.6618C156.531 33.4951 156.796 32.07 156.796 30.3862V1.2726ZM193.884 11.4544C193.646 9.43927 192.678 7.87488 190.981 6.76124C189.284 5.6476 187.202 5.09079 184.737 5.09079C182.933 5.09079 181.356 5.38245 180.004 5.96579C178.665 6.54912 177.617 7.3512 176.862 8.37204C176.119 9.39287 175.748 10.5529 175.748 11.8521C175.748 12.9393 176.006 13.8739 176.523 14.6561C177.054 15.4251 177.73 16.0681 178.552 16.5851C179.374 17.0889 180.236 17.5065 181.137 17.8379C182.039 18.1561 182.867 18.4147 183.623 18.6135L187.759 19.7272C188.82 20.0056 190 20.39 191.299 20.8806C192.612 21.3711 193.864 22.0406 195.058 22.8891C196.264 23.7243 197.258 24.7982 198.04 26.1107C198.823 27.4232 199.214 29.034 199.214 30.9431C199.214 33.1438 198.637 35.1325 197.484 36.909C196.344 38.6855 194.673 40.0974 192.472 41.1448C190.285 42.1921 187.627 42.7158 184.498 42.7158C181.581 42.7158 179.056 42.2451 176.921 41.3039C174.8 40.3626 173.129 39.0501 171.91 37.3664C170.703 35.6826 170.021 33.7272 169.862 31.4999H174.952C175.085 33.0378 175.602 34.3105 176.504 35.3181C177.418 36.3124 178.572 37.0548 179.964 37.5453C181.369 38.0226 182.88 38.2612 184.498 38.2612C186.38 38.2612 188.071 37.9563 189.569 37.3465C191.067 36.7234 192.254 35.8616 193.129 34.7612C194.004 33.6476 194.441 32.3484 194.441 30.8635C194.441 29.5112 194.063 28.4109 193.308 27.5624C192.552 26.7139 191.558 26.0245 190.325 25.4942C189.092 24.9639 187.759 24.4999 186.327 24.1022L181.316 22.6703C178.134 21.7556 175.615 20.4497 173.759 18.7527C171.903 17.0557 170.975 14.8351 170.975 12.0908C170.975 9.81048 171.592 7.82185 172.825 6.12488C174.071 4.41465 175.741 3.08889 177.836 2.1476C179.944 1.19306 182.297 0.715786 184.896 0.715786C187.521 0.715786 189.854 1.18643 191.896 2.12772C193.937 3.05575 195.555 4.32847 196.748 5.9459C197.954 7.56332 198.591 9.3995 198.657 11.4544H193.884Z" fill="white"/>
</svg>
