<svg width="97" height="43" viewBox="0 0 97 43" fill="none" xmlns="http://www.w3.org/2000/svg">
<path d="M0.431818 41.5L0.431818 0.772726H14.1932C17.375 0.772726 19.9867 1.31629 22.0284 2.40341C24.0701 3.47727 25.5814 4.95549 26.5625 6.83807C27.5436 8.72064 28.0341 10.8617 28.0341 13.2614C28.0341 15.661 27.5436 17.7888 26.5625 19.6449C25.5814 21.5009 24.0767 22.9593 22.0483 24.0199C20.0199 25.0672 17.428 25.5909 14.2727 25.5909H3.13636V21.1364H14.1136C16.2879 21.1364 18.0379 20.8182 19.3636 20.1818C20.7027 19.5455 21.6705 18.6439 22.267 17.4773C22.8769 16.2973 23.1818 14.892 23.1818 13.2614C23.1818 11.6307 22.8769 10.2055 22.267 8.98579C21.6572 7.7661 20.6828 6.82481 19.3438 6.16193C18.0047 5.48579 16.2348 5.14773 14.0341 5.14773H5.36364L5.36364 41.5H0.431818ZM19.6023 23.2045L29.625 41.5H23.8977L14.0341 23.2045H19.6023ZM49.2976 42.0568C46.6726 42.0568 44.3326 41.6061 42.2777 40.7045C40.236 39.803 38.612 38.5502 37.4055 36.946C36.2124 35.3286 35.5627 33.4527 35.4567 31.3182H40.468C40.5741 32.6307 41.0249 33.7642 41.8203 34.7188C42.6158 35.66 43.6565 36.3892 44.9425 36.9062C46.2285 37.4233 47.6536 37.6818 49.218 37.6818C50.968 37.6818 52.5192 37.3769 53.8714 36.767C55.2237 36.1572 56.2843 35.3087 57.0533 34.2216C57.8222 33.1345 58.2067 31.875 58.2067 30.4432C58.2067 28.9451 57.8355 27.6259 57.093 26.4858C56.3506 25.3324 55.2635 24.4309 53.8317 23.7812C52.3999 23.1316 50.6499 22.8068 48.5817 22.8068H45.3203V18.4318H48.5817C50.1991 18.4318 51.6177 18.1402 52.8374 17.5568C54.0703 16.9735 55.0315 16.1515 55.7209 15.0909C56.4235 14.0303 56.7749 12.7841 56.7749 11.3523C56.7749 9.97348 56.4699 8.77367 55.8601 7.75284C55.2502 6.73201 54.3885 5.93655 53.2749 5.36648C52.1745 4.7964 50.8752 4.51136 49.3771 4.51136C47.9718 4.51136 46.6461 4.76989 45.3999 5.28693C44.1669 5.79072 43.1593 6.52651 42.3771 7.49432C41.5949 8.44886 41.1707 9.60227 41.1044 10.9545H36.3317C36.4112 8.82007 37.0542 6.95076 38.2607 5.34659C39.4671 3.72916 41.0447 2.4697 42.9936 1.56818C44.9557 0.666666 47.1101 0.215908 49.4567 0.215908C51.9756 0.215908 54.1366 0.726324 55.9396 1.74716C57.7427 2.75473 59.1281 4.08712 60.0959 5.74432C61.0637 7.40151 61.5476 9.19129 61.5476 11.1136C61.5476 13.4072 60.9444 15.3627 59.7379 16.9801C58.5447 18.5975 56.9207 19.7178 54.8658 20.3409V20.6591C57.4377 21.0833 59.4463 22.1771 60.8913 23.9403C62.3364 25.6903 63.0589 27.858 63.0589 30.4432C63.0589 32.6572 62.4557 34.6458 61.2493 36.4091C60.0561 38.1591 58.4254 39.5379 56.3572 40.5455C54.2891 41.553 51.9358 42.0568 49.2976 42.0568ZM71.9084 41.5V0.772726H96.3288V5.14773H76.8402V18.9091H94.4993V23.2841H76.8402V41.5L71.9084 41.5Z" fill="white"/>
</svg>
