<svg width="226" height="43" viewBox="0 0 226 43" fill="none" xmlns="http://www.w3.org/2000/svg">
<path d="M0.897639 41.5727L0.897639 0.845449L14.659 0.845449C17.8408 0.845449 20.4526 1.38901 22.4942 2.47613C24.5359 3.54999 26.0473 5.02821 27.0283 6.91079C28.0094 8.79337 28.4999 10.9345 28.4999 13.3341C28.4999 15.7337 28.0094 17.8615 27.0283 19.7176C26.0473 21.5737 24.5425 23.032 22.5141 24.0926C20.4857 25.14 17.8939 25.6636 14.7385 25.6636H3.60218L3.60218 21.2091H14.5795C16.7537 21.2091 18.5037 20.8909 19.8295 20.2545C21.1685 19.6182 22.1363 18.7167 22.7329 17.55C23.3427 16.3701 23.6476 14.9648 23.6476 13.3341C23.6476 11.7034 23.3427 10.2782 22.7329 9.05852C22.123 7.83882 21.1486 6.89753 19.8096 6.23465C18.4706 5.55852 16.7007 5.22045 14.4999 5.22045L5.82946 5.22045L5.82946 41.5727H0.897639ZM20.0681 23.2773L30.0908 41.5727L24.3635 41.5727L14.4999 23.2773H20.0681ZM48.5603 42.2091C45.6171 42.2091 43.0783 41.5595 40.9438 40.2602C38.8226 38.9477 37.1853 37.1182 36.0319 34.7716C34.8917 32.4117 34.3216 29.6674 34.3216 26.5386C34.3216 23.4098 34.8917 20.6523 36.0319 18.2659C37.1853 15.8663 38.7894 13.997 40.8444 12.6579C42.9126 11.3057 45.3254 10.6295 48.083 10.6295C49.6739 10.6295 51.2449 10.8947 52.7961 11.425C54.3472 11.9553 55.7591 12.817 57.0319 14.0102C58.3046 15.1901 59.3188 16.7545 60.0745 18.7034C60.8302 20.6523 61.208 23.0519 61.208 25.9023V27.8909H37.6626V23.8341H56.4353C56.4353 22.1106 56.0906 20.5727 55.4012 19.2204C54.7251 17.8682 53.7573 16.8009 52.4978 16.0187C51.2516 15.2365 49.78 14.8454 48.083 14.8454C46.2137 14.8454 44.5963 15.3095 43.2307 16.2375C41.8785 17.1523 40.8377 18.3455 40.1086 19.817C39.3794 21.2886 39.0148 22.8663 39.0148 24.55V27.2545C39.0148 29.5614 39.4126 31.5169 40.208 33.121C41.0167 34.7119 42.137 35.925 43.5688 36.7602C45.0006 37.5822 46.6644 37.9932 48.5603 37.9932C49.7932 37.9932 50.9069 37.8208 51.9012 37.4761C52.9088 37.1182 53.7771 36.5879 54.5063 35.8852C55.2355 35.1693 55.7989 34.2811 56.1966 33.2205L60.7307 34.4932C60.2535 36.0311 59.4514 37.3833 58.3245 38.55C57.1976 39.7034 55.8055 40.6049 54.1483 41.2545C52.4912 41.8909 50.6285 42.2091 48.5603 42.2091ZM77.3358 42.2886C75.4002 42.2886 73.6436 41.924 72.066 41.1949C70.4883 40.4525 69.2355 39.3852 68.3074 37.9932C67.3794 36.5879 66.9154 34.8909 66.9154 32.9023C66.9154 31.1523 67.2601 29.7337 67.9495 28.6466C68.6389 27.5462 69.5603 26.6845 70.7137 26.0614C71.8671 25.4383 73.1398 24.9742 74.5319 24.6693C75.9372 24.3511 77.3491 24.0992 78.7677 23.9136C80.6237 23.675 82.1285 23.496 83.2819 23.3767C84.4485 23.2441 85.297 23.0254 85.8273 22.7204C86.3709 22.4155 86.6427 21.8852 86.6427 21.1295V20.9704C86.6427 19.0083 86.1057 17.4837 85.0319 16.3966C83.9713 15.3095 82.3605 14.7659 80.1995 14.7659C77.959 14.7659 76.2023 15.2564 74.9296 16.2375C73.6569 17.2186 72.762 18.2659 72.2449 19.3795L67.7904 17.7886C68.5858 15.9326 69.6465 14.4875 70.9722 13.4534C72.3112 12.4061 73.7696 11.6769 75.3472 11.2659C76.9381 10.8417 78.5025 10.6295 80.0404 10.6295C81.0215 10.6295 82.1483 10.7489 83.4211 10.9875C84.7071 11.2129 85.9466 11.6835 87.1398 12.3994C88.3463 13.1153 89.3472 14.1958 90.1427 15.6409C90.9381 17.086 91.3359 19.0216 91.3359 21.4477V41.5727H86.6427V37.4364H86.404C86.0858 38.0992 85.5555 38.8085 84.8131 39.5642C84.0707 40.3199 83.083 40.9629 81.8501 41.4932C80.6171 42.0235 79.1124 42.2886 77.3358 42.2886ZM78.0518 38.0727C79.9078 38.0727 81.4722 37.7081 82.7449 36.979C84.0309 36.2498 84.9987 35.3085 85.6483 34.1551C86.3112 33.0017 86.6427 31.7886 86.6427 30.5159V26.2204C86.4438 26.4591 86.0063 26.6778 85.3302 26.8767C84.6673 27.0623 83.8983 27.228 83.0233 27.3739C82.1616 27.5064 81.3198 27.6258 80.4978 27.7318C79.6891 27.8246 79.0328 27.9042 78.529 27.9705C77.3093 28.1295 76.1692 28.3881 75.1086 28.746C74.0612 29.0907 73.2127 29.6144 72.5631 30.317C71.9268 31.0064 71.6086 31.9477 71.6086 33.1409C71.6086 34.7716 72.2118 36.0045 73.4182 36.8398C74.6379 37.6617 76.1824 38.0727 78.0518 38.0727ZM112.311 42.2091C109.447 42.2091 106.981 41.533 104.913 40.1807C102.845 38.8284 101.254 36.9657 100.141 34.5926C99.0269 32.2195 98.4701 29.5083 98.4701 26.4591C98.4701 23.3568 99.0402 20.6191 100.18 18.246C101.334 15.8597 102.938 13.997 104.993 12.6579C107.061 11.3057 109.474 10.6295 112.231 10.6295C114.379 10.6295 116.315 11.0273 118.038 11.8227C119.762 12.6182 121.174 13.7318 122.274 15.1636C123.374 16.5954 124.057 18.2659 124.322 20.175H119.629C119.271 18.783 118.476 17.55 117.243 16.4761C116.023 15.389 114.379 14.8454 112.311 14.8454C110.481 14.8454 108.877 15.3227 107.498 16.2773C106.133 17.2186 105.066 18.5509 104.297 20.2744C103.541 21.9847 103.163 23.9932 103.163 26.3C103.163 28.6598 103.534 30.7148 104.277 32.4648C105.033 34.2148 106.093 35.5737 107.459 36.5415C108.838 37.5093 110.455 37.9932 112.311 37.9932C113.531 37.9932 114.638 37.7811 115.632 37.3568C116.626 36.9326 117.468 36.3227 118.158 35.5273C118.847 34.7318 119.338 33.7773 119.629 32.6636H124.322C124.057 34.4667 123.401 36.0907 122.354 37.5358C121.32 38.9676 119.947 40.1078 118.237 40.9562C116.54 41.7915 114.565 42.2091 112.311 42.2091ZM144.467 11.0273V15.0045L128.638 15.0045V11.0273L144.467 11.0273ZM133.251 3.70909H137.945V32.8227C137.945 34.1485 138.137 35.1428 138.521 35.8057C138.919 36.4553 139.423 36.8928 140.033 37.1182C140.656 37.3303 141.312 37.4364 142.001 37.4364C142.518 37.4364 142.943 37.4098 143.274 37.3568C143.605 37.2905 143.871 37.2375 144.07 37.1977L145.024 41.4136C144.706 41.533 144.262 41.6523 143.692 41.7716C143.122 41.9042 142.399 41.9705 141.524 41.9705C140.198 41.9705 138.899 41.6854 137.626 41.1153C136.367 40.5453 135.32 39.6769 134.484 38.5102C133.662 37.3436 133.251 35.872 133.251 34.0955V3.70909ZM183.504 0.845449H188.436V29.9591C188.436 32.5576 187.959 34.765 187.004 36.5812C186.05 38.3975 184.704 39.7763 182.967 40.7176C181.23 41.6589 179.182 42.1295 176.822 42.1295C174.595 42.1295 172.613 41.7252 170.876 40.9165C169.14 40.0945 167.774 38.9278 166.78 37.4165C165.785 35.9051 165.288 34.1087 165.288 32.0273H170.141C170.141 33.1807 170.426 34.1883 170.996 35.05C171.579 35.8985 172.374 36.5614 173.382 37.0386C174.39 37.5159 175.536 37.7545 176.822 37.7545C178.241 37.7545 179.447 37.4562 180.442 36.8597C181.436 36.2631 182.192 35.3881 182.709 34.2347C183.239 33.068 183.504 31.6428 183.504 29.9591V0.845449ZM220.592 11.0273C220.354 9.01212 219.386 7.44772 217.689 6.33409C215.992 5.22045 213.91 4.66363 211.445 4.66363C209.641 4.66363 208.064 4.9553 206.712 5.53863C205.373 6.12196 204.325 6.92405 203.57 7.94488C202.827 8.96571 202.456 10.1258 202.456 11.425C202.456 12.5121 202.714 13.4468 203.231 14.229C203.762 14.9979 204.438 15.6409 205.26 16.1579C206.082 16.6617 206.944 17.0794 207.845 17.4108C208.747 17.729 209.575 17.9875 210.331 18.1864L214.467 19.3C215.528 19.5784 216.708 19.9629 218.007 20.4534C219.32 20.9439 220.572 21.6134 221.766 22.4619C222.972 23.2972 223.966 24.371 224.748 25.6835C225.531 26.996 225.922 28.6068 225.922 30.5159C225.922 32.7167 225.345 34.7053 224.192 36.4818C223.052 38.2583 221.381 39.6703 219.18 40.7176C216.993 41.765 214.335 42.2886 211.206 42.2886C208.289 42.2886 205.764 41.818 203.629 40.8767C201.508 39.9354 199.838 38.6229 198.618 36.9392C197.411 35.2555 196.729 33.3 196.57 31.0727H201.66C201.793 32.6106 202.31 33.8833 203.212 34.8909C204.126 35.8852 205.28 36.6276 206.672 37.1182C208.077 37.5955 209.588 37.8341 211.206 37.8341C213.088 37.8341 214.779 37.5292 216.277 36.9193C217.775 36.2962 218.962 35.4345 219.837 34.3341C220.712 33.2205 221.149 31.9212 221.149 30.4364C221.149 29.0841 220.771 27.9837 220.016 27.1352C219.26 26.2867 218.266 25.5973 217.033 25.067C215.8 24.5367 214.467 24.0727 213.035 23.675L208.024 22.2432C204.842 21.3284 202.323 20.0225 200.467 18.3256C198.611 16.6286 197.683 14.4079 197.683 11.6636C197.683 9.38333 198.3 7.39469 199.533 5.69772C200.779 3.9875 202.449 2.66174 204.544 1.72045C206.652 0.765904 209.005 0.288631 211.604 0.288631C214.229 0.288631 216.562 0.759275 218.604 1.70056C220.645 2.62859 222.263 3.90132 223.456 5.51874C224.662 7.13617 225.299 8.97234 225.365 11.0273H220.592Z" fill="white"/>
</svg>
