<svg width="227" height="44" viewBox="0 0 227 44" fill="none" xmlns="http://www.w3.org/2000/svg">
<path d="M11.3295 42.9999L0.193182 2.27262H5.20455L13.7159 35.4431H14.1136L22.7841 2.27262H28.3523L37.0227 35.4431H37.4205L45.9318 2.27262H50.9432L39.8068 42.9999H34.7159L25.7273 10.5453H25.4091L16.4205 42.9999H11.3295ZM66.4148 43.6363C63.4716 43.6363 60.9328 42.9866 58.7983 41.6874C56.6771 40.3749 55.0398 38.5453 53.8864 36.1988C52.7462 33.8389 52.1761 31.0946 52.1761 27.9658C52.1761 24.837 52.7462 22.0794 53.8864 19.6931C55.0398 17.2935 56.6439 15.4241 58.6989 14.0851C60.767 12.7328 63.1799 12.0567 65.9375 12.0567C67.5284 12.0567 69.0994 12.3219 70.6506 12.8522C72.2017 13.3825 73.6136 14.2442 74.8864 15.4374C76.1591 16.6173 77.1733 18.1817 77.929 20.1306C78.6847 22.0794 79.0625 24.4791 79.0625 27.3294V29.3181L55.517 29.3181V25.2613L74.2898 25.2613C74.2898 23.5378 73.9451 21.9999 73.2557 20.6476C72.5795 19.2953 71.6117 18.2281 70.3523 17.4459C69.1061 16.6637 67.6345 16.2726 65.9375 16.2726C64.0682 16.2726 62.4508 16.7366 61.0852 17.6647C59.733 18.5794 58.6922 19.7726 57.9631 21.2442C57.2339 22.7158 56.8693 24.2935 56.8693 25.9772V28.6817C56.8693 30.9885 57.267 32.944 58.0625 34.5482C58.8712 36.1391 59.9915 37.3522 61.4233 38.1874C62.8551 39.0094 64.5189 39.4203 66.4148 39.4203C67.6477 39.4203 68.7614 39.248 69.7557 38.9033C70.7633 38.5453 71.6316 38.015 72.3608 37.3124C73.09 36.5965 73.6534 35.7082 74.0511 34.6476L78.5852 35.9203C78.108 37.4582 77.3059 38.8105 76.179 39.9772C75.0521 41.1306 73.66 42.0321 72.0028 42.6817C70.3456 43.3181 68.483 43.6363 66.4148 43.6363ZM86.8381 42.9999V2.27262H91.5312V17.3067H91.929C92.2737 16.7764 92.7509 16.1003 93.3608 15.2783C93.9839 14.4431 94.8722 13.7007 96.0256 13.051C97.1922 12.3882 98.7699 12.0567 100.759 12.0567C103.33 12.0567 105.598 12.6997 107.56 13.9857C109.522 15.2717 111.053 17.0946 112.153 19.4544C113.254 21.8143 113.804 24.5984 113.804 27.8067C113.804 31.0416 113.254 33.8455 112.153 36.2186C111.053 38.5785 109.528 40.408 107.58 41.7073C105.631 42.9933 103.384 43.6363 100.838 43.6363C98.8759 43.6363 97.3049 43.3114 96.125 42.6618C94.9451 41.9989 94.0369 41.2499 93.4006 40.4147C92.7642 39.5662 92.2737 38.8635 91.929 38.3067H91.3722V42.9999H86.8381ZM91.4517 27.7272C91.4517 30.034 91.7898 32.069 92.4659 33.8323C93.142 35.5823 94.1297 36.9544 95.429 37.9488C96.7282 38.9298 98.3191 39.4203 100.202 39.4203C102.164 39.4203 103.801 38.9033 105.114 37.8692C106.439 36.8219 107.434 35.4166 108.097 33.6533C108.773 31.8768 109.111 29.9014 109.111 27.7272C109.111 25.5794 108.779 23.6438 108.116 21.9203C107.467 20.1836 106.479 18.8114 105.153 17.8039C103.841 16.783 102.19 16.2726 100.202 16.2726C98.2926 16.2726 96.6884 16.7565 95.3892 17.7243C94.09 18.6789 93.1089 20.0179 92.446 21.7414C91.7831 23.4516 91.4517 25.4469 91.4517 27.7272ZM134.585 12.4544V16.4317H118.119V12.4544H134.585ZM123.051 42.9999V8.23853C123.051 6.48853 123.462 5.03019 124.284 3.86353C125.106 2.69686 126.173 1.82186 127.486 1.23853C128.798 0.655193 130.184 0.363527 131.642 0.363527C132.795 0.363527 133.737 0.45633 134.466 0.641938C135.195 0.827543 135.739 0.999891 136.097 1.15898L134.744 5.2158C134.506 5.13626 134.174 5.03682 133.75 4.91751C133.339 4.79819 132.795 4.73853 132.119 4.73853C130.568 4.73853 129.448 5.12963 128.759 5.91182C128.082 6.69402 127.744 7.8408 127.744 9.35216V42.9999H123.051ZM145.856 2.27262V42.9999H141.163V2.27262H145.856ZM166.861 43.6363C164.103 43.6363 161.684 42.98 159.602 41.6675C157.534 40.355 155.917 38.5188 154.75 36.159C153.597 33.7991 153.02 31.0416 153.02 27.8863C153.02 24.7044 153.597 21.927 154.75 19.5539C155.917 17.1808 157.534 15.338 159.602 14.0255C161.684 12.713 164.103 12.0567 166.861 12.0567C169.618 12.0567 172.031 12.713 174.099 14.0255C176.181 15.338 177.798 17.1808 178.952 19.5539C180.118 21.927 180.702 24.7044 180.702 27.8863C180.702 31.0416 180.118 33.7991 178.952 36.159C177.798 38.5188 176.181 40.355 174.099 41.6675C172.031 42.98 169.618 43.6363 166.861 43.6363ZM166.861 39.4203C168.955 39.4203 170.679 38.8834 172.031 37.8096C173.384 36.7357 174.384 35.3238 175.034 33.5738C175.684 31.8238 176.009 29.9279 176.009 27.8863C176.009 25.8446 175.684 23.9421 175.034 22.1789C174.384 20.4156 173.384 18.9904 172.031 17.9033C170.679 16.8162 168.955 16.2726 166.861 16.2726C164.766 16.2726 163.043 16.8162 161.69 17.9033C160.338 18.9904 159.337 20.4156 158.688 22.1789C158.038 23.9421 157.713 25.8446 157.713 27.8863C157.713 29.9279 158.038 31.8238 158.688 33.5738C159.337 35.3238 160.338 36.7357 161.69 37.8096C163.043 38.8834 164.766 39.4203 166.861 39.4203ZM193.747 42.9999L184.44 12.4544H189.372L195.974 35.8408H196.293L202.815 12.4544H207.827L214.27 35.7613H214.588L221.19 12.4544H226.122L216.815 42.9999H212.202L205.52 19.534H205.043L198.361 42.9999H193.747Z" fill="white"/>
</svg>
