<svg width="280" height="53" viewBox="0 0 280 53" fill="none" xmlns="http://www.w3.org/2000/svg">
<path d="M11.2081 41.4702L0.0717219 0.742941H5.08309L13.5944 33.9134H13.9922L22.6626 0.742941H28.2308L36.9013 33.9134H37.299L45.8104 0.742941H50.8217L39.6854 41.4702H34.5945L25.6058 9.01567H25.2876L16.299 41.4702H11.2081ZM65.8956 42.1066C63.138 42.1066 60.7185 41.4503 58.6371 40.1378C56.5689 38.8253 54.9515 36.9892 53.7848 34.6293C52.6314 32.2695 52.0547 29.5119 52.0547 26.3566C52.0547 23.1748 52.6314 20.3973 53.7848 18.0242C54.9515 15.6511 56.5689 13.8083 58.6371 12.4958C60.7185 11.1833 63.138 10.527 65.8956 10.527C68.6532 10.527 71.066 11.1833 73.1342 12.4958C75.2157 13.8083 76.8331 15.6511 77.9865 18.0242C79.1532 20.3973 79.7365 23.1748 79.7365 26.3566C79.7365 29.5119 79.1532 32.2695 77.9865 34.6293C76.8331 36.9892 75.2157 38.8253 73.1342 40.1378C71.066 41.4503 68.6532 42.1066 65.8956 42.1066ZM65.8956 37.8907C67.9903 37.8907 69.7138 37.3537 71.066 36.2799C72.4183 35.206 73.4193 33.7941 74.0689 32.0441C74.7185 30.2941 75.0433 28.3982 75.0433 26.3566C75.0433 24.3149 74.7185 22.4124 74.0689 20.6492C73.4193 18.8859 72.4183 17.4607 71.066 16.3736C69.7138 15.2865 67.9903 14.7429 65.8956 14.7429C63.8009 14.7429 62.0774 15.2865 60.7251 16.3736C59.3729 17.4607 58.3719 18.8859 57.7223 20.6492C57.0727 22.4124 56.7479 24.3149 56.7479 26.3566C56.7479 28.3982 57.0727 30.2941 57.7223 32.0441C58.3719 33.7941 59.3729 35.206 60.7251 36.2799C62.0774 37.3537 63.8009 37.8907 65.8956 37.8907ZM86.9006 41.4702V10.9248H91.4346V15.5384H91.7528C92.3096 14.027 93.3172 12.8007 94.7756 11.8594C96.2339 10.9181 97.8778 10.4475 99.7074 10.4475C100.052 10.4475 100.483 10.4541 101 10.4674C101.517 10.4806 101.908 10.5005 102.173 10.527V15.2998C102.014 15.26 101.65 15.2003 101.08 15.1208C100.523 15.028 99.9328 14.9816 99.3096 14.9816C97.8248 14.9816 96.499 15.2931 95.3324 15.9162C94.179 16.5261 93.2642 17.3746 92.5881 18.4617C91.9252 19.5356 91.5937 20.7619 91.5937 22.1407V41.4702H86.9006ZM118.341 42.1066C115.795 42.1066 113.548 41.4636 111.599 40.1776C109.651 38.8784 108.126 37.0488 107.026 34.689C105.925 32.3159 105.375 29.5119 105.375 26.277C105.375 23.0687 105.925 20.2846 107.026 17.9248C108.126 15.5649 109.657 13.742 111.619 12.456C113.581 11.17 115.848 10.527 118.42 10.527C120.409 10.527 121.98 10.8585 123.134 11.5214C124.3 12.171 125.188 12.9134 125.798 13.7486C126.421 14.5706 126.905 15.2467 127.25 15.777H127.648V0.742941H132.341V41.4702H127.807V36.777H127.25C126.905 37.3339 126.415 38.0365 125.778 38.885C125.142 39.7202 124.234 40.4693 123.054 41.1321C121.874 41.7818 120.303 42.1066 118.341 42.1066ZM118.977 37.8907C120.86 37.8907 122.451 37.4001 123.75 36.4191C125.049 35.4248 126.037 34.0526 126.713 32.3026C127.389 30.5393 127.727 28.5043 127.727 26.1975C127.727 23.9172 127.396 21.9219 126.733 20.2117C126.07 18.4882 125.089 17.1492 123.79 16.1946C122.491 15.2268 120.886 14.7429 118.977 14.7429C116.989 14.7429 115.331 15.2534 114.006 16.2742C112.693 17.2818 111.705 18.6539 111.043 20.3907C110.393 22.1142 110.068 24.0498 110.068 26.1975C110.068 28.3717 110.4 30.3471 111.062 32.1236C111.739 33.8869 112.733 35.2922 114.045 36.3395C115.371 37.3736 117.015 37.8907 118.977 37.8907ZM141.588 52.9248V10.9248H146.122V15.777H146.679C147.024 15.2467 147.501 14.5706 148.111 13.7486C148.734 12.9134 149.622 12.171 150.776 11.5214C151.942 10.8585 153.52 10.527 155.509 10.527C158.08 10.527 160.348 11.17 162.31 12.456C164.272 13.742 165.803 15.5649 166.903 17.9248C168.004 20.2846 168.554 23.0687 168.554 26.277C168.554 29.5119 168.004 32.3159 166.903 34.689C165.803 37.0488 164.278 38.8784 162.33 40.1776C160.381 41.4636 158.134 42.1066 155.588 42.1066C153.626 42.1066 152.055 41.7818 150.875 41.1321C149.695 40.4693 148.787 39.7202 148.151 38.885C147.514 38.0365 147.024 37.3339 146.679 36.777H146.281V52.9248H141.588ZM146.202 26.1975C146.202 28.5043 146.54 30.5393 147.216 32.3026C147.892 34.0526 148.88 35.4248 150.179 36.4191C151.478 37.4001 153.069 37.8907 154.952 37.8907C156.914 37.8907 158.551 37.3736 159.864 36.3395C161.189 35.2922 162.184 33.8869 162.847 32.1236C163.523 30.3471 163.861 28.3717 163.861 26.1975C163.861 24.0498 163.529 22.1142 162.866 20.3907C162.217 18.6539 161.229 17.2818 159.903 16.2742C158.591 15.2534 156.94 14.7429 154.952 14.7429C153.043 14.7429 151.438 15.2268 150.139 16.1946C148.84 17.1492 147.859 18.4882 147.196 20.2117C146.533 21.9219 146.202 23.9172 146.202 26.1975ZM175.713 41.4702V10.9248H180.247V15.5384H180.565C181.122 14.027 182.13 12.8007 183.588 11.8594C185.046 10.9181 186.69 10.4475 188.52 10.4475C188.865 10.4475 189.295 10.4541 189.812 10.4674C190.33 10.4806 190.721 10.5005 190.986 10.527V15.2998C190.827 15.26 190.462 15.2003 189.892 15.1208C189.335 15.028 188.745 14.9816 188.122 14.9816C186.637 14.9816 185.312 15.2931 184.145 15.9162C182.991 16.5261 182.077 17.3746 181.401 18.4617C180.738 19.5356 180.406 20.7619 180.406 22.1407V41.4702H175.713ZM208.426 42.1066C205.483 42.1066 202.944 41.457 200.81 40.1577C198.688 38.8452 197.051 37.0157 195.898 34.6691C194.758 32.3092 194.187 29.5649 194.187 26.4361C194.187 23.3073 194.758 20.5498 195.898 18.1634C197.051 15.7638 198.655 13.8945 200.71 12.5554C202.778 11.2032 205.191 10.527 207.949 10.527C209.54 10.527 211.111 10.7922 212.662 11.3225C214.213 11.8528 215.625 12.7145 216.898 13.9077C218.17 15.0876 219.185 16.652 219.94 18.6009C220.696 20.5498 221.074 22.9494 221.074 25.7998V27.7884H197.528V23.7316H216.301C216.301 22.0081 215.956 20.4702 215.267 19.1179C214.591 17.7657 213.623 16.6984 212.364 15.9162C211.117 15.134 209.646 14.7429 207.949 14.7429C206.08 14.7429 204.462 15.207 203.097 16.135C201.744 17.0498 200.704 18.2429 199.974 19.7145C199.245 21.1861 198.881 22.7638 198.881 24.4475V27.152C198.881 29.4589 199.278 31.4143 200.074 33.0185C200.883 34.6094 202.003 35.8225 203.435 36.6577C204.866 37.4797 206.53 37.8907 208.426 37.8907C209.659 37.8907 210.773 37.7183 211.767 37.3736C212.775 37.0157 213.643 36.4854 214.372 35.7827C215.101 35.0668 215.665 34.1785 216.062 33.1179L220.597 34.3907C220.119 35.9285 219.317 37.2808 218.19 38.4475C217.063 39.6009 215.671 40.5024 214.014 41.152C212.357 41.7884 210.494 42.1066 208.426 42.1066ZM249.849 17.7657L245.634 18.9589C245.368 18.2562 244.977 17.5734 244.46 16.9106C243.956 16.2344 243.267 15.6776 242.392 15.2401C241.517 14.8026 240.397 14.5839 239.031 14.5839C237.162 14.5839 235.604 15.0147 234.358 15.8765C233.125 16.7249 232.509 17.8054 232.509 19.1179C232.509 20.2846 232.933 21.206 233.781 21.8821C234.63 22.5583 235.955 23.1217 237.759 23.5725L242.293 24.6861C245.024 25.349 247.059 26.3632 248.398 27.7287C249.737 29.081 250.406 30.8244 250.406 32.9589C250.406 34.7089 249.902 36.2732 248.895 37.652C247.901 39.0308 246.509 40.1179 244.719 40.9134C242.929 41.7089 240.848 42.1066 238.474 42.1066C235.359 42.1066 232.78 41.4304 230.739 40.0782C228.697 38.7259 227.404 36.7505 226.861 34.152L231.315 33.0384C231.74 34.6823 232.542 35.9153 233.722 36.7373C234.915 37.5592 236.473 37.9702 238.395 37.9702C240.582 37.9702 242.319 37.5062 243.605 36.5782C244.904 35.6369 245.554 34.51 245.554 33.1975C245.554 32.1369 245.183 31.2486 244.44 30.5327C243.698 29.8035 242.558 29.26 241.02 28.902L235.929 27.7089C233.132 27.046 231.077 26.0185 229.764 24.6265C228.465 23.2212 227.815 21.4645 227.815 19.3566C227.815 17.6331 228.299 16.1085 229.267 14.7827C230.248 13.457 231.58 12.4162 233.264 11.6606C234.961 10.9049 236.884 10.527 239.031 10.527C242.054 10.527 244.427 11.1899 246.151 12.5157C247.887 13.8414 249.12 15.5914 249.849 17.7657ZM279.107 17.7657L274.891 18.9589C274.626 18.2562 274.235 17.5734 273.718 16.9106C273.214 16.2344 272.525 15.6776 271.65 15.2401C270.775 14.8026 269.655 14.5839 268.289 14.5839C266.42 14.5839 264.862 15.0147 263.616 15.8765C262.383 16.7249 261.766 17.8054 261.766 19.1179C261.766 20.2846 262.191 21.206 263.039 21.8821C263.888 22.5583 265.213 23.1217 267.016 23.5725L271.55 24.6861C274.281 25.349 276.317 26.3632 277.656 27.7287C278.995 29.081 279.664 30.8244 279.664 32.9589C279.664 34.7089 279.16 36.2732 278.153 37.652C277.158 39.0308 275.766 40.1179 273.977 40.9134C272.187 41.7089 270.105 42.1066 267.732 42.1066C264.617 42.1066 262.038 41.4304 259.996 40.0782C257.955 38.7259 256.662 36.7505 256.119 34.152L260.573 33.0384C260.997 34.6823 261.799 35.9153 262.979 36.7373C264.173 37.5592 265.73 37.9702 267.653 37.9702C269.84 37.9702 271.577 37.5062 272.863 36.5782C274.162 35.6369 274.812 34.51 274.812 33.1975C274.812 32.1369 274.441 31.2486 273.698 30.5327C272.956 29.8035 271.816 29.26 270.278 28.902L265.187 27.7089C262.389 27.046 260.335 26.0185 259.022 24.6265C257.723 23.2212 257.073 21.4645 257.073 19.3566C257.073 17.6331 257.557 16.1085 258.525 14.7827C259.506 13.457 260.838 12.4162 262.522 11.6606C264.219 10.9049 266.141 10.527 268.289 10.527C271.312 10.527 273.685 11.1899 275.408 12.5157C277.145 13.8414 278.378 15.5914 279.107 17.7657Z" fill="white"/>
</svg>
